<svg width="114" height="50" viewBox="0 0 114 50" fill="none" xmlns="http://www.w3.org/2000/svg">
<g clip-path="url(#clip0)" filter="url(#filter0_d)">
<path d="M61.1773 2.1395H52.2979V9.30983H61.1773V2.1395Z" fill="url(#paint0_linear)"/>
<path d="M61.1773 23.7063H52.2979V39.8605H61.1773V23.7063Z" fill="#0E2D5B"/>
<path d="M104.695 11.0954C102.936 8.24963 100.44 6.04552 97.234 4.48311C94.0284 2.9207 90.3688 2.1395 86.1986 2.1395H68.7802V9.30983H77.6596H80.2979H80.7801H85.773C89.6028 9.30983 92.6667 10.37 94.9645 12.4626C97.234 14.5551 98.3971 17.4009 98.3971 21C98.3971 24.5991 97.2624 27.4449 94.9645 29.5374C92.695 31.63 89.6312 32.6902 85.773 32.6902H77.6596V23.7063H68.7802V39.8605H86.1986C90.3688 39.8605 94.0567 39.0793 97.234 37.5169C100.44 35.9545 102.908 33.7504 104.695 30.9046C106.454 28.0587 107.362 24.7665 107.362 21C107.333 17.2335 106.454 13.9134 104.695 11.0954Z" fill="url(#paint1_linear)"/>
<path d="M35.844 32.6902H27.7305C23.9007 32.6902 20.8369 31.63 18.539 29.5374C16.2695 27.4449 15.1064 24.5991 15.1064 21C15.1064 17.4009 16.2411 14.5551 18.539 12.4626C20.8085 10.37 23.8723 9.30983 27.7305 9.30983H32.7234H35.844H44.7234V2.1395H27.305C23.1348 2.1395 19.4468 2.9207 16.2695 4.48311C13.0638 6.04552 10.5957 8.24963 8.80851 11.0954C7.04965 13.9413 6.14185 17.2335 6.14185 21C6.14185 24.7665 7.02128 28.0866 8.80851 30.9046C10.5674 33.7504 13.0638 35.9545 16.2695 37.5169C19.4752 39.0793 23.1348 39.8605 27.305 39.8605H44.7234V23.7063H35.844V32.6902Z" fill="url(#paint2_linear)"/>
<path d="M29.1206 14.2482H26.766V12.8811H33.149V14.2482H30.7944V20.0793H29.0922V14.2482H29.1206Z" fill="#0D2A55"/>
<path d="M44.4681 20.1072L43.0497 18.0984H42.9645H41.4894V20.1072H39.7872V12.909H42.9645C43.617 12.909 44.1844 13.0206 44.6667 13.2159C45.1489 13.4391 45.5177 13.7181 45.7731 14.1087C46.0284 14.4993 46.1702 14.9736 46.1702 15.5037C46.1702 16.0338 46.0284 16.5081 45.7731 16.8987C45.5177 17.2893 45.1489 17.5962 44.6667 17.7915L46.3121 20.1072H44.4681ZM44.0426 14.583C43.7872 14.3598 43.3901 14.2482 42.8794 14.2482H41.4894V16.7592H42.8794C43.3901 16.7592 43.7872 16.6476 44.0426 16.4244C44.2979 16.2012 44.4397 15.8943 44.4397 15.5037C44.4397 15.1131 44.2979 14.8062 44.0426 14.583Z" fill="#0D2A55"/>
<path d="M58.0567 18.5727H54.6525L54 20.1072H52.2695L55.5319 12.909H57.2057L60.4681 20.1072H58.6809L58.0567 18.5727ZM57.5461 17.2893L56.383 14.5272L55.2199 17.2893H57.5461Z" fill="#0D2A55"/>
<path d="M73.7163 12.909V20.1072H72.3263L68.6667 15.7269V20.1072H66.9929V12.909H68.383L72.0142 17.2893V12.909H73.7163Z" fill="#0D2A55"/>
<path d="M81.9433 19.9956C81.4043 19.8282 80.9787 19.6329 80.6383 19.3818L81.2057 18.1263C81.5177 18.3495 81.8865 18.5448 82.3121 18.6843C82.7376 18.8238 83.1631 18.8796 83.617 18.8796C84.0993 18.8796 84.4397 18.7959 84.695 18.6564C84.922 18.5169 85.0355 18.3216 85.0355 18.0984C85.0355 17.931 84.9787 17.7915 84.8369 17.6799C84.695 17.5683 84.5248 17.4846 84.3263 17.4009C84.1277 17.3172 83.8156 17.2614 83.4752 17.1777C82.9078 17.0382 82.4539 16.9266 82.1135 16.7871C81.7447 16.6476 81.461 16.4523 81.2057 16.1733C80.9504 15.8943 80.8369 15.5037 80.8369 15.0294C80.8369 14.6109 80.9504 14.2203 81.1773 13.8855C81.4043 13.5507 81.7447 13.2717 82.227 13.0764C82.6809 12.8811 83.2482 12.7695 83.9291 12.7695C84.383 12.7695 84.8653 12.8253 85.2908 12.9369C85.7447 13.0485 86.1135 13.2159 86.4539 13.4112L85.9433 14.6667C85.2624 14.2761 84.5816 14.1087 83.9007 14.1087C83.4185 14.1087 83.078 14.1924 82.8511 14.3319C82.6241 14.4714 82.5106 14.6946 82.5106 14.9178C82.5106 15.1689 82.6525 15.3363 82.9078 15.4758C83.1631 15.5874 83.5603 15.7269 84.0993 15.8385C84.6667 15.978 85.1206 16.0896 85.461 16.2291C85.8298 16.3686 86.1135 16.5639 86.3688 16.8429C86.6241 17.1219 86.7376 17.5125 86.7376 17.9868C86.7376 18.4053 86.6241 18.768 86.3972 19.1028C86.1702 19.4376 85.8014 19.7166 85.3475 19.9119C84.8936 20.1072 84.3263 20.2188 83.6454 20.2188C83.0213 20.2188 82.4823 20.1351 81.9433 19.9956Z" fill="#0D2A55"/>
</g>
<defs>
<filter id="filter0_d" x="0" y="0" width="113.333" height="50" filterUnits="userSpaceOnUse" color-interpolation-filters="sRGB">
<feFlood flood-opacity="0" result="BackgroundImageFix"/>
<feColorMatrix in="SourceAlpha" type="matrix" values="0 0 0 0 0 0 0 0 0 0 0 0 0 0 0 0 0 0 127 0"/>
<feOffset dy="4"/>
<feGaussianBlur stdDeviation="3"/>
<feColorMatrix type="matrix" values="0 0 0 0 0.054902 0 0 0 0 0.176471 0 0 0 0 0.360784 0 0 0 0.31 0"/>
<feBlend mode="normal" in2="BackgroundImageFix" result="effect1_dropShadow"/>
<feBlend mode="normal" in="SourceGraphic" in2="effect1_dropShadow" result="shape"/>
</filter>
<linearGradient id="paint0_linear" x1="56.7376" y1="2.1395" x2="56.7376" y2="9.30983" gradientUnits="userSpaceOnUse">
<stop stop-color="#FBB34A"/>
<stop offset="0.572917" stop-color="#FF9801"/>
</linearGradient>
<linearGradient id="paint1_linear" x1="88.0709" y1="2.1395" x2="88.0709" y2="39.8605" gradientUnits="userSpaceOnUse">
<stop stop-color="#6982A6"/>
<stop offset="0.395833" stop-color="#091F3E"/>
<stop offset="0.994792" stop-color="#0E2D5B"/>
</linearGradient>
<linearGradient id="paint2_linear" x1="25.4326" y1="2.1395" x2="25.4326" y2="39.8605" gradientUnits="userSpaceOnUse">
<stop stop-color="#6982A6"/>
<stop offset="0.395833" stop-color="#091F3E"/>
<stop offset="0.994792" stop-color="#0E2D5B"/>
</linearGradient>
<clipPath id="clip0">
<rect width="101.333" height="38" fill="white" transform="translate(6 2)"/>
</clipPath>
</defs>
</svg>
