<svg width="41" height="42" viewBox="0 0 41 42" fill="none" xmlns="http://www.w3.org/2000/svg">
<circle cx="20.5" cy="21.1206" r="20.5" fill="#FF9801"/>
<path d="M19.1797 15.4999C19.7526 15.4999 20.2865 15.6171 20.7812 15.8514C21.276 16.0598 21.7188 16.3462 22.1094 16.7108L20 18.8202H25V13.8202L23.2812 15.5389C22.7604 15.0181 22.1484 14.6145 21.4453 14.328C20.7422 14.0155 19.987 13.8462 19.1797 13.8202C17.6693 13.8723 16.3802 14.3671 15.3125 15.3046C14.2708 16.216 13.6328 17.3879 13.3984 18.8202H15.0781C15.2865 17.8566 15.7552 17.0754 16.4844 16.4764C17.2396 15.8514 18.138 15.5259 19.1797 15.4999ZM23.8672 23.1171C24.4401 22.3619 24.7917 21.4895 24.9219 20.4999H23.2422C23.0339 21.4634 22.5521 22.2577 21.7969 22.8827C21.0677 23.5077 20.1953 23.8202 19.1797 23.8202C18.5807 23.8202 18.0339 23.716 17.5391 23.5077C17.0443 23.2994 16.6016 22.9999 16.2109 22.6093L18.3203 20.4999H13.3203V25.4999L15.0391 23.7811C15.5859 24.328 16.2109 24.7577 16.9141 25.0702C17.6172 25.3566 18.3724 25.4999 19.1797 25.4999C20.4818 25.4738 21.6276 25.0962 22.6172 24.3671L26.6797 28.4296L27.9297 27.1796L23.8672 23.1171Z" fill="white"/>
</svg>
