<svg width="42" height="42" viewBox="0 0 42 42" fill="none" xmlns="http://www.w3.org/2000/svg">
<circle cx="20.7692" cy="21" r="20.7692" fill="#FF9801"/>
<path d="M22.7073 15.8227H18.8311V13.8846H22.7073V15.8227ZM28.4765 11.9465V27.3612C28.4465 27.902 28.2511 28.3528 27.8906 28.7133C27.53 29.0739 27.0793 29.2542 26.5384 29.2542H14.9999C14.4591 29.2542 14.0084 29.0739 13.6478 28.7133C13.2872 28.3528 13.0919 27.902 13.0618 27.3612V11.9465C13.0919 11.4056 13.2872 10.9549 13.6478 10.5944C14.0084 10.2338 14.4591 10.0535 14.9999 10.0535H26.5384C27.0793 10.0535 27.53 10.2338 27.8906 10.5944C28.2511 10.9549 28.4465 11.4056 28.4765 11.9465ZM26.5384 20.6004H14.9999V27.3612H26.5384V20.6004ZM26.5384 11.9465H14.9999V18.7073H26.5384V11.9465ZM22.7073 22.5385H18.8311V24.4766H22.7073V22.5385Z" fill="white"/>
</svg>
