<svg width="212" height="212" viewBox="0 0 212 212" fill="none" xmlns="http://www.w3.org/2000/svg">
<g clip-path="url(#clip0)">
<path d="M134.909 106C156.109 106 173.455 88.6546 173.455 67.4546C173.455 46.2546 156.109 28.9092 134.909 28.9092C113.709 28.9092 96.3638 46.2546 96.3638 67.4546C96.3638 88.6546 113.709 106 134.909 106ZM134.909 125.273C108.891 125.273 57.8184 137.8 57.8184 163.818V183.091H212V163.818C212 137.8 160.927 125.273 134.909 125.273Z" fill="#454B89"/>
<path d="M14.497 95.0712L13.0828 93.657L11.6685 95.0712L5.58579 101.154L4.17157 102.568L5.58579 103.982L25.1375 123.534L26.5517 124.948L27.9659 123.534L71.4142 80.0858L72.8284 78.6716L71.4142 77.2574L65.3315 71.1747L63.9172 69.7604L62.503 71.1747L26.5517 107.126L14.497 95.0712Z" fill="#454B89" stroke="#454B89" stroke-width="4"/>
</g>
<defs>
<clipPath id="clip0">
<rect width="212" height="212" fill="white"/>
</clipPath>
</defs>
</svg>
