<svg width="84" height="62" viewBox="0 0 84 62" fill="none" xmlns="http://www.w3.org/2000/svg">
<path d="M14.3756 22.9923C15.4056 22.9923 16.3461 22.7858 17.197 22.358C18.0479 21.9303 18.7346 21.3845 19.2422 20.7208L17.3911 18.9655C16.5999 19.8948 15.6445 20.3668 14.5547 20.3668C13.7188 20.3668 13.0172 20.0865 12.435 19.526C11.8677 18.9508 11.5841 18.2428 11.5841 17.402C11.5841 16.5318 11.8677 15.809 12.435 15.2338C13.0172 14.6585 13.7188 14.3783 14.5697 14.3783C15.5698 14.3783 16.4954 14.8355 17.3463 15.7353L19.1227 13.8915C18.1076 12.5788 16.361 11.738 14.3905 11.738C12.7932 11.738 11.4497 12.269 10.345 13.3458C9.25528 14.4078 8.70294 15.7648 8.70294 17.4168C8.70294 19.054 9.24035 20.3963 10.3301 21.4435C11.4198 22.476 12.7634 22.9923 14.3756 22.9923Z" fill="black"/>
<path d="M31.0481 22.83L28.6597 18.7885C30.0181 18.1543 30.6749 16.9153 30.6749 15.5435C30.6749 14.4963 30.3316 13.6408 29.6449 12.9623C28.9582 12.269 27.958 11.9298 26.6294 11.9298H22.0316V22.83H24.8231V19.2163H25.9129L27.8535 22.83H31.0481ZM26.5996 14.452C28.1521 14.334 28.2865 16.9005 26.4951 16.812H24.8231V14.452H26.5996Z" fill="black"/>
<path d="M39.6036 11.9298L37.6181 16.104L35.6924 11.9298H32.4082L36.2298 19.172V22.83H39.0064V19.172L42.8728 11.9298H39.6036Z" fill="black"/>
<path d="M45.5141 11.9298V22.83H48.3057V19.408H49.7089C51.1868 19.408 52.2915 19.0688 52.9931 18.3755C53.6947 17.6823 54.053 16.7973 54.053 15.7205C54.053 14.6438 53.7096 13.744 53.0229 13.0213C52.3512 12.2985 51.3062 11.9298 49.903 11.9298H45.5141ZM48.3057 16.93V14.452H49.903C50.6792 14.452 51.1868 14.983 51.1868 15.691C51.1868 16.3843 50.724 16.93 49.8433 16.93H48.3057Z" fill="black"/>
<path d="M59.0996 22.83H61.921V14.5848H64.9663V11.9298H56.0393V14.5848H59.0996V22.83Z" fill="black"/>
<path d="M72.6467 23.007C74.2888 23.007 75.6622 22.4613 76.7519 21.3845C77.8566 20.293 78.4089 18.9655 78.4089 17.3873C78.4089 15.809 77.8566 14.4668 76.7519 13.3753C75.6472 12.2838 74.2738 11.738 72.6318 11.738C71.0046 11.738 69.6312 12.2838 68.5265 13.3753C67.4219 14.4668 66.8695 15.809 66.8695 17.3873C66.8695 18.9655 67.4219 20.3078 68.5116 21.3845C69.6163 22.4613 70.9897 23.007 72.6467 23.007ZM72.6318 20.2783C71.8256 20.2783 71.139 19.998 70.5866 19.4523C70.0343 18.9065 69.7506 18.2133 69.7506 17.3725C69.7506 16.5465 70.0343 15.8533 70.5866 15.3075C71.139 14.747 71.8256 14.4668 72.6318 14.4668C73.4229 14.4668 74.1096 14.747 74.662 15.2928C75.2292 15.8385 75.5129 16.5318 75.5278 17.3725C75.5278 18.2133 75.2442 18.9065 74.6918 19.4523C74.1395 19.998 73.4528 20.2783 72.6318 20.2783Z" fill="black"/>
<path d="M84 1H1V61H47.5755" stroke="#12141B" stroke-opacity="0.7" stroke-width="1.1871"/>
<path d="M8.79797 27.961H13.565C15.007 27.961 16.036 28.43 16.652 29.368C17.268 30.292 17.576 31.65 17.576 33.442C17.576 35.234 17.303 36.585 16.757 37.495C16.211 38.405 15.231 38.86 13.817 38.86H12.347V46H8.79797V27.961ZM12.557 35.605C12.991 35.605 13.306 35.528 13.502 35.374C13.712 35.206 13.845 34.975 13.901 34.681C13.971 34.373 14.006 33.939 14.006 33.379C14.006 32.623 13.922 32.077 13.754 31.741C13.586 31.405 13.25 31.237 12.746 31.237H12.347V35.605H12.557ZM18.2203 46L19.9633 27.961H26.0743L27.7963 46H24.3733L24.1213 43.081H21.9373L21.7273 46H18.2203ZM22.2103 40.204H23.8483L23.0503 31.027H22.8823L22.2103 40.204ZM28.7277 46V27.961H32.2137V46H28.7277ZM33.6535 46V27.961H37.3705L39.0295 36.592V27.961H42.5155V46H38.9875L37.1815 36.97V46H33.6535ZM45.6665 46V31.426H43.5245V27.961H51.4205V31.426H49.2785V46H45.6665ZM52.4386 46V27.961H59.6626V31.447H56.1136V34.954H59.5156V38.356H56.1136V42.493H59.8936V46H52.4386ZM61.0929 27.961H66.6369C67.5189 27.961 68.1979 28.164 68.6739 28.57C69.1639 28.962 69.4929 29.522 69.6609 30.25C69.8289 30.964 69.9129 31.881 69.9129 33.001C69.9129 34.023 69.7799 34.821 69.5139 35.395C69.2479 35.969 68.7859 36.368 68.1279 36.592C68.6739 36.704 69.0659 36.977 69.3039 37.411C69.5559 37.845 69.6819 38.433 69.6819 39.175L69.6399 46H66.1119V38.944C66.1119 38.44 66.0139 38.118 65.8179 37.978C65.6219 37.838 65.2649 37.768 64.7469 37.768V46H61.0929V27.961ZM65.6289 34.639C66.1329 34.639 66.3849 34.093 66.3849 33.001C66.3849 32.525 66.3639 32.168 66.3219 31.93C66.2799 31.692 66.2029 31.531 66.0909 31.447C65.9789 31.349 65.8179 31.3 65.6079 31.3H64.7679V34.639H65.6289ZM75.3847 46.168C73.7467 46.168 72.5637 45.762 71.8357 44.95C71.1077 44.138 70.7437 42.829 70.7437 41.023V39.259H74.2927V41.506C74.2927 42.402 74.5797 42.85 75.1537 42.85C75.4757 42.85 75.6997 42.759 75.8257 42.577C75.9517 42.381 76.0147 42.059 76.0147 41.611C76.0147 41.023 75.9447 40.54 75.8047 40.162C75.6647 39.77 75.4827 39.448 75.2587 39.196C75.0487 38.93 74.6637 38.524 74.1037 37.978L72.5497 36.424C71.3457 35.248 70.7437 33.946 70.7437 32.518C70.7437 30.978 71.0937 29.809 71.7937 29.011C72.5077 28.199 73.5437 27.793 74.9017 27.793C76.5257 27.793 77.6947 28.227 78.4087 29.095C79.1227 29.949 79.4797 31.293 79.4797 33.127H75.8047L75.7837 31.888C75.7837 31.65 75.7137 31.461 75.5737 31.321C75.4477 31.181 75.2657 31.111 75.0277 31.111C74.7477 31.111 74.5377 31.188 74.3977 31.342C74.2577 31.496 74.1877 31.706 74.1877 31.972C74.1877 32.56 74.5237 33.169 75.1957 33.799L77.2957 35.815C77.7857 36.291 78.1917 36.746 78.5137 37.18C78.8357 37.6 79.0947 38.104 79.2907 38.692C79.4867 39.266 79.5847 39.952 79.5847 40.75C79.5847 42.528 79.2557 43.879 78.5977 44.803C77.9537 45.713 76.8827 46.168 75.3847 46.168Z" fill="black"/>
</svg>
