<svg width="60" height="60" viewBox="0 0 60 60" fill="none" xmlns="http://www.w3.org/2000/svg">
<circle cx="30" cy="30" r="30" fill="#FF9801" fill-opacity="0.2"/>
<circle cx="30" cy="30" r="25.3846" fill="#FF9801" fill-opacity="0.4"/>
<circle cx="29.5" cy="30.1206" r="20.5" fill="#FF9801"/>
<path d="M30.3417 19.5738H22.1396C21.564 19.5738 21.0844 19.7657 20.7006 20.1494C20.3169 20.5331 20.1091 21.0128 20.0771 21.5884V37.9926C20.1091 38.5682 20.3169 39.0478 20.7006 39.4316C21.0844 39.8153 21.564 40.0072 22.1396 40.0072H29.2865C28.8708 39.7513 28.4871 39.4476 28.1353 39.0958C27.8155 38.776 27.5277 38.4083 27.2719 37.9926H22.1396V21.5884H29.2865V26.7207H34.4188V27.9198C35.1543 28.0797 35.8418 28.3675 36.4813 28.7832V25.7134L30.3417 19.5738ZM36.7691 36.8414C37.4406 35.7222 37.6325 34.5711 37.3447 33.3879C37.0889 32.1728 36.4014 31.2294 35.2822 30.5579C34.195 29.8544 33.0438 29.6466 31.8287 29.9344C30.6455 30.1902 29.7022 30.8777 28.9987 31.9969C28.3272 33.0841 28.1193 34.2193 28.3751 35.4025C28.6629 36.5856 29.3504 37.5449 30.4377 38.2804C31.1731 38.76 31.9726 38.9999 32.8359 38.9999C33.7313 38.9999 34.5627 38.76 35.3301 38.2804L38.4959 41.4461L39.9348 40.0072L36.7691 36.8414ZM32.8839 36.9374C32.1484 36.9374 31.5409 36.6975 31.0612 36.2179C30.5816 35.7382 30.3417 35.1307 30.3417 34.3952C30.3417 33.6597 30.5816 33.0521 31.0612 32.5725C31.5409 32.0928 32.1484 31.853 32.8839 31.853C33.6194 31.853 34.2269 32.0928 34.7066 32.5725C35.1863 33.0521 35.4261 33.6597 35.4261 34.3952C35.4261 35.1307 35.1863 35.7382 34.7066 36.2179C34.2269 36.6975 33.6194 36.9374 32.8839 36.9374Z" fill="white"/>
</svg>
