<svg width="60" height="60" viewBox="0 0 60 60" fill="none" xmlns="http://www.w3.org/2000/svg">
<circle cx="30" cy="30" r="30" fill="#FF9801" fill-opacity="0.2"/>
<circle cx="29.9998" cy="30" r="25.3846" fill="#FF9801" fill-opacity="0.4"/>
<circle cx="30.5" cy="30.1206" r="20.5" fill="#FF9801"/>
<path d="M36.6797 20.1796H23.3203V21.8202L28.1641 25.453C26.6276 26.0259 25.5078 27.0025 24.8047 28.3827C24.1016 29.7629 23.9844 31.2473 24.4531 32.8358C25 34.3983 25.9635 35.5181 27.3438 36.1952C28.75 36.8983 30.2474 37.0155 31.8359 36.5468C33.3724 35.9999 34.4922 35.0363 35.1953 33.6561C35.8984 32.2499 36.0156 30.7525 35.5469 29.1639C35.2344 28.2785 34.7526 27.5233 34.1016 26.8983C33.4766 26.2473 32.7214 25.7655 31.8359 25.453L36.6797 21.8202V20.1796ZM32.4609 34.7499L30 33.3046L27.5391 34.7499L28.2031 31.9764L26.0547 30.1014L28.8672 29.8671L30 27.2499L31.1328 29.8671L33.9453 30.1014L31.7969 31.9764L32.4609 34.7499Z" fill="white"/>
</svg>
