<svg width="41" height="42" viewBox="0 0 41 42" fill="none" xmlns="http://www.w3.org/2000/svg">
<circle cx="20.5" cy="21.1206" r="20.5" fill="#FF9801"/>
<path d="M26.6797 11.1796H13.3203V12.8202L18.1641 16.453C16.6276 17.0259 15.5078 18.0025 14.8047 19.3827C14.1016 20.7629 13.9844 22.2473 14.4531 23.8358C15 25.3983 15.9635 26.5181 17.3438 27.1952C18.75 27.8983 20.2474 28.0155 21.8359 27.5468C23.3724 26.9999 24.4922 26.0363 25.1953 24.6561C25.8984 23.2499 26.0156 21.7525 25.5469 20.1639C25.2344 19.2785 24.7526 18.5233 24.1016 17.8983C23.4766 17.2473 22.7214 16.7655 21.8359 16.453L26.6797 12.8202V11.1796ZM22.4609 25.7499L20 24.3046L17.5391 25.7499L18.2031 22.9764L16.0547 21.1014L18.8672 20.8671L20 18.2499L21.1328 20.8671L23.9453 21.1014L21.7969 22.9764L22.4609 25.7499Z" fill="white"/>
</svg>
