<svg width="60" height="60" viewBox="0 0 60 60" fill="none" xmlns="http://www.w3.org/2000/svg">
<circle cx="30" cy="30" r="30" fill="#FF9801" fill-opacity="0.2"/>
<circle cx="30" cy="30" r="25.3846" fill="#FF9801" fill-opacity="0.4"/>
<circle cx="29.9999" cy="30" r="20.7692" fill="#FF9801"/>
<path d="M31.9381 24.8227H28.0619V22.8846H31.9381V24.8227ZM37.7073 20.9465V36.3612C37.6773 36.902 37.482 37.3528 37.1214 37.7133C36.7608 38.0739 36.3101 38.2542 35.7692 38.2542H24.2308C23.6899 38.2542 23.2392 38.0739 22.8786 37.7133C22.518 37.3528 22.3227 36.902 22.2927 36.3612V20.9465C22.3227 20.4056 22.518 19.9549 22.8786 19.5944C23.2392 19.2338 23.6899 19.0535 24.2308 19.0535H35.7692C36.3101 19.0535 36.7608 19.2338 37.1214 19.5944C37.482 19.9549 37.6773 20.4056 37.7073 20.9465ZM35.7692 29.6004H24.2308V36.3612H35.7692V29.6004ZM35.7692 20.9465H24.2308V27.7073H35.7692V20.9465ZM31.9381 31.5385H28.0619V33.4766H31.9381V31.5385Z" fill="white"/>
</svg>
