<svg width="20" height="15" viewBox="0 0 20 15" fill="none" xmlns="http://www.w3.org/2000/svg">
<path d="M9.17969 5.82031V7.5H8.32031V9.17969H6.67969V7.5H4.84375C4.66146 7.99479 4.36198 8.39844 3.94531 8.71094C3.52865 8.9974 3.04688 9.15365 2.5 9.17969C1.79688 9.15365 1.21094 8.90625 0.742188 8.4375C0.273438 7.96875 0.0390625 7.38281 0.0390625 6.67969C0.0390625 5.95052 0.273438 5.35156 0.742188 4.88281C1.21094 4.41406 1.79688 4.17969 2.5 4.17969C3.04688 4.17969 3.52865 4.33594 3.94531 4.64844C4.36198 4.9349 4.66146 5.32552 4.84375 5.82031H9.17969ZM2.5 5.82031C2.26562 5.84635 2.07031 5.9375 1.91406 6.09375C1.75781 6.25 1.67969 6.44531 1.67969 6.67969C1.67969 6.91406 1.75781 7.10938 1.91406 7.26562C2.07031 7.42188 2.26562 7.5 2.5 7.5C2.73438 7.5 2.92969 7.42188 3.08594 7.26562C3.24219 7.10938 3.32031 6.91406 3.32031 6.67969C3.32031 6.44531 3.24219 6.25 3.08594 6.09375C2.92969 5.9375 2.73438 5.84635 2.5 5.82031ZM13.3203 9.17969C14.5703 9.17969 15.9635 9.45312 17.5 10C19.0365 10.5469 19.8698 11.3802 20 12.5V14.1797H6.67969V12.5C6.8099 11.3802 7.63021 10.5469 9.14062 10C10.6771 9.45312 12.0703 9.17969 13.3203 9.17969ZM13.3203 7.5C12.3828 7.47396 11.6016 7.14844 10.9766 6.52344C10.3516 5.89844 10.0391 5.11719 10.0391 4.17969C10.0391 3.21615 10.3516 2.42188 10.9766 1.79688C11.6016 1.17188 12.3828 0.859375 13.3203 0.859375C14.2839 0.859375 15.0781 1.17188 15.7031 1.79688C16.3281 2.42188 16.6406 3.21615 16.6406 4.17969C16.6406 5.11719 16.3281 5.89844 15.7031 6.52344C15.0781 7.14844 14.2839 7.47396 13.3203 7.5Z" fill="#2A394F"/>
</svg>
