<svg width="18" height="18" viewBox="0 0 18 18" fill="none" xmlns="http://www.w3.org/2000/svg">
<path d="M13.01 11H12.22L11.94 10.73C12.92 9.59 13.51 8.11 13.51 6.5C13.51 2.91 10.6 0 7.01001 0C3.42001 0 0.51001 2.91 0.51001 6.5C0.51001 10.09 3.42001 13 7.01001 13C8.62001 13 10.1 12.41 11.24 11.43L11.51 11.71V12.5L16.51 17.49L18 16L13.01 11ZM7.01001 11C4.52001 11 2.51001 8.99 2.51001 6.5C2.51001 4.01 4.52001 2 7.01001 2C9.50001 2 11.51 4.01 11.51 6.5C11.51 8.99 9.50001 11 7.01001 11Z" fill="black" fill-opacity="0.32"/>
</svg>
