<svg width="24" height="24" viewBox="0 0 24 24" fill="none" xmlns="http://www.w3.org/2000/svg">
<path d="M17.3467 14.6667H16.2933L15.92 14.3067C17.2267 12.7867 18.0133 10.8133 18.0133 8.66667C18.0133 3.88 14.1333 0 9.34666 0C4.55999 0 0.679993 3.88 0.679993 8.66667C0.679993 13.4533 4.55999 17.3333 9.34666 17.3333C11.4933 17.3333 13.4667 16.5467 14.9867 15.24L15.3467 15.6133V16.6667L22.0133 23.32L24 21.3333L17.3467 14.6667ZM9.34666 14.6667C6.02666 14.6667 3.34666 11.9867 3.34666 8.66667C3.34666 5.34667 6.02666 2.66667 9.34666 2.66667C12.6667 2.66667 15.3467 5.34667 15.3467 8.66667C15.3467 11.9867 12.6667 14.6667 9.34666 14.6667Z" fill="black" fill-opacity="0.32"/>
</svg>
