<svg width="41" height="42" viewBox="0 0 41 42" fill="none" xmlns="http://www.w3.org/2000/svg">
<circle cx="20.5" cy="21.1207" r="20.5" fill="#FF9801"/>
<path d="M21.2317 18.6957H26.4423L21.2317 13.5292V18.6957ZM14.6522 12.1162H22.2031L27.8553 17.7683V29.0727C27.8259 29.6026 27.6345 30.0442 27.2813 30.3974C26.928 30.7507 26.4864 30.9273 25.9565 30.9273H14.6522C14.1223 30.9273 13.6807 30.7507 13.3274 30.3974C12.9742 30.0442 12.7828 29.6026 12.7534 29.0727V13.9708C12.7828 13.4409 12.9742 12.9993 13.3274 12.6461C13.6807 12.2928 14.1223 12.1162 14.6522 12.1162ZM23.1304 27.1739V25.2751H14.6522V27.1739H23.1304ZM25.9565 23.4205V21.5217H14.6522V23.4205H25.9565Z" fill="white"/>
</svg>
