<svg width="60" height="60" viewBox="0 0 60 60" fill="none" xmlns="http://www.w3.org/2000/svg">
<circle cx="30" cy="30" r="30" fill="#FF9801" fill-opacity="0.2"/>
<circle cx="30" cy="30" r="25.3846" fill="#FF9801" fill-opacity="0.4"/>
<circle cx="29.5" cy="30.1206" r="20.5" fill="#FF9801"/>
<path d="M28.1797 24.4999C28.7526 24.4999 29.2865 24.6171 29.7812 24.8514C30.276 25.0598 30.7188 25.3462 31.1094 25.7108L29 27.8202H34V22.8202L32.2812 24.5389C31.7604 24.0181 31.1484 23.6145 30.4453 23.328C29.7422 23.0155 28.987 22.8462 28.1797 22.8202C26.6693 22.8723 25.3802 23.3671 24.3125 24.3046C23.2708 25.216 22.6328 26.3879 22.3984 27.8202H24.0781C24.2865 26.8566 24.7552 26.0754 25.4844 25.4764C26.2396 24.8514 27.138 24.5259 28.1797 24.4999ZM32.8672 32.1171C33.4401 31.3619 33.7917 30.4895 33.9219 29.4999H32.2422C32.0339 30.4634 31.5521 31.2577 30.7969 31.8827C30.0677 32.5077 29.1953 32.8202 28.1797 32.8202C27.5807 32.8202 27.0339 32.716 26.5391 32.5077C26.0443 32.2994 25.6016 31.9999 25.2109 31.6093L27.3203 29.4999H22.3203V34.4999L24.0391 32.7811C24.5859 33.328 25.2109 33.7577 25.9141 34.0702C26.6172 34.3566 27.3724 34.4999 28.1797 34.4999C29.4818 34.4738 30.6276 34.0962 31.6172 33.3671L35.6797 37.4296L36.9297 36.1796L32.8672 32.1171Z" fill="white"/>
</svg>
