<svg width="32" height="32" viewBox="0 0 32 32" fill="none" xmlns="http://www.w3.org/2000/svg">
<circle cx="16" cy="16" r="16" fill="#FEDB41"/>
<g clip-path="url(#clip0)">
<path d="M16.9 12H15.1V15.6H11.5V17.4H15.1V21H16.9V17.4H20.5V15.6H16.9V12ZM16 7.5C11.05 7.5 7 11.55 7 16.5C7 21.45 11.05 25.5 16 25.5C20.95 25.5 25 21.45 25 16.5C25 11.55 20.95 7.5 16 7.5ZM16 23.7C12.04 23.7 8.8 20.46 8.8 16.5C8.8 12.54 12.04 9.3 16 9.3C19.96 9.3 23.2 12.54 23.2 16.5C23.2 20.46 19.96 23.7 16 23.7Z" fill="#13161F"/>
</g>
<defs>
<clipPath id="clip0">
<rect width="18" height="18" fill="white" transform="matrix(-1 0 0 1 25 7.5)"/>
</clipPath>
</defs>
</svg>
