<?xml version="1.0" encoding="utf-8"?>
<!-- Generator: Adobe Illustrator 17.0.0, SVG Export Plug-In . SVG Version: 6.00 Build 0)  -->
<!DOCTYPE svg PUBLIC "-//W3C//DTD SVG 1.1//EN" "http://www.w3.org/Graphics/SVG/1.1/DTD/svg11.dtd">
<svg version="1.1" id="Capa_1" xmlns="http://www.w3.org/2000/svg" xmlns:xlink="http://www.w3.org/1999/xlink" x="0px" y="0px"
	 width="179.716px" height="178.074px" viewBox="0 0 179.716 178.074" enable-background="new 0 0 179.716 178.074"
	 xml:space="preserve">
<g>
	
		<linearGradient id="SVGID_1_" gradientUnits="userSpaceOnUse" x1="-72.5" y1="538" x2="-72.5" y2="628" gradientTransform="matrix(1 0 0 -1 462.5 628)">
		<stop  offset="0.041" style="stop-color:#00C6FD"/>
		<stop  offset="0.2528" style="stop-color:#00C3FF"/>
		<stop  offset="0.4494" style="stop-color:#00CDE9"/>
		<stop  offset="0.6348" style="stop-color:#FFFFFF"/>
		<stop  offset="0.7865" style="stop-color:#0095E9"/>
		<stop  offset="0.9775" style="stop-color:#34FEF3"/>
	</linearGradient>
	<polygon fill="url(#SVGID_1_)" points="89.9,90 690,90 775.4,5.4 780,1.5 779.9,0 0,0 	"/>
	
		<linearGradient id="SVGID_2_" gradientUnits="userSpaceOnUse" x1="-372.5" y1="238" x2="-462.5" y2="238" gradientTransform="matrix(1 0 0 -1 462.5 628)">
		<stop  offset="0.041" style="stop-color:#00C6FD"/>
		<stop  offset="0.2528" style="stop-color:#00C3FF"/>
		<stop  offset="0.4494" style="stop-color:#00CDE9"/>
		<stop  offset="0.6348" style="stop-color:#FFFFFF"/>
		<stop  offset="0.7865" style="stop-color:#0095E9"/>
		<stop  offset="0.9775" style="stop-color:#34FEF3"/>
	</linearGradient>
	<polygon fill="url(#SVGID_2_)" points="90,689.8 89.9,89.6 5.2,5.2 0.9,0 0,0 0,780 	"/>
</g>
<g>
	
		<linearGradient id="SVGID_3_" gradientUnits="userSpaceOnUse" x1="-72.5" y1="618" x2="-72.5" y2="628" gradientTransform="matrix(1 0 0 -1 462.5 628)">
		<stop  offset="0.1984" style="stop-color:#161515"/>
		<stop  offset="0.2842" style="stop-color:#FFD615"/>
		<stop  offset="0.5146" style="stop-color:#0F0C0C"/>
		<stop  offset="0.7493" style="stop-color:#FFBA3F"/>
		<stop  offset="0.8071" style="stop-color:#141313"/>
	</linearGradient>
	<polygon fill="url(#SVGID_3_)" points="10,10 770.7,10 775.6,4.8 780,0 780,0 0,0 	"/>
	
		<linearGradient id="SVGID_4_" gradientUnits="userSpaceOnUse" x1="-822.5" y1="116" x2="-832.5" y2="116" gradientTransform="matrix(1 0 0 -1 832.5 506)">
		<stop  offset="0.1984" style="stop-color:#161515"/>
		<stop  offset="0.2842" style="stop-color:#FFD615"/>
		<stop  offset="0.5146" style="stop-color:#0F0C0C"/>
		<stop  offset="0.7493" style="stop-color:#FFBA3F"/>
		<stop  offset="0.8071" style="stop-color:#141313"/>
	</linearGradient>
	<polygon fill="url(#SVGID_4_)" points="10,770 10,9.3 4.8,4.4 0,0 0,0 0,780 	"/>
</g>
<linearGradient id="SVGID_5_" gradientUnits="userSpaceOnUse" x1="-72.5" y1="538" x2="-72.5" y2="552" gradientTransform="matrix(1 0 0 -1 462.5 628)">
	<stop  offset="0.106" style="stop-color:#FF9B2A"/>
	<stop  offset="0.2226" style="stop-color:#161616"/>
	<stop  offset="0.733" style="stop-color:#4F4F4F"/>
	<stop  offset="0.7981" style="stop-color:#0A0A0A"/>
</linearGradient>
<polygon fill="url(#SVGID_5_)" points="704,76 690,90 89.9,90 76,76 "/>
<linearGradient id="SVGID_6_" gradientUnits="userSpaceOnUse" x1="-742.4789" y1="116" x2="-756.5" y2="116" gradientTransform="matrix(1 0 0 -1 832.5 506)">
	<stop  offset="0.106" style="stop-color:#FF9B2A"/>
	<stop  offset="0.2226" style="stop-color:#161616"/>
	<stop  offset="0.733" style="stop-color:#4F4F4F"/>
	<stop  offset="0.7981" style="stop-color:#0A0A0A"/>
</linearGradient>
<polygon fill="url(#SVGID_6_)" points="76,76 90,90.1 90,690 76,704 "/>
<linearGradient id="SVGID_7_" gradientUnits="userSpaceOnUse" x1="-73.55" y1="571.9" x2="-73.55" y2="602" gradientTransform="matrix(1 0 0 -1 462.5 628)">
	<stop  offset="0" style="stop-color:#006994"/>
	<stop  offset="0.2528" style="stop-color:#2AFFFC"/>
	<stop  offset="0.4494" style="stop-color:#00ADD4"/>
	<stop  offset="0.6348" style="stop-color:#006DAA"/>
	<stop  offset="0.7865" style="stop-color:#2AEAFF"/>
	<stop  offset="0.9775" style="stop-color:#00647F"/>
</linearGradient>
<polygon fill="url(#SVGID_7_)" points="753,26 723.1,56 55,56.1 24.9,26.1 "/>
<linearGradient id="SVGID_8_" gradientUnits="userSpaceOnUse" x1="915.4011" y1="1329.0653" x2="946.5664" y2="1329.0653" gradientTransform="matrix(-1 0 0 1 971.5011 -938.9653)">
	<stop  offset="0" style="stop-color:#006994"/>
	<stop  offset="0.2528" style="stop-color:#2AFFFC"/>
	<stop  offset="0.4494" style="stop-color:#00ADD4"/>
	<stop  offset="0.6348" style="stop-color:#006DAA"/>
	<stop  offset="0.7865" style="stop-color:#2AEAFF"/>
	<stop  offset="0.9775" style="stop-color:#00647F"/>
</linearGradient>
<polygon fill="url(#SVGID_8_)" points="24.9,26.1 56,56 56.1,724.2 26,754.1 "/>
<g>
	<g opacity="0.19">
		<path d="M560.01,14.496c21.712,3.06,41.954,8.032,62.456,12.775c18.858,4.36,37.889,8.568,57.352,12.01l43.429,2.098
			c-21.885-3.902-84.086-8.6-105.452-13.42c-15.917-3.672-32.006-7.191-48.356-10.251c-29.411-5.585-58.044-5.125-86.071,3.137
			c-12.024,3.519-25.346,5.737-37.716,8.95c-8.477,2.142-17.041,4.437-24.654,7.344c-25.346,9.715-53.892,14.535-84.428,16.065
			c-24.221,1.224-48.615,2.065-72.836,3.29c-25.865,1.3-51.729,2.984-77.594,4.284c-20.069,0.994-40.224,1.606-60.293,2.371
			c-7.266,0.229-14.446,0.459-21.712,0.994c8.218,0.306,16.436,0.689,24.654,1.071c6.747,0.306,13.408,0.765,20.155,0.918
			c21.107,0.535,42.214,1.53,63.234,1.377c27.249-0.153,54.497-1.454,81.832-2.065c38.321-0.841,77.96-2.214,113.34,5.513
			c1.557,0.382,3.842,2.502,5.399,2.808l-9.448-1.08c-0.346-0.076-5.777-4.756-5.624,0.864c-38.84-8.492-77.284-7.799-119.066-6.192
			c-30.622,1.224-61.331,2.677-92.126,1.836c-8.304-0.229-16.522-0.841-24.74-1.3c-2.855-0.153-5.796-0.076-8.737-0.076
			c-1.384,0-2.768,0.153-4.239,0.076c-28.027-1.76-56.141-2.754-84.341-1.836l4.066-3.595c25.951-0.382,51.902-0.765,77.853-1.606
			c26.557-0.841,53.113-2.525,79.67-3.749c36.072-1.76,72.144-3.519,108.216-5.278c30.622-1.454,59.168-6.12,84.428-15.912
			c10.64-4.131,22.664-6.962,35.034-9.562c11.072-2.295,22.058-4.743,32.525-7.727C509.924,11.742,534.405,10.901,560.01,14.496z"/>
		<path d="M126.468,10.442h19.5c-0.259,0-0.604,0.077-0.863,0.077c-7.075,0.688-14.15,1.3-21.226,1.989l2.33-2.065
			C126.296,10.442,126.382,10.442,126.468,10.442z"/>
		<path d="M294.462,10.442h10.354c-26.058,4.131-52.029,8.338-78.345,11.934c-27.007,3.748-54.79,5.202-82.659,5.89
			c-12.77,0.306-25.54,0.612-38.31,0.995l-42.22-0.889c11.735-0.23,67.76-1.406,79.408-1.635
			c42.883-0.842,84.644-5.049,125.542-11.781C276.946,13.349,285.661,11.895,294.462,10.442z"/>
		<path d="M342.867,10.442h7.852c-14.668,3.519-29.509,6.808-44.436,9.945c-17.602,3.748-35.031,7.727-53.668,9.945
			c-20.104,2.371-40.381,3.672-60.916,3.978c-30.976,0.459-62.038,0.459-93.013,0.918L38.01,30.775c5.091,0,72.324,3,77.414,2.923
			c32.701-0.535,65.403-0.995,98.018-1.989c26.316-0.765,51.684-4.361,76.188-9.563C307.404,18.321,325.265,14.496,342.867,10.442z"
			/>
		<path d="M377.673,13.576h5.695c-9.491,2.677-19.069,5.278-28.732,7.803c-30.803,7.88-63.332,12.852-97.327,15.376
			c-13.805,1.071-27.352,3.06-40.985,4.819c-19.327,2.448-39.086,2.601-58.759,2.907c-22.347,0.382-44.608,0.765-66.956,1.071
			l-45.895-5.157c17.947-0.306,83.774,2.862,101.807,2.632c9.923-0.153,19.845-0.23,29.768-0.383
			c16.221-0.229,32.011-1.912,47.801-3.749c20.277-2.371,40.726-4.055,61.002-6.426C317.62,28.57,348.251,21.914,377.673,13.576z"/>
		<path d="M453.959,21.814l9.899-4.436c-11.734,3.29-22.369-0.281-34.362,2.703c-21.743,5.508-43.746,10.71-65.834,15.835
			c-25.108,5.89-51.597,8.262-78.69,9.18c-36.066,1.224-71.96,3.519-107.681,6.349c-34.168,2.678-68.336,5.125-102.85,5.738
			l1.812-1.683c33.392-0.612,66.438-2.984,99.485-5.585c35.635-2.754,71.356-5.355,107.336-6.273
			c35.635-0.918,69.113-5.738,100.951-14.382c20.277-5.508,41.33-10.175,61.951-15.377C450.117,12.66,449.903,22.962,453.959,21.814
			z"/>
		<path d="M168.947,16.229c-13.719,1.147-27.697,0.995-41.33,2.295c-2.675,0.23-5.35,0.535-8.024,0.765l-78.467,2.275
			c0.949-0.077,78.553-0.898,79.502-0.974c13.892-1.147,28.042-1.53,42.106-2.218c15.531-0.765,30.66,1.126,45.5-1.322
			l-10.791-1.295C188.125,17.054,178.525,15.464,168.947,16.229z M220.976,17.377c-30.285,4.513-61.347,6.35-92.582,7.497
			c-5.177,0.153-10.44,0.459-15.617,0.688L60.893,27.09c8.628-0.459,67.07-0.534,75.698-0.84
			c41.243-1.607,81.365-5.585,120.451-12.928c0.086,0,0.086,0,0.086,0h-11.217C237.629,14.699,229.346,16.076,220.976,17.377z"/>
	</g>
</g>
<g opacity="0.19">
	<path d="M14.394,168.659c2.955-24.007,7.756-46.388,12.336-69.055c4.21-20.851,8.273-41.892,11.597-63.412l1.266,13.278
		c-3.767,24.198-7.545,31.675-12.198,55.299c-3.546,17.599-6.944,35.388-9.898,53.465c-5.392,32.519-4.949,64.177,3.029,95.166
		c3.398,13.295,5.54,28.024,8.643,41.701c2.068,9.373,4.284,18.842,7.091,27.259c9.381,28.024,14.035,59.587,15.512,93.349
		c1.182,26.78,1.994,53.752,3.176,80.533c1.256,28.598,2.881,57.195,4.137,85.793c0.96,22.19,1.551,44.475,2.29,66.664
		c0.222,8.034,0.443,15.973,0.96,24.007c0.295-9.086,0.665-18.172,1.034-27.259c0.295-7.46,0.739-14.825,0.886-22.285
		c0.517-23.337,1.477-46.675,1.33-69.916c-0.148-30.128-1.403-60.256-1.994-90.48c-0.813-42.371,3.176-83.019,10.637-122.138
		c0.369-1.722,0.665-3.443,0.96-5.165v9.278c-0.074,0.383-0.148,0.765-0.222,1.243c-8.199,42.944-11.08,87.61-9.529,133.807
		c1.182,33.858,2.585,67.812,1.773,101.861c-0.222,9.182-0.813,18.268-1.256,27.354c-0.148,3.156-0.074,6.408-0.074,9.66
		c0,1.53,0.148,3.061,0.074,4.687c-1.699,30.989-2.659,62.073-1.773,93.253l-3.472-4.495c-0.369-28.693-0.739-57.387-1.551-86.08
		c-0.813-29.363-2.438-58.726-3.62-88.089c-1.699-39.884-3.398-79.768-5.097-119.651c-1.403-33.858-5.909-65.421-15.365-93.349
		c-3.989-11.764-6.722-25.059-9.234-38.736c-2.216-12.242-4.58-24.389-7.461-35.962C11.735,224.037,10.922,196.97,14.394,168.659z"
		/>
	<path d="M11.782,64.087c-0.443,2.264-0.886,4.528-1.33,6.792v-4.94L11.782,64.087z"/>
	<path d="M13.111,152.329c-0.813,5.93-1.699,11.764-2.585,17.599v-13.582c1.256-8.225,2.585-16.451,3.915-24.581
		c1.773-10.617,4.284-20.755,6.87-30.893l11.025-48.66C22.094,58.781,15.697,133.2,13.111,152.329z"/>
	<path d="M20.055,244.531c3.472,27.737,7.091,55.378,10.711,83.115c1.182,9.469,3.693,17.216,7.535,22.668
		c4.358,6.313,6.648,14.921,7.239,26.015c0.443,8.225,1.847,15.781,4.063,22.668c2.068,6.408,3.62,13.295,4.137,21.233
		c0.369,6.121,2.585,8.991,5.466,8.13c2.29-0.67,4.21-3.061,5.245-7.365c1.034-4.4,1.921-9.086,2.364-13.773
		c2.068-22.859,4.875-45.24,8.421-66.951v-10.425c-4.284,24.581-7.535,49.926-9.972,75.846c-0.369,4.208-0.886,8.704-1.921,12.338
		c-0.886,2.965-2.512,5.452-4.063,6.695c-2.29,1.817-3.915-0.765-4.137-6.026c-0.295-7.173-1.625-13.39-3.472-19.033
		c-2.733-8.225-4.284-17.407-4.949-27.354c-0.665-9.756-2.733-17.599-6.574-23.146c-4.654-6.695-7.239-16.068-8.643-27.45
		c-3.25-26.015-6.722-51.935-9.898-77.855c-0.665-5.26-0.665-10.904-1.034-16.26c0.222-16.929,2.216-32.806,6.353-47.153
		c9.086-31.276,15.512-65.038,20.757-99.853c0.813-5.069,4.621-20.659,5.138-25.92l-5.212,12.53l0,0
		c-0.369,3.634-0.739,7.269-1.256,10.808c-5.023,34.145-11.154,67.238-20.018,97.749c-4.654,15.973-7.017,33.38-7.239,52.222
		C19.39,233.34,19.39,239.175,20.055,244.531z"/>
	<path d="M24.783,177.5c0.591,6.484,1.108,13.173,2.142,19.348c3.324,20.686,5.097,41.887,4.801,64.116
		c-0.148,14.923,1.625,28.816,5.614,40.96c4.137,12.453,9.603,16.158,15.955,10.6c1.33-1.132,2.585-2.47,3.767-4.117
		c7.387-10.703,12.779-25.626,16.768-43.327c0.443-1.955,0.886-3.911,1.403-5.763v-6.69c-1.034,3.705-1.994,7.41-2.881,11.321
		c-4.21,17.702-9.529,32.83-17.285,42.813c-7.091,9.057-13.296,4.94-17.581-11.012c-3.693-13.791-4.432-28.919-4.21-50.84
		c0.517-13.688-2.438-31.698-5.023-50.12c-0.813-5.969-1.477-11.938-1.994-18.01c-1.034-11.732,0.369-21.921,4.137-30.257
		c1.551-3.499,3.176-6.895,4.875-10.086c3.915-7.616,6.796-16.878,8.643-27.787c0.96-5.66,1.994-11.321,3.029-16.775
		c0.517-2.882,1.256-5.66,2.068-8.233c4.949-15.849,12.262-15.232,16.62,1.647c1.551,5.969,2.733,12.453,4.432,18.319
		c1.699,5.969,3.324,11.938,5.171,17.701v-5.66c-1.921-6.278-3.62-12.864-5.245-19.76c-1.256-5.66-2.585-11.321-4.21-16.364
		c-2.364-7.41-5.614-11.629-9.751-10.703c-3.693,0.926-6.427,5.866-8.273,12.762c-1.773,6.69-3.324,13.894-4.506,21.201
		c-2.142,13.482-5.466,24.803-10.342,33.756c-1.256,2.367-2.438,5.043-3.62,7.719C25.226,153.109,23.675,164.43,24.783,177.5z"/>
	<path d="M33.647,228.032c1.33,16.467,3.25,32.521,7.387,46.724c1.847,6.381,4.063,12.041,7.535,13.997
		c5.023,2.779,8.864-2.47,12.188-10.189c3.176-7.41,4.949-16.672,6.5-26.243c1.256-7.719,2.807-15.129,5.54-20.789
		c0.886-1.852,1.699-3.705,2.438-5.763v-7.616c-1.182,3.808-2.364,7.41-3.693,10.909c-2.585,6.69-4.432,14.202-5.909,22.436
		c-1.108,6.175-2.216,12.453-3.841,17.804c-1.551,5.043-3.62,9.674-5.909,13.07c-4.21,6.278-8.643,4.734-11.671-4.528
		c-2.364-7.204-4.432-15.231-5.836-23.568c-3.25-19.348-4.358-39.931-5.318-56.192c-0.295-12.967,0.517-21.201,2.733-28.405
		c2.29-7.307,4.654-14.408,7.091-21.304c3.693-9.983,6.5-20.892,8.125-33.55c0.739-5.66,1.773-11.218,3.102-16.261
		c2.364-9.057,6.427-8.851,8.79,0.412c0.813,3.087,1.256,7.204,1.182,10.806c-0.148,15.54,2.438,28.508,6.427,40.652
		c1.699,5.043,3.25,10.394,4.728,15.746v-7.719c-1.625-5.66-3.546-10.909-5.318-16.467c-2.807-8.954-4.21-18.834-4.21-29.743
		c0-3.499-0.074-7.101-0.517-10.394c-0.96-7.204-3.029-12.144-6.353-13.379c-3.176-1.132-5.097,3.499-6.427,9.262
		c-1.182,5.352-2.29,11.012-3.029,16.672c-1.477,10.703-3.693,20.377-6.796,29.125c-2.585,7.101-5.097,14.305-7.535,21.715
		c-2.733,8.233-3.915,17.804-4.063,28.199C31.948,204.979,32.76,216.505,33.647,228.032z"/>
	<path d="M40.369,244.293c1.847,5.763,3.62,11.527,5.54,17.187c0.96,2.882,1.994,5.66,3.176,8.13
		c2.438,5.043,5.245,5.249,7.682-0.103c1.551-3.396,2.881-7.616,3.841-11.938c1.403-6.278,2.438-13.07,3.62-19.657
		c1.625-9.16,3.546-17.599,7.091-23.568c2.364-3.911,2.585-9.777,1.773-15.643c-0.517-4.014-1.33-8.027-2.216-11.629
		c-2.068-8.13-3.029-16.981-3.989-26.038c-0.96-8.439-2.142-16.981-3.841-24.7c-1.773-8.336-5.836-10.189-9.381-5.352
		c-1.256,1.647-2.364,3.911-3.324,6.484c-2.216,6.175-4.432,12.453-6.353,19.245c-4.801,16.569-7.978,34.477-8.125,51.664
		C35.937,223.401,37.266,234.516,40.369,244.293z M47.238,152.389c1.699-5.352,3.546-10.703,5.54-15.334
		c3.546-8.027,7.535-6.484,9.529,3.911c1.403,7.307,1.994,15.334,3.176,22.847c1.33,8.851,2.881,17.496,4.21,26.346
		c0.739,4.528,1.625,8.954,1.921,13.688c0.148,2.47-0.591,6.175-1.477,7.719c-3.472,6.072-5.54,14.099-7.165,23.053
		c-1.256,6.895-2.29,13.997-3.693,20.48c-1.034,4.528-2.512,8.542-3.989,12.144c-1.33,3.293-3.398,3.499-4.654,0.206
		c-6.279-16.467-13.296-32.213-13.149-57.221C37.857,188.924,41.698,169.885,47.238,152.389z"/>
	<path d="M42.659,215.373c2.29,14.305,5.466,27.479,9.455,39.725c0.665,2.058,1.699,3.602,2.585,5.352
		c0.517-2.264,1.33-4.425,1.551-6.895c1.182-10.497,2.733-20.583,5.909-28.919c0.739-1.955,1.403-4.117,2.068-6.175
		c1.921-5.866,2.438-12.453,1.699-19.348c-0.443-3.602-1.33-6.998-1.625-10.6c-0.591-6.792-0.886-13.791-1.182-20.686
		c-0.369-7.307-1.551-13.791-3.398-19.657c-2.068-6.484-4.654-6.792-6.944-0.72c-1.034,2.676-1.847,5.969-2.585,9.057
		c-2.142,9.057-4.284,18.113-6.205,27.376c-1.182,5.763-1.921,12.041-2.807,17.29C41.698,206.934,41.994,211.257,42.659,215.373z
		 M44.579,189.336c2.585-11.629,5.171-23.259,7.978-34.58c0.813-3.19,2.364-7.41,3.546-7.41c1.182,0,2.512,4.528,3.472,7.616
		c1.699,5.763,2.142,12.659,2.142,19.554c0.074,7.41,0.739,14.305,2.068,21.098c1.699,8.439,0.96,16.569-1.773,23.671
		c-3.546,9.16-6.057,19.451-7.017,31.595c-0.148,1.235-0.369,2.47-0.739,4.837c-4.58-14.82-8.495-29.125-10.637-45.592
		C42.659,202.921,43.102,195.819,44.579,189.336z"/>
	<path d="M53.074,219.181c1.551,2.779,3.324,4.528,5.318,2.47s2.585-6.175,2.659-10.806c0-1.544,0-3.087,0-4.528h0.074
		c-0.074-1.955,0-4.014-0.148-5.866c-0.591-5.866-1.182-11.732-1.847-17.496c-0.369-3.293-1.108-6.278-1.625-9.468
		c-0.443-2.779-0.813-7.925-1.403-8.027c-1.256-0.412-2.733,1.647-4.063,2.882c-0.443,0.412-0.886,1.441-1.182,2.367
		C46.204,188.307,45.613,205.699,53.074,219.181z M51.153,176.883c0.813-3.602,2.364-6.278,3.62-9.365
		c0.222,0.309,0.517,0.72,0.739,1.029c0.074,1.338,0.074,2.676,0.295,3.911c0.665,4.322,1.33,8.645,1.994,12.967
		c0.369,2.264,0.739,4.528,0.886,6.895c0.295,6.484,0.739,12.967,0.665,19.348c-0.074,6.792-2.438,9.262-4.801,5.249
		c-3.546-6.072-6.279-13.688-5.392-24.906C49.528,186.866,50.119,181.514,51.153,176.883z"/>
</g>
</svg>
