<?xml version="1.0" encoding="utf-8"?>
<!-- Generator: Adobe Illustrator 17.0.0, SVG Export Plug-In . SVG Version: 6.00 Build 0)  -->
<!DOCTYPE svg PUBLIC "-//W3C//DTD SVG 1.1//EN" "http://www.w3.org/Graphics/SVG/1.1/DTD/svg11.dtd">
<svg version="1.1" id="Capa_1" xmlns="http://www.w3.org/2000/svg" xmlns:xlink="http://www.w3.org/1999/xlink" x="0px" y="0px"
	 width="179.716px" height="178.517px" viewBox="0 0 179.716 178.517" enable-background="new 0 0 179.716 178.517"
	 xml:space="preserve">
<g>
	<polygon fill="#303030" points="89.9,90 690,90 775.4,5.4 780,1.5 779.9,0 0,0 	"/>
	<polygon fill="#303030" points="90,689.8 89.9,89.6 5.2,5.2 0.9,0 0,0 0,780 	"/>
</g>
<g>
	
		<linearGradient id="SVGID_1_" gradientUnits="userSpaceOnUse" x1="20" y1="132" x2="20" y2="122" gradientTransform="matrix(1 0 0 1 370 -122)">
		<stop  offset="0.1984" style="stop-color:#40C52A"/>
		<stop  offset="0.2842" style="stop-color:#F7250D"/>
		<stop  offset="0.5146" style="stop-color:#09EF00"/>
		<stop  offset="0.7493" style="stop-color:#E60F2E"/>
		<stop  offset="0.8071" style="stop-color:#00C017"/>
	</linearGradient>
	<polygon fill="url(#SVGID_1_)" points="10,10 770.7,10 775.6,4.8 780,0 780,0 0,0 	"/>
	
		<linearGradient id="SVGID_2_" gradientUnits="userSpaceOnUse" x1="-360" y1="512" x2="-370" y2="512" gradientTransform="matrix(1 0 0 1 370 -122)">
		<stop  offset="0.1984" style="stop-color:#40C52A"/>
		<stop  offset="0.2842" style="stop-color:#F7250D"/>
		<stop  offset="0.5146" style="stop-color:#09EF00"/>
		<stop  offset="0.7493" style="stop-color:#E60F2E"/>
		<stop  offset="0.8071" style="stop-color:#00C017"/>
	</linearGradient>
	<polygon fill="url(#SVGID_2_)" points="10,770 10,9.3 4.8,4.4 0,0 0,0 0,780 	"/>
</g>
<linearGradient id="SVGID_3_" gradientUnits="userSpaceOnUse" x1="205" y1="87.1" x2="205" y2="71" gradientTransform="matrix(1 0 0 1 185 -61)">
	<stop  offset="0.0391" style="stop-color:#00FF00"/>
	<stop  offset="0.4002" style="stop-color:#49BF00"/>
	<stop  offset="0.5659" style="stop-color:#E60F2E"/>
	<stop  offset="0.667" style="stop-color:#3F9F3F"/>
</linearGradient>
<polygon fill="url(#SVGID_3_)" points="753.9,25.9 25.9,26.1 10,10 770,10 "/>
<linearGradient id="SVGID_4_" gradientUnits="userSpaceOnUse" x1="-159" y1="451" x2="-175" y2="451" gradientTransform="matrix(1 0 0 1 185 -61)">
	<stop  offset="0.0391" style="stop-color:#00FF00"/>
	<stop  offset="0.4002" style="stop-color:#49BF00"/>
	<stop  offset="0.5659" style="stop-color:#E60F2E"/>
	<stop  offset="0.667" style="stop-color:#3F9F3F"/>
</linearGradient>
<polygon fill="url(#SVGID_4_)" points="25.9,26.1 26,754.1 10,770 10,10 "/>
<linearGradient id="SVGID_5_" gradientUnits="userSpaceOnUse" x1="20.05" y1="198" x2="20.05" y2="177.9647" gradientTransform="matrix(1 0 0 1 370 -122)">
	<stop  offset="0.0391" style="stop-color:#A0E900"/>
	<stop  offset="0.4002" style="stop-color:#2FFF00"/>
	<stop  offset="0.5659" style="stop-color:#EB3000"/>
	<stop  offset="0.667" style="stop-color:#00C919"/>
</linearGradient>
<polygon fill="url(#SVGID_5_)" points="724.1,56 704,76 76,76 56,56 "/>
<linearGradient id="SVGID_6_" gradientUnits="userSpaceOnUse" x1="-294" y1="512.1" x2="-314.0263" y2="512.1" gradientTransform="matrix(1 0 0 1 370 -122)">
	<stop  offset="0.0391" style="stop-color:#A0E900"/>
	<stop  offset="0.4002" style="stop-color:#2FFF00"/>
	<stop  offset="0.5659" style="stop-color:#EB3000"/>
	<stop  offset="0.667" style="stop-color:#00C919"/>
</linearGradient>
<polygon fill="url(#SVGID_6_)" points="56,56 76,76 76,704 56.1,724.2 "/>
<linearGradient id="SVGID_7_" gradientUnits="userSpaceOnUse" x1="20" y1="212.0304" x2="20" y2="198" gradientTransform="matrix(1 0 0 1 370 -122)">
	<stop  offset="0.106" style="stop-color:#EE2000"/>
	<stop  offset="0.2226" style="stop-color:#73E900"/>
	<stop  offset="0.733" style="stop-color:#1B8800"/>
	<stop  offset="0.7981" style="stop-color:#00BE19"/>
</linearGradient>
<polygon fill="url(#SVGID_7_)" points="704,76 690,90 89.9,90 76,76 "/>
<linearGradient id="SVGID_8_" gradientUnits="userSpaceOnUse" x1="-279.9789" y1="512" x2="-294" y2="512" gradientTransform="matrix(1 0 0 1 370 -122)">
	<stop  offset="0.106" style="stop-color:#EE2000"/>
	<stop  offset="0.2226" style="stop-color:#73E900"/>
	<stop  offset="0.733" style="stop-color:#1B8800"/>
	<stop  offset="0.7981" style="stop-color:#00BE19"/>
</linearGradient>
<polygon fill="url(#SVGID_8_)" points="76,76 90,90.1 90,690 76,704 "/>
<linearGradient id="SVGID_9_" gradientUnits="userSpaceOnUse" x1="274.0412" y1="-133.9708" x2="274.0412" y2="-103.8708" gradientTransform="matrix(-1 0 0 -1 663.9912 -77.8708)">
	<stop  offset="0.0391" style="stop-color:#7DFF00"/>
	<stop  offset="0.5254" style="stop-color:#26BF15"/>
	<stop  offset="0.8682" style="stop-color:#007F04"/>
</linearGradient>
<polygon fill="url(#SVGID_9_)" points="754,26 724.1,56 56,56.1 25.9,26.1 "/>
<linearGradient id="SVGID_10_" gradientUnits="userSpaceOnUse" x1="447.9011" y1="-396.0652" x2="478.0675" y2="-396.0652" gradientTransform="matrix(-1 0 0 -1 504.0011 -5.9653)">
	<stop  offset="0.0391" style="stop-color:#7DFF00"/>
	<stop  offset="0.5254" style="stop-color:#26BF15"/>
	<stop  offset="0.8682" style="stop-color:#007F04"/>
</linearGradient>
<polygon fill="url(#SVGID_10_)" points="25.9,26.1 56,56 56.1,724.2 26,754.1 "/>
<g>
	
		<linearGradient id="SVGID_11_" gradientUnits="userSpaceOnUse" x1="27.6516" y1="707.13" x2="89.552" y2="707.13" gradientTransform="matrix(1 0 0 -1 92.5 750)">
		<stop  offset="0.0391" style="stop-color:#FF837F"/>
		<stop  offset="0.4817" style="stop-color:#EE2000"/>
		<stop  offset="0.8917" style="stop-color:#AC4000"/>
	</linearGradient>
	<path fill="url(#SVGID_11_)" d="M141.455,46.759c2.3-9.7,10.9-10.6,15.1-11.7c4.6-1.1,8.4-1.2,11.5-0.6c-7.7-0.3-17,3.7-21.6,6.8
		c-7.7,5.3-0.4,12.9,7.3,4c5.9-6.8,10.9-9,14.9-9.1c-8.7,1.2-10.7,8.8-10.7,10.9s2.7,3.4,6.3-1.7s9.8-9.8,12.3-3.3
		c0,0-6.1,1.4-2.6,7.4s9.5,0.6,7.8-3.7c-1-2.4-2.1-5.6-4.6-7.6c-0.2-0.2-0.3-0.3-0.5-0.5c-0.7-0.7-1.4-1.2-2.2-1.6
		c-2.4-1.5-5.5-2.6-9.4-2.9c-10-0.8-19.9,1.2-25.1,12.8c-3,6.7-11.9,3.1-15,0.2s2.4-4.6,3.6-5.7c6.7-6-8.1-14.7-8.4,0.3
		C119.855,55.959,139.255,56.559,141.455,46.759z"/>
	
		<linearGradient id="SVGID_12_" gradientUnits="userSpaceOnUse" x1="-40.1511" y1="707.4509" x2="21.752" y2="707.4509" gradientTransform="matrix(1 0 0 -1 92.5 750)">
		<stop  offset="0.0391" style="stop-color:#FF837F"/>
		<stop  offset="0.4817" style="stop-color:#EE2000"/>
		<stop  offset="0.8917" style="stop-color:#AC4000"/>
	</linearGradient>
	<path fill="url(#SVGID_12_)" d="M73.655,46.459c2.3-9.8,10.8-10.7,15.1-11.7c4.6-1.1,8.4-1.2,11.5-0.6c-7.7-0.3-17,3.7-21.6,6.8
		c-7.7,5.3-0.4,12.9,7.3,4c5.9-6.8,10.9-9,14.9-9.1c-8.7,1.2-10.7,8.8-10.7,10.9s2.7,3.4,6.3-1.7s9.8-9.8,12.3-3.3
		c0,0-6.1,1.4-2.6,7.4s9.5,0.6,7.8-3.7c-1-2.4-2.1-5.6-4.6-7.6c-0.2-0.2-0.3-0.3-0.5-0.5c-0.7-0.7-1.4-1.2-2.2-1.6
		c-2.4-1.5-5.5-2.6-9.4-2.9c-10-0.8-19.9,1.2-25.1,12.8c-3,6.7-11.9,3.1-15,0.2c-3.1-2.9,2.4-4.6,3.6-5.7c6.7-6-8.1-14.7-8.4,0.3
		C51.955,55.659,71.355,56.159,73.655,46.459z"/>
</g>
<g>
	
		<linearGradient id="SVGID_13_" gradientUnits="userSpaceOnUse" x1="-429.4953" y1="-177.9571" x2="-408.7869" y2="-177.9571" gradientTransform="matrix(1 0.0056 0.0055 -0.9766 462.7292 -82.767)">
		<stop  offset="0.0391" style="stop-color:#FF837F"/>
		<stop  offset="0.4817" style="stop-color:#EE2000"/>
		<stop  offset="0.8917" style="stop-color:#AC4000"/>
	</linearGradient>
	<path fill="url(#SVGID_13_)" d="M46.328,98.332c-9.7-2.3-10.6-10.9-11.7-15.1c-1.1-4.6-1.2-8.4-0.6-11.5c-0.3,7.7,3.7,17,6.8,21.6
		c5.3,7.7,12.9,0.4,4-7.3c-6.8-5.9-9-10.9-9.1-14.9c1.2,8.7,8.8,10.7,10.9,10.7s3.4-2.7-1.7-6.3s-9.8-9.8-3.3-12.3
		c0,0,1.4,6.1,7.4,2.6s0.6-9.5-3.7-7.8c-2.4,1-5.6,2.1-7.6,4.6c-0.2,0.2-0.3,0.3-0.5,0.5c-0.7,0.7-1.2,1.4-1.6,2.2
		c-1.5,2.4-2.6,5.5-2.9,9.4c-0.8,10,1.2,19.9,12.8,25.1c6.7,3,3.1,11.9,0.2,15s-4.6-2.4-5.7-3.6c-6-6.7-14.7,8.1,0.3,8.4
		C55.528,119.932,56.028,100.632,46.328,98.332z"/>
	
		<linearGradient id="SVGID_14_" gradientUnits="userSpaceOnUse" x1="-428.9259" y1="-247.3796" x2="-408.2175" y2="-247.3796" gradientTransform="matrix(1 0.0056 0.0055 -0.9766 462.7292 -82.767)">
		<stop  offset="0.0391" style="stop-color:#FF837F"/>
		<stop  offset="0.4817" style="stop-color:#EE2000"/>
		<stop  offset="0.8917" style="stop-color:#AC4000"/>
	</linearGradient>
	<path fill="url(#SVGID_14_)" d="M46.489,166.132c-4.013-0.952-10.953-12.248-11.7-15.1c-1.1-4.6-1.2-8.4-0.6-11.5
		c-0.3,7.7,3.7,17,6.8,21.6c5.3,7.7,12.9,0.4,4-7.3c-6.8-5.9-9-10.9-9.1-14.9c1.2,8.7,8.8,10.7,10.9,10.7s3.4-2.7-1.7-6.3
		s-9.8-9.8-3.3-12.3c0,0,1.4,6.1,7.4,2.6s0.6-9.5-3.7-7.8c-2.4,1-5.6,2.1-7.6,4.6c-0.2,0.2-0.3,0.3-0.5,0.5
		c-0.7,0.7-1.2,1.4-1.6,2.2c-1.5,2.4-2.6,5.5-2.9,9.4c-0.8,10,1.2,19.9,12.8,25.1c6.7,3,3.1,11.9,0.2,15s-4.6-2.4-5.7-3.6
		c-6-6.7-14.7,8.1,0.3,8.4C55.789,187.832,56.289,168.432,46.489,166.132z"/>
</g>
</svg>
