<svg width="14" height="13" viewBox="0 0 14 13" fill="none" xmlns="http://www.w3.org/2000/svg">
<path d="M7 12.2188L6.03125 11.3438C4.30208 9.82292 2.92708 8.46875 1.90625 7.28125C0.885417 6.09375 0.364583 4.88542 0.34375 3.65625C0.364583 2.61458 0.71875 1.75 1.40625 1.0625C2.09375 0.375 2.95833 0.0208333 4 0C4.58333 0 5.13542 0.125 5.65625 0.375C6.17708 0.625 6.625 0.958333 7 1.375C7.375 0.958333 7.82292 0.625 8.34375 0.375C8.86458 0.125 9.41667 0 10 0C11.0417 0.0208333 11.9062 0.375 12.5938 1.0625C13.2812 1.75 13.6354 2.61458 13.6562 3.65625C13.6354 4.88542 13.1146 6.09375 12.0938 7.28125C11.0729 8.46875 9.69792 9.82292 7.96875 11.3438L7 12.2188Z" fill="#7888A1" fill-opacity="0.5"/>
</svg>
