<svg width="14" height="14" viewBox="0 0 14 14" fill="none" xmlns="http://www.w3.org/2000/svg">
<path d="M5 13.6562C4.8125 13.6562 4.65625 13.5938 4.53125 13.4688C4.40625 13.3438 4.34375 13.1875 4.34375 13V11H1.65625C1.28125 11 0.96875 10.875 0.71875 10.625C0.46875 10.3542 0.34375 10.0312 0.34375 9.65625V1.65625C0.34375 1.28125 0.46875 0.96875 0.71875 0.71875C0.96875 0.46875 1.28125 0.34375 1.65625 0.34375H12.3438C12.7188 0.34375 13.0312 0.46875 13.2812 0.71875C13.5312 0.96875 13.6562 1.28125 13.6562 1.65625V9.65625C13.6562 10.0312 13.5312 10.3542 13.2812 10.625C13.0312 10.875 12.7188 11 12.3438 11H8.28125L5.8125 13.4688C5.66667 13.5938 5.51042 13.6562 5.34375 13.6562H5ZM5.65625 9.65625V11.7188L7.71875 9.65625H12.3438V1.65625H1.65625V9.65625H5.65625ZM3 3.65625H11V5H3V3.65625ZM3 6.34375H9V7.65625H3V6.34375Z" fill="#7888A1" fill-opacity="0.5"/>
</svg>
