<svg width="16" height="15" viewBox="0 0 16 15" fill="none" xmlns="http://www.w3.org/2000/svg">
<path d="M5.92969 0C7.46615 0.0260417 8.74219 0.559896 9.75781 1.60156C10.7734 2.61719 11.2943 3.89323 11.3203 5.42969C11.3203 6.10677 11.2031 6.74479 10.9688 7.34375C10.7604 7.94271 10.4479 8.47656 10.0312 8.94531L10.2656 9.17969H10.9297L15.0703 13.3203L13.8203 14.5703L9.67969 10.4297V9.76562L9.44531 9.53125C8.97656 9.94792 8.44271 10.2734 7.84375 10.5078C7.24479 10.7161 6.60677 10.8203 5.92969 10.8203C4.39323 10.7943 3.10417 10.2734 2.0625 9.25781C1.04688 8.24219 0.526042 6.96615 0.5 5.42969C0.526042 3.89323 1.04688 2.61719 2.0625 1.60156C3.10417 0.559896 4.39323 0.0260417 5.92969 0ZM5.92969 1.67969C4.86198 1.70573 3.97656 2.07031 3.27344 2.77344C2.57031 3.47656 2.21875 4.36198 2.21875 5.42969C2.21875 6.4974 2.57031 7.38281 3.27344 8.08594C3.97656 8.78906 4.86198 9.14062 5.92969 9.14062C6.9974 9.14062 7.88281 8.78906 8.58594 8.08594C9.28906 7.38281 9.64062 6.4974 9.64062 5.42969C9.64062 4.36198 9.28906 3.47656 8.58594 2.77344C7.88281 2.07031 6.9974 1.70573 5.92969 1.67969Z" fill="#7888A1" fill-opacity="0.5"/>
</svg>
