<svg width="18" height="19" viewBox="0 0 18 19" fill="none" xmlns="http://www.w3.org/2000/svg">
<path d="M12.8766 11.8531L17.961 16.9375L16.4261 18.4724L11.3417 13.388V12.5726L11.0539 12.2848C10.4783 12.7964 9.82281 13.1962 9.08734 13.484C8.35187 13.7398 7.56843 13.8677 6.73702 13.8677C4.85037 13.8357 3.26751 13.1962 1.98843 11.9491C0.741319 10.7019 0.101777 9.13507 0.0698004 7.24842C0.101777 5.36177 0.741319 3.7949 1.98843 2.54779C3.26751 1.26871 4.85037 0.613175 6.73702 0.581198C8.62367 0.613175 10.1905 1.26871 11.4377 2.54779C12.6848 3.7949 13.3243 5.36177 13.3563 7.24842C13.3563 8.07982 13.2124 8.86326 12.9246 9.59874C12.6688 10.3342 12.285 10.9897 11.7734 11.5653L12.0612 11.8531H12.8766ZM6.73702 11.8531C8.04808 11.8211 9.1353 11.3735 9.99869 10.5101C10.8621 9.6467 11.2938 8.55948 11.2938 7.24842C11.2938 5.93736 10.8621 4.85014 9.99869 3.98676C9.1353 3.12338 8.04808 2.69169 6.73702 2.69169C5.42596 2.69169 4.33874 3.12338 3.47536 3.98676C2.61198 4.85014 2.18029 5.93736 2.18029 7.24842C2.18029 8.55948 2.61198 9.6467 3.47536 10.5101C4.33874 11.3735 5.42596 11.8211 6.73702 11.8531ZM9.2792 7.72808H7.21668V9.7906H6.2094V7.72808H4.14688V6.7208H6.2094V4.65828H7.21668V6.7208H9.2792V7.72808Z" fill="white"/>
</svg>
