<svg width="41" height="42" viewBox="0 0 41 42" fill="none" xmlns="http://www.w3.org/2000/svg">
<circle cx="20.5" cy="21.1207" r="20.5" fill="#FF9801"/>
<path d="M22.8477 25.3477H16.4023V23.5H22.8477V25.3477ZM25.5977 21.6523H16.4023V19.8477H25.5977V21.6523ZM25.5977 18H16.4023V16.1523H25.5977V18ZM27.4023 12.5H14.5977C14.0534 12.5 13.6094 12.6719 13.2656 13.0156C12.9219 13.3594 12.75 13.8034 12.75 14.3477V27.1523C12.75 27.668 12.9219 28.112 13.2656 28.4844C13.638 28.8281 14.082 29 14.5977 29H27.4023C27.918 29 28.3477 28.8281 28.6914 28.4844C29.0638 28.112 29.25 27.668 29.25 27.1523V14.3477C29.25 13.8034 29.0638 13.3594 28.6914 13.0156C28.3477 12.6719 27.918 12.5 27.4023 12.5Z" fill="white"/>
</svg>
