<svg width="60" height="60" viewBox="0 0 60 60" fill="none" xmlns="http://www.w3.org/2000/svg">
<circle cx="30" cy="30" r="30" fill="#FF9801" fill-opacity="0.2"/>
<circle cx="29.9998" cy="30" r="25.3846" fill="#FF9801" fill-opacity="0.4"/>
<circle cx="30.0002" cy="30" r="20.7692" fill="#FF9801"/>
<path d="M34.1719 36.5991C34.9075 36.5657 35.5262 36.2981 36.0277 35.7965C36.5293 35.295 36.7801 34.6763 36.7801 33.9407C36.7801 33.205 36.5293 32.6031 36.0277 32.1349C35.5262 31.6334 34.9075 31.3826 34.1719 31.3826C33.4362 31.3826 32.8176 31.6334 32.316 32.1349C31.8144 32.6031 31.5636 33.205 31.5636 33.9407C31.5636 34.6763 31.8144 35.295 32.316 35.7965C32.8176 36.2981 33.4362 36.5657 34.1719 36.5991ZM39.7395 34.6931L41.3446 35.947C41.4784 36.0808 41.4951 36.2313 41.3948 36.3985L39.9401 39.0067C39.8064 39.1739 39.6392 39.2241 39.4386 39.1572L37.5827 38.4048C37.2148 38.7058 36.7969 38.9566 36.3287 39.1572L36.0277 41.1134C35.9943 41.314 35.8773 41.4311 35.6766 41.4645H32.6671C32.4665 41.4311 32.3494 41.314 32.316 41.1134L32.015 39.1572C31.5803 38.9566 31.1623 38.7058 30.7611 38.4048L28.9052 39.1572C28.7045 39.2241 28.5541 39.1739 28.4537 39.0067L26.949 36.3985C26.8487 36.2313 26.8821 36.0808 27.0493 35.947L28.6042 34.6931L28.5541 33.9407L28.6042 33.2384L27.0493 31.9845C26.8821 31.8507 26.8487 31.6835 26.949 31.4829L28.4537 28.9248C28.5541 28.7576 28.7045 28.6907 28.9052 28.7241L30.7611 29.5267C31.1623 29.1923 31.5803 28.9415 32.015 28.7743L32.316 26.7679C32.3494 26.6007 32.4665 26.5004 32.6671 26.467H35.6766C35.8773 26.5004 35.9943 26.6007 36.0277 26.7679L36.3287 28.7743C36.7969 28.9415 37.2148 29.1923 37.5827 29.5267L39.4386 28.7241C39.6392 28.6907 39.8064 28.7576 39.9401 28.9248L41.3948 31.4829C41.4951 31.6835 41.4784 31.8507 41.3446 31.9845L39.7395 33.2384L39.7897 33.9407L39.7395 34.6931ZM24.3407 25.4638C24.8089 25.4638 25.1934 25.3133 25.4944 25.0124C25.8288 24.678 25.9959 24.2767 25.9959 23.8086C25.9959 23.307 25.8288 22.9057 25.4944 22.6047C25.1934 22.2703 24.7921 22.1031 24.2905 22.1031C23.8224 22.1031 23.4211 22.2703 23.0867 22.6047C22.7858 22.9057 22.6353 23.307 22.6353 23.8086C22.6353 24.2767 22.7858 24.678 23.0867 25.0124C23.4211 25.3133 23.8391 25.4638 24.3407 25.4638ZM27.902 24.26L28.9553 25.0625C29.0222 25.1294 29.0222 25.2297 28.9553 25.3635L28.0023 27.0187C27.9354 27.1525 27.8351 27.1859 27.7014 27.119L26.4975 26.6676L25.7452 27.119L25.5445 28.4232C25.5111 28.5235 25.4275 28.5904 25.2937 28.6238H23.3877C23.2205 28.5904 23.1369 28.5235 23.1369 28.4232L22.9363 27.119L22.1337 26.6676L20.9299 27.119C20.7961 27.1859 20.6958 27.1525 20.6289 27.0187L19.6759 25.3635C19.609 25.2297 19.6258 25.1294 19.7261 25.0625L20.7293 24.26V23.8086V23.307L19.7261 22.5044C19.6258 22.4375 19.609 22.3372 19.6759 22.2035L20.6289 20.5482C20.6958 20.4479 20.7961 20.4145 20.9299 20.4479L22.1337 20.8993L22.9363 20.4479L23.1369 19.1939C23.1369 19.0602 23.2205 18.9933 23.3877 18.9933H25.2937C25.4275 18.9933 25.5111 19.0602 25.5445 19.1939L25.7452 20.4479L26.4975 20.8993L27.7014 20.4479C27.8351 20.4145 27.9354 20.4479 28.0023 20.5482L28.9553 22.2035C29.0222 22.3372 29.0222 22.4375 28.9553 22.5044L27.902 23.307L27.9521 23.8086L27.902 24.26Z" fill="white"/>
</svg>
