<svg width="42" height="42" viewBox="0 0 42 42" fill="none" xmlns="http://www.w3.org/2000/svg">
<circle cx="21.0002" cy="21" r="20.7692" fill="#FF9801"/>
<path d="M25.1724 27.5991C25.908 27.5657 26.5266 27.2981 27.0282 26.7965C27.5298 26.295 27.7806 25.6763 27.7806 24.9407C27.7806 24.205 27.5298 23.6031 27.0282 23.1349C26.5266 22.6334 25.908 22.3826 25.1724 22.3826C24.4367 22.3826 23.8181 22.6334 23.3165 23.1349C22.8149 23.6031 22.5641 24.205 22.5641 24.9407C22.5641 25.6763 22.8149 26.295 23.3165 26.7965C23.8181 27.2981 24.4367 27.5657 25.1724 27.5991ZM30.74 25.6931L32.3451 26.947C32.4788 27.0808 32.4956 27.2313 32.3952 27.3985L30.9406 30.0067C30.8069 30.1739 30.6397 30.2241 30.439 30.1572L28.5832 29.4048C28.2153 29.7058 27.7973 29.9566 27.3292 30.1572L27.0282 32.1134C26.9948 32.314 26.8778 32.4311 26.6771 32.4645H23.6676C23.4669 32.4311 23.3499 32.314 23.3165 32.1134L23.0155 30.1572C22.5808 29.9566 22.1628 29.7058 21.7615 29.4048L19.9057 30.1572C19.705 30.2241 19.5545 30.1739 19.4542 30.0067L17.9495 27.3985C17.8491 27.2313 17.8826 27.0808 18.0498 26.947L19.6047 25.6931L19.5545 24.9407L19.6047 24.2384L18.0498 22.9845C17.8826 22.8507 17.8491 22.6835 17.9495 22.4829L19.4542 19.9248C19.5545 19.7576 19.705 19.6907 19.9057 19.7241L21.7615 20.5267C22.1628 20.1923 22.5808 19.9415 23.0155 19.7743L23.3165 17.7679C23.3499 17.6007 23.4669 17.5004 23.6676 17.467H26.6771C26.8778 17.5004 26.9948 17.6007 27.0282 17.7679L27.3292 19.7743C27.7973 19.9415 28.2153 20.1923 28.5832 20.5267L30.439 19.7241C30.6397 19.6907 30.8069 19.7576 30.9406 19.9248L32.3952 22.4829C32.4956 22.6835 32.4788 22.8507 32.3451 22.9845L30.74 24.2384L30.7902 24.9407L30.74 25.6931ZM15.3412 16.4638C15.8093 16.4638 16.1939 16.3133 16.4948 16.0124C16.8292 15.678 16.9964 15.2767 16.9964 14.8086C16.9964 14.307 16.8292 13.9057 16.4948 13.6047C16.1939 13.2703 15.7926 13.1031 15.291 13.1031C14.8229 13.1031 14.4216 13.2703 14.0872 13.6047C13.7863 13.9057 13.6358 14.307 13.6358 14.8086C13.6358 15.2767 13.7863 15.678 14.0872 16.0124C14.4216 16.3133 14.8396 16.4638 15.3412 16.4638ZM18.9025 15.26L19.9558 16.0625C20.0227 16.1294 20.0227 16.2297 19.9558 16.3635L19.0028 18.0187C18.9359 18.1525 18.8356 18.1859 18.7018 18.119L17.498 17.6676L16.7456 18.119L16.545 19.4232C16.5116 19.5235 16.428 19.5904 16.2942 19.6238H14.3882C14.221 19.5904 14.1374 19.5235 14.1374 19.4232L13.9367 18.119L13.1342 17.6676L11.9304 18.119C11.7966 18.1859 11.6963 18.1525 11.6294 18.0187L10.6764 16.3635C10.6095 16.2297 10.6262 16.1294 10.7266 16.0625L11.7297 15.26V14.8086V14.307L10.7266 13.5044C10.6262 13.4375 10.6095 13.3372 10.6764 13.2035L11.6294 11.5482C11.6963 11.4479 11.7966 11.4145 11.9304 11.4479L13.1342 11.8993L13.9367 11.4479L14.1374 10.1939C14.1374 10.0602 14.221 9.99329 14.3882 9.99329H16.2942C16.428 9.99329 16.5116 10.0602 16.545 10.1939L16.7456 11.4479L17.498 11.8993L18.7018 11.4479C18.8356 11.4145 18.9359 11.4479 19.0028 11.5482L19.9558 13.2035C20.0227 13.3372 20.0227 13.4375 19.9558 13.5044L18.9025 14.307L18.9526 14.8086L18.9025 15.26Z" fill="white"/>
</svg>
