<svg width="14" height="18" viewBox="0 0 14 18" fill="none" xmlns="http://www.w3.org/2000/svg">
<path d="M7 4.75V7L9.98828 4.01172L7 0.988281V3.23828C5.28906 3.28516 3.87109 3.87109 2.74609 4.99609C1.62109 6.12109 1.03516 7.53906 0.988281 9.25C1.01172 10.4453 1.32812 11.5117 1.9375 12.4492L3.02734 11.3594C2.67578 10.7266 2.5 10.0234 2.5 9.25C2.52344 7.98438 2.95703 6.92969 3.80078 6.08594C4.66797 5.21875 5.73438 4.77344 7 4.75ZM12.0625 6.05078L10.9727 7.14062C11.3242 7.79688 11.5 8.5 11.5 9.25C11.4766 10.5156 11.0312 11.582 10.1641 12.4492C9.32031 13.293 8.26562 13.7266 7 13.75V11.5L4.01172 14.4883L7 17.5117V15.2617C8.71094 15.2148 10.1289 14.6289 11.2539 13.5039C12.3789 12.3789 12.9648 10.9609 13.0117 9.25C12.9883 8.05469 12.6719 6.98828 12.0625 6.05078Z" fill="white"/>
</svg>
