<svg width="16" height="14" viewBox="0 0 16 14" fill="none" xmlns="http://www.w3.org/2000/svg">
<path d="M12.6631 8V0H15.3506V8H12.6631ZM10.0068 0C10.3818 0 10.6943 0.135417 10.9443 0.40625C11.1943 0.65625 11.3298 0.96875 11.3506 1.34375V8C11.3298 8.375 11.1943 8.6875 10.9443 8.9375L6.56934 13.3438L5.85059 12.625C5.66309 12.4375 5.56934 12.1979 5.56934 11.9062V11.7188L6.22559 8.65625H2.00684C1.63184 8.65625 1.31934 8.53125 1.06934 8.28125C0.819336 8.03125 0.683919 7.71875 0.663086 7.34375V6C0.663086 5.83333 0.694336 5.66667 0.756836 5.5L2.78809 0.8125C2.89225 0.5625 3.0485 0.364583 3.25684 0.21875C3.486 0.0729167 3.736 0 4.00684 0H10.0068ZM10.0068 1.34375H3.97559L2.00684 6V7.34375H7.85059L7.10059 10.875L10.0068 7.96875V1.34375Z" fill="#7888A1" fill-opacity="0.7"/>
</svg>
