<svg width="16" height="14" viewBox="0 0 16 14" fill="none" xmlns="http://www.w3.org/2000/svg">
<path d="M3.35059 6V14H0.663086V6H3.35059ZM6.00684 14C5.63184 14 5.31934 13.875 5.06934 13.625C4.81934 13.3542 4.68392 13.0312 4.66309 12.6562V6C4.68392 5.625 4.81934 5.3125 5.06934 5.0625L9.44434 0.65625L10.1631 1.375C10.3506 1.5625 10.4443 1.79167 10.4443 2.0625V2.28125L9.78809 5.34375H14.0068C14.3818 5.34375 14.6943 5.46875 14.9443 5.71875C15.1943 5.96875 15.3298 6.28125 15.3506 6.65625V8C15.3506 8.16667 15.3193 8.33333 15.2568 8.5L13.2256 13.1875C13.1214 13.4375 12.9548 13.6354 12.7256 13.7812C12.5173 13.9271 12.2777 14 12.0068 14H6.00684ZM6.00684 12.6562H12.0381L14.0068 8V6.65625H8.13184L8.91309 3.125L6.00684 6.03125V12.6562Z" fill="#7888A1" fill-opacity="0.7"/>
</svg>
