<svg width="18" height="11" viewBox="0 0 18 11" fill="none" xmlns="http://www.w3.org/2000/svg">
<path d="M11.9883 5.98828C11.7773 5.98828 11.543 6 11.2852 6.02344C11.7305 6.35156 12.082 6.72656 12.3398 7.14844C12.5977 7.57031 12.7383 8.0625 12.7617 8.625V10.4883H17.2617V8.625C17.1445 7.75781 16.4766 7.10156 15.2578 6.65625C14.0625 6.21094 12.9727 5.98828 11.9883 5.98828ZM6.01172 5.98828C5.02734 5.98828 3.92578 6.21094 2.70703 6.65625C1.51172 7.10156 0.855469 7.75781 0.738281 8.625V10.4883H11.25V8.625C11.1328 7.75781 10.4766 7.10156 9.28125 6.65625C8.08594 6.21094 6.99609 5.98828 6.01172 5.98828ZM6.01172 4.51172C6.64453 4.48828 7.17188 4.26562 7.59375 3.84375C8.01562 3.42188 8.22656 2.89453 8.22656 2.26172C8.22656 1.60547 8.01562 1.06641 7.59375 0.644531C7.17188 0.222656 6.63281 0.0117188 5.97656 0.0117188C5.34375 0.0117188 4.81641 0.222656 4.39453 0.644531C3.97266 1.06641 3.76172 1.60547 3.76172 2.26172C3.76172 2.89453 3.97266 3.42188 4.39453 3.84375C4.81641 4.26562 5.35547 4.48828 6.01172 4.51172ZM11.9883 4.51172C12.6445 4.48828 13.1836 4.26562 13.6055 3.84375C14.0273 3.42188 14.2383 2.89453 14.2383 2.26172C14.2383 1.60547 14.0273 1.06641 13.6055 0.644531C13.1836 0.222656 12.6445 0.0117188 11.9883 0.0117188C11.3555 0.0117188 10.8281 0.222656 10.4062 0.644531C9.98438 1.06641 9.77344 1.60547 9.77344 2.26172C9.77344 2.89453 9.98438 3.42188 10.4062 3.84375C10.8281 4.26562 11.3555 4.48828 11.9883 4.51172Z" fill="#A1ACBD"/>
</svg>
