<svg width="14" height="13" viewBox="0 0 14 13" fill="none" xmlns="http://www.w3.org/2000/svg">
<path d="M7 0.238281C7.84375 0.261719 8.54688 0.554688 9.10938 1.11719C9.67188 1.67969 9.95312 2.39453 9.95312 3.26172C9.95312 4.10547 9.67188 4.80859 9.10938 5.37109C8.54688 5.93359 7.84375 6.21484 7 6.21484C6.15625 6.21484 5.45312 5.93359 4.89062 5.37109C4.32812 4.80859 4.04688 4.10547 4.04688 3.26172C4.04688 2.39453 4.32812 1.67969 4.89062 1.11719C5.45312 0.554688 6.15625 0.261719 7 0.238281ZM7 7.76172C8.71094 7.78516 10.1289 8.07812 11.2539 8.64062C12.3789 9.20312 12.9648 9.90625 13.0117 10.75V12.2617H0.988281V10.75C1.03516 9.90625 1.62109 9.20312 2.74609 8.64062C3.87109 8.07812 5.28906 7.78516 7 7.76172Z" fill="#A1ACBD"/>
</svg>
