<svg width="5" height="14" viewBox="0 0 5 14" fill="none" xmlns="http://www.w3.org/2000/svg">
<path d="M2.5 10.0293C2.94531 10.054 3.31641 10.2148 3.61328 10.5117C3.91016 10.8086 4.05859 11.1797 4.05859 11.625C4.05859 12.0703 3.91016 12.4414 3.61328 12.7383C3.31641 13.0352 2.94531 13.1836 2.5 13.1836C2.05469 13.1836 1.68359 13.0352 1.38672 12.7383C1.08984 12.4414 0.941406 12.0703 0.941406 11.625C0.941406 11.1797 1.08984 10.8086 1.38672 10.5117C1.68359 10.2148 2.05469 10.054 2.5 10.0293ZM2.5 5.2793C2.94531 5.30404 3.31641 5.46484 3.61328 5.76172C3.91016 6.05859 4.05859 6.42969 4.05859 6.875C4.05859 7.32031 3.91016 7.69141 3.61328 7.98828C3.31641 8.28516 2.94531 8.43359 2.5 8.43359C2.05469 8.43359 1.68359 8.28516 1.38672 7.98828C1.08984 7.69141 0.941406 7.32031 0.941406 6.875C0.941406 6.42969 1.08984 6.05859 1.38672 5.76172C1.68359 5.46484 2.05469 5.30404 2.5 5.2793ZM2.5 0.529297C2.94531 0.554036 3.31641 0.714844 3.61328 1.01172C3.91016 1.30859 4.05859 1.67969 4.05859 2.125C4.05859 2.57031 3.91016 2.94141 3.61328 3.23828C3.31641 3.53516 2.94531 3.68359 2.5 3.68359C2.05469 3.68359 1.68359 3.53516 1.38672 3.23828C1.08984 2.94141 0.941406 2.57031 0.941406 2.125C0.941406 1.67969 1.08984 1.30859 1.38672 1.01172C1.68359 0.714844 2.05469 0.554036 2.5 0.529297Z" fill="#7888A1" fill-opacity="0.7"/>
</svg>
