<svg width="82" height="63" viewBox="0 0 82 63" fill="none" xmlns="http://www.w3.org/2000/svg">
<path d="M37.6992 15.1348L35.7992 19.4891L33.8992 15.1348H30.6992L34.3992 22.569V26.3924H37.0992V22.569L40.8992 15.1348H37.6992Z" fill="black"/>
<path d="M42.7988 15.1348V26.3924H45.4988V22.8876H46.8988C48.2988 22.8876 49.3988 22.569 50.0988 21.8256C50.7988 21.0822 51.0988 20.2325 51.0988 19.0643C51.0988 18.0023 50.7988 17.0464 50.0988 16.303C49.3988 15.5596 48.3988 15.1348 47.0988 15.1348H42.7988ZM45.5988 20.3387V17.7899H47.1988C47.9988 17.7899 48.3988 18.3209 48.3988 19.0643C48.3988 19.8077 47.9988 20.3387 47.0988 20.3387H45.5988Z" fill="black"/>
<path d="M55.8984 26.3924H58.5984V17.8961H61.5984V15.1348H52.8984V17.8961H55.8984V26.3924Z" fill="black"/>
<path d="M68.3988 26.6048C69.9988 26.6048 71.2988 26.0738 72.3988 24.9055C73.4988 23.7373 73.9988 22.4628 73.9988 20.7636C73.9988 19.1705 73.4988 17.7899 72.3988 16.6216C71.2988 15.4534 69.9988 14.9224 68.3988 14.9224C66.7988 14.9224 65.4988 15.4534 64.3988 16.6216C63.2988 17.7899 62.7988 19.1705 62.7988 20.7636C62.7988 22.3566 63.2988 23.7373 64.3988 24.9055C65.3988 26.0738 66.7988 26.6048 68.3988 26.6048ZM68.3988 23.8435C67.5988 23.8435 66.9988 23.5249 66.3988 22.9938C65.8988 22.4628 65.5988 21.7194 65.5988 20.8698C65.5988 20.0201 65.8988 19.2767 66.3988 18.7457C66.8988 18.2147 67.5988 17.8961 68.3988 17.8961C69.1988 17.8961 69.7988 18.2147 70.3988 18.7457C70.9988 19.2767 71.1988 20.0201 71.1988 20.8698C71.1988 21.7194 70.8988 22.4628 70.3988 22.9938C69.7988 23.5249 69.1988 23.8435 68.3988 23.8435Z" fill="black"/>
<path d="M8.19922 54.2178V33.1895H13.2992C14.1992 33.1895 14.9992 33.5081 15.5992 34.1453C16.1992 34.6763 16.4992 35.4197 16.4992 36.3756V43.2788C16.4992 45.4029 15.1992 46.4649 12.5992 46.4649H11.8992V54.324H8.19922V54.2178ZM11.7992 35.6321V44.0222H12.2992C12.6992 44.0222 12.8992 43.7036 12.8992 43.0664V36.2694C12.8992 36.1632 12.7992 35.9507 12.6992 35.8445C12.5992 35.7383 12.5992 35.7383 12.4992 35.7383L12.3992 35.6321H11.7992Z" fill="black"/>
<path d="M17.3984 54.2178L19.3984 33.1895H24.9984L26.8984 54.2178H23.4984L23.0984 49.0138H21.2984L20.8984 54.2178H17.3984ZM21.8984 38.9245L21.2984 46.7835H22.9984L22.3984 38.9245L22.2984 35.4197H21.9984L21.8984 38.9245Z" fill="black"/>
<path d="M32.7988 54.2178V33.1895H36.8988L39.2988 46.5711H39.4988L38.8988 41.1547V33.1895H41.8988V54.2178H37.8988L35.4988 40.8361H35.3988L35.9988 46.1463V54.2178H32.7988Z" fill="black"/>
<path d="M43.7988 35.9508V33.1895H50.9988V35.9508H49.1988V54.2178H45.5988V35.9508H43.7988Z" fill="black"/>
<path d="M53 54.2178V33.1895H59.3V35.9508H56.7V41.8982H59V44.6595H56.6V51.4565H59.2V54.2178H53Z" fill="black"/>
<path d="M61.1992 54.2178V33.1895H66.1992C67.0992 33.1895 67.7992 33.5081 68.4992 34.1453C69.1992 34.7825 69.4992 35.5259 69.4992 36.3756V40.8361C69.4992 41.4733 69.3992 42.0044 69.0992 42.323C68.7992 42.7478 68.2992 43.0664 67.6992 43.385C68.0992 43.4912 68.3992 43.5974 68.5992 43.8098C68.7992 43.916 69.0992 44.2346 69.1992 44.5533C69.3992 44.8719 69.4992 45.2967 69.4992 45.6153V52.3061C69.4992 52.7309 69.5992 53.3682 69.7992 54.1116H65.9992C65.8992 53.5806 65.7992 53.0496 65.7992 52.5185V45.5091C65.7992 44.8719 65.5992 44.5533 65.1992 44.5533H64.7992V54.1116H61.1992V54.2178ZM64.7992 35.7383V42.1106H65.1992C65.5992 42.1106 65.7992 41.792 65.7992 41.2609V36.4818C65.7992 36.3756 65.6992 36.1632 65.5992 36.057C65.4992 35.8445 65.3992 35.7383 65.1992 35.7383H64.7992Z" fill="black"/>
<path d="M75.9984 40.4113V36.2694C75.9984 35.8446 75.8984 35.6321 75.5984 35.6321C75.1984 35.6321 74.9984 35.8446 74.9984 36.2694V39.1369C74.9984 39.6679 74.9984 39.9865 75.0984 40.1989C75.1984 40.4113 75.3984 40.6237 75.6984 40.9423L78.1984 43.1726C78.7984 43.7036 79.0984 44.1284 79.2984 44.5533C79.4984 44.9781 79.5984 45.5091 79.5984 46.1463V51.0317C79.5984 52.0937 79.1984 53.0496 78.3984 53.6868C77.5984 54.324 76.5984 54.6426 75.2984 54.6426C73.9984 54.6426 72.9984 54.324 72.3984 53.6868C71.6984 53.0496 71.3984 52.1999 71.3984 51.0317V45.8277H74.9984V51.1379C74.9984 51.5627 75.0984 51.7751 75.3984 51.7751C75.7984 51.7751 75.9984 51.5627 75.9984 51.1379V46.7835C75.9984 46.3587 75.9984 46.1463 75.8984 46.0401L75.2984 45.4029L72.7984 42.9602C72.2984 42.4292 71.8984 42.0044 71.6984 41.6858C71.4984 41.2609 71.3984 40.8361 71.3984 40.1989V36.2694C71.3984 35.4197 71.5984 34.7825 71.8984 34.1453C72.2984 33.6143 72.7984 33.1895 73.3984 33.0833C73.8984 32.9771 74.5984 32.8708 75.4984 32.8708H75.6984C78.2984 32.8708 79.4984 34.0391 79.4984 36.4818V40.5175H75.9984V40.4113Z" fill="black"/>
<path d="M81.7992 0.903564H1.19922V61.7583H46.3992" stroke="#12141B" stroke-opacity="0.7" stroke-width="1.1871"/>
<path d="M30.3992 39.5618C30.3992 39.0308 30.1992 38.8183 29.9992 37.9687C29.6992 38.0749 28.8992 38.1811 28.0992 37.9687C27.8992 38.9245 27.6992 39.2432 27.6992 39.7742C27.5992 43.4913 29.0992 54.2179 29.3992 54.2179C29.6992 54.2179 30.6992 43.2789 30.3992 39.5618ZM29.9992 36.9067C30.8992 36.057 31.1992 34.6764 30.2992 32.7647C29.4992 30.8531 29.7992 29.26 30.0992 29.1538C28.7992 30.0034 24.8992 32.6585 27.8992 36.9067C29.0992 37.3315 29.9992 36.9067 29.9992 36.9067Z" fill="black"/>
<path d="M30.5984 26.3924L28.2984 22.2504C29.5984 21.6132 30.2984 20.3387 30.2984 18.8519C30.2984 17.7899 29.9984 16.9402 29.2984 16.1968C28.5984 15.4534 27.6984 15.1348 26.3984 15.1348H21.8984V26.3924H24.5984V22.6752H25.6984L27.5984 26.3924H30.5984ZM26.1984 17.6837C27.6984 17.5775 27.7984 20.2325 26.0984 20.1263H24.4984V17.6837H26.1984Z" fill="black"/>
<path d="M15.4993 9.82458C11.0993 7.06328 6.49926 10.1432 6.59926 16.303C6.79926 22.8876 13.8993 28.5164 16.7993 27.9854C18.2993 27.6668 19.9993 25.3303 19.7993 23.1C19.7993 22.9938 19.5993 22.2504 19.5993 22.2504C18.1993 22.1442 16.8993 21.0822 16.6993 18.8519C16.4993 16.6216 17.6993 15.4534 19.0993 16.0906C19.0993 16.0906 19.1993 16.0906 19.2993 15.9844C19.7993 14.71 16.9993 10.7804 15.4993 9.82458ZM12.9993 23.5249C12.1993 22.9938 11.9993 21.8256 12.4993 21.0822C12.8993 20.3388 13.7993 20.3388 14.4993 20.8698C15.0993 21.4008 15.2993 22.3566 14.9993 23.1C14.4993 23.9497 13.6993 24.1621 12.9993 23.5249ZM17.3993 24.0559C17.1993 24.4807 16.6993 24.5869 16.3993 24.2683C15.9993 23.9497 15.8993 23.3125 16.0993 22.7814C16.2993 22.3566 16.7993 22.2504 17.1993 22.569C17.4993 22.9938 17.5993 23.6311 17.3993 24.0559ZM13.7993 18.8519C13.1993 19.8077 11.6993 19.9139 10.3993 18.8519C8.99926 17.6837 8.59926 15.772 9.49926 14.8162C10.2993 13.8603 11.8993 14.2851 12.9993 15.4534C13.9993 16.4092 14.3993 18.0023 13.7993 18.8519ZM14.6993 14.4975C14.3993 15.0286 13.4993 14.8162 12.8993 14.0727C12.1993 13.3293 11.9993 12.2673 12.3993 11.7362C12.7993 11.3114 13.6993 11.5238 14.2993 12.3735C14.8993 13.1169 15.0993 13.9665 14.6993 14.4975ZM16.5993 13.4355C16.3993 13.7541 15.9993 13.6479 15.5993 13.1169C15.1993 12.5859 15.0993 11.9487 15.2993 11.7362C15.4993 11.4176 15.9993 11.63 16.2993 12.1611C16.6993 12.4797 16.7993 13.1169 16.5993 13.4355Z" fill="#191919"/>
</svg>
