<svg width="120" height="120" viewBox="0 0 120 120" fill="none" xmlns="http://www.w3.org/2000/svg">
<circle cx="60" cy="60" r="60" fill="#FEDB41"/>
<path d="M90.2123 36.0238C90.0929 35.7217 89.8179 35.5091 89.4954 35.4697C89.1738 35.4304 88.8551 35.5704 88.6665 35.8348C87.5467 37.4049 86.0772 37.9282 84.375 38.5343C83.0025 39.0232 81.5831 39.5284 80.0491 40.6297C77.8797 42.1872 76.8874 44.3102 77.3822 46.3225L77.3293 46.3903C76.4234 45.0761 75.4377 43.8606 74.3975 42.7752C69.5309 37.6972 62.7307 34.6443 55.74 34.3995C55.432 34.3887 55.119 34.3833 54.8097 34.3833C47.0037 34.3833 39.5322 37.8728 34.311 43.9569C29.1172 50.0095 26.8151 57.8886 27.9953 65.5739C28.094 66.2163 28.2175 66.8653 28.3627 67.5034C30.2823 75.9528 35.1853 82.3805 41.8146 85.1377C43.4487 85.8174 45.0971 86.1619 46.7132 86.1619C50.7284 86.1619 54.2355 84.0143 56.3355 80.2698C57.1338 78.845 57.6488 77.3716 57.8658 75.89C57.9937 75.0156 57.9063 74.1419 57.8215 73.2952C57.7342 72.4237 57.6518 71.6001 57.7837 70.7708C58.0861 68.8699 59.4138 67.7349 61.3357 67.7349C61.8824 67.7349 62.441 67.8248 62.9989 68.0025C62.3458 69.2005 61.7525 70.3444 61.2342 71.4046C60.1357 73.6516 59.3779 75.5125 58.9813 76.9349C58.7369 77.8122 58.0874 80.1435 59.6711 81.2428C60.1741 81.5918 60.8118 81.715 61.4754 81.5915C62.0735 81.4805 63.8933 81.1424 69.0646 75.2553C70.4525 73.6755 71.948 71.8473 73.5113 69.8204C77.5243 68.4689 80.6472 65.1053 81.4734 61.2403C81.6801 60.2741 81.7664 59.2401 81.7296 58.1661C83.2322 55.8441 84.55 53.6775 85.8762 51.3484C85.9016 51.3035 85.9267 51.2556 85.9515 51.2066C87.8763 50.6794 89.5341 49.1814 90.5072 47.0867C91.9279 44.0296 91.8232 40.1004 90.2123 36.0238ZM68.5176 50.5002C67.8214 51.6058 66.6248 52.266 65.3162 52.266C64.6057 52.266 63.9108 52.0649 63.3066 51.6844C62.4526 51.1464 61.8586 50.3082 61.6351 49.324C61.4116 48.3398 61.5842 47.3272 62.1223 46.473C62.8186 45.3674 64.0153 44.7073 65.3239 44.7073C66.0346 44.7073 66.7294 44.9083 67.3334 45.289C68.1875 45.8266 68.7812 46.6649 69.0049 47.6492C69.2284 48.6336 69.0554 49.646 68.5176 50.5002ZM73.4226 57.3471C75.3331 54.5321 77.3535 51.734 79.2726 49.2451C79.5837 49.5261 79.9315 49.8005 80.3084 50.062C80.9327 50.4952 81.5858 50.8302 82.2528 51.0596C80.6326 53.8304 78.8905 56.5754 76.7812 59.6823C73.3154 64.7888 69.7118 69.5322 66.6341 73.0389C64.9151 74.9976 63.4106 76.5098 62.2514 77.4465C62.6988 76.0151 63.5539 74.0507 64.744 71.7232C66.8721 67.5612 69.9542 62.4557 73.4226 57.3471ZM39.8794 57.3229C39.1688 57.3229 38.4738 57.1218 37.8695 56.7412C37.0155 56.2034 36.4218 55.3654 36.1982 54.3809C35.9745 53.3965 36.1477 52.384 36.6858 51.5298C37.3816 50.4243 38.5784 49.7642 39.8868 49.7642C40.5976 49.7642 41.2926 49.9652 41.8967 50.3459C43.6598 51.4563 44.191 53.7942 43.0812 55.557C42.3846 56.6627 41.1877 57.3229 39.8794 57.3229ZM35.9181 65.6442C36.6143 64.5384 37.8109 63.8783 39.1195 63.8783C39.83 63.8783 40.5248 64.0795 41.1292 64.46C41.9833 64.9978 42.5769 65.8359 42.8006 66.8203C43.0244 67.8043 42.8512 68.8167 42.313 69.6712C41.6171 70.7766 40.4204 71.4368 39.1119 71.4368C38.4013 71.4368 37.7062 71.2358 37.1017 70.8551C36.2477 70.3172 35.6542 69.4792 35.4307 68.4949C35.2073 67.5108 35.3806 66.4982 35.9181 65.6442ZM48.0204 43.2003C48.7166 42.0947 49.9133 41.4346 51.2218 41.4346C51.9321 41.4346 52.6271 41.6356 53.2312 42.0161C54.9945 43.1263 55.5256 45.4643 54.4157 47.2274C53.7193 48.3331 52.5225 48.9933 51.2141 48.9933C50.5036 48.9933 49.8086 48.7922 49.2045 48.4116C48.3505 47.8739 47.757 47.0358 47.5334 46.0513C47.3095 45.0671 47.4826 44.0547 48.0204 43.2003Z" fill="black"/>
</svg>
