<svg width="56" height="57" viewBox="0 0 56 57" fill="none" xmlns="http://www.w3.org/2000/svg">
<circle cx="28" cy="26" r="16" fill="#FEDB41"/>
<g filter="url(#filter0_d)">
<path fill-rule="evenodd" clip-rule="evenodd" d="M20.0038 21.0989C20.0022 20.2166 20.7102 19.5022 21.599 19.5038L25.4252 19.5102C26.7604 19.4078 28.6083 20.0894 29.5667 21.0477L35.2833 26.7643C36.2353 27.7163 36.2385 29.257 35.2865 30.2082L30.7083 34.7864C29.7579 35.736 28.2227 35.7408 27.2644 34.7832L21.5478 29.0666C20.5958 28.1147 19.907 26.2603 20.0102 24.926L20.0038 21.1005V21.0989ZM22.6797 27.9339L28.3963 33.6505C28.7275 33.9817 29.2507 33.9817 29.5779 33.6537L34.1561 29.0754C34.4817 28.7498 34.4809 28.2227 34.1529 27.8947L28.4363 22.1781C27.81 21.5517 26.4212 21.0373 25.6004 21.0989L22.4014 21.0973C21.9598 21.0973 21.6014 21.4517 21.6014 21.8973L21.6006 25.0996C21.539 25.9155 22.0574 27.3123 22.6797 27.9339ZM24.8005 25.8995C25.6844 25.8995 26.4004 25.1836 26.4004 24.2996C26.4004 23.4156 25.6844 22.6997 24.8005 22.6997C23.9165 22.6997 23.2005 23.4156 23.2005 24.2996C23.2005 25.1836 23.9165 25.8995 24.8005 25.8995Z" fill="#13161F"/>
</g>
<defs>
<filter id="filter0_d" x="0" y="0.5" width="55.9989" height="56" filterUnits="userSpaceOnUse" color-interpolation-filters="sRGB">
<feFlood flood-opacity="0" result="BackgroundImageFix"/>
<feColorMatrix in="SourceAlpha" type="matrix" values="0 0 0 0 0 0 0 0 0 0 0 0 0 0 0 0 0 0 127 0"/>
<feOffset dy="1"/>
<feGaussianBlur stdDeviation="10"/>
<feColorMatrix type="matrix" values="0 0 0 0 0 0 0 0 0 0 0 0 0 0 0 0 0 0 0.1 0"/>
<feBlend mode="normal" in2="BackgroundImageFix" result="effect1_dropShadow"/>
<feBlend mode="normal" in="SourceGraphic" in2="effect1_dropShadow" result="shape"/>
</filter>
</defs>
</svg>
