<svg width="164" height="164" viewBox="0 0 164 164" fill="none" xmlns="http://www.w3.org/2000/svg">
<circle cx="82" cy="82" r="82" fill="#FEDB41"/>
<g clip-path="url(#clip0)">
<path d="M122.733 30.4995H42.8817C42.206 30.4995 41.6582 31.0473 41.6582 31.723V132.277C41.6582 132.953 42.206 133.5 42.8817 133.5H122.733C123.409 133.5 123.957 132.953 123.957 132.277V31.723C123.957 31.0473 123.409 30.4995 122.733 30.4995ZM121.51 131.053H44.1052V32.9465H121.51V131.053Z" fill="black" stroke="black" stroke-width="0.4"/>
<path d="M82.8911 57.4695L82.8911 57.4695L79.9494 57.3416C79.9493 57.3416 79.9491 57.3416 79.949 57.3416C79.6105 57.3255 79.2895 57.4504 79.0494 57.6798L79.0494 57.6798L79.0492 57.68C78.8082 57.9109 78.6721 58.2302 78.6721 58.5639V62.6579C78.6718 63.3336 79.2197 63.8814 79.8953 63.8814C80.571 63.8814 81.1188 63.3335 81.1188 62.6579V59.8418L82.7839 59.914C82.784 59.914 82.7842 59.9141 82.7843 59.9141C83.4628 59.946 84.0309 59.419 84.0602 58.745C84.0895 58.07 83.5662 57.4989 82.8911 57.4695Z" fill="black" stroke="black" stroke-width="0.4"/>
<path d="M84.1171 115.675L84.1171 115.675L77.7202 110.429C77.7202 110.429 77.7202 110.429 77.7202 110.429C77.1978 110.001 77.1213 109.23 77.5498 108.708L84.1171 115.675ZM84.1171 115.675C84.3445 115.861 84.6195 115.952 84.8923 115.952C85.2452 115.952 85.597 115.8 85.8389 115.504C86.2674 114.982 86.1909 114.211 85.6685 113.783C85.6685 113.783 85.6685 113.783 85.6685 113.783L79.2716 108.537L84.1171 115.675ZM79.2716 108.537C78.7495 108.109 77.9782 108.185 77.5498 108.708L79.2716 108.537Z" fill="black" stroke="black" stroke-width="0.4"/>
<path d="M100.956 88.0334C100.98 87.3579 100.453 86.7912 99.7774 86.7669C96.5283 86.6466 94.2646 87.8556 92.7653 89.44C91.2725 91.0176 90.5431 92.9607 90.3379 94.3174L88.9308 102.888L88.9308 102.888L99.6968 89.0123L99.6897 89.2121C100.359 89.236 100.932 88.7094 100.956 88.0334ZM100.956 88.0334L100.756 88.0261L100.956 88.0333C100.956 88.0333 100.956 88.0333 100.956 88.0334Z" fill="black" stroke="black" stroke-width="0.4"/>
<mask id="path-6-outside-1" maskUnits="userSpaceOnUse" x="50.9365" y="39.6781" width="64" height="85" fill="black">
<rect fill="white" x="50.9365" y="39.6781" width="64" height="85"/>
<path d="M51.9365 122.299C51.9365 122.864 52.3948 123.322 52.96 123.322H112.655C113.221 123.322 113.679 122.864 113.679 122.299V41.7016C113.679 41.1364 113.221 40.6781 112.655 40.6781H52.96C52.3948 40.6781 51.9365 41.1364 51.9365 41.7016V122.299ZM71.8531 72.6917C71.2956 74.2948 71.3488 76.5565 71.4458 77.8835C69.0886 78.3208 63.7807 80.4461 61.4285 90.6102C60.7097 91.5081 59.6706 92.4661 58.5744 93.4765C57.0256 94.9038 55.3473 96.4521 53.9838 98.3018V62.402H69.2488C69.2416 66.0656 69.9768 70.7819 71.8531 72.6917ZM111.632 101.634C109.644 94.2633 106.253 84.8707 101.597 78.1928C100.196 76.185 97.0735 73.4957 95.3957 72.0508L95.3138 71.9802C94.9574 69.6589 94.463 65.8921 94.0214 62.4022H111.632V101.634H111.632ZM79.2305 104.488C77.987 103.805 76.7826 103.263 75.6751 102.836C75.6805 102.594 75.6657 102.335 75.679 102.129C76.1326 95.1732 80.2673 89.2628 87.9676 84.5613C93.8182 80.9895 99.6266 79.508 99.6847 79.4932C99.7709 79.4714 99.8687 79.4553 99.9705 79.4412C100.284 79.8934 100.592 80.3596 100.895 80.8401C99.4368 81.1308 95.353 82.1233 91.0786 84.768C86.4559 87.628 80.8052 93.0011 79.4408 102.538C79.372 103.02 79.2387 104.32 79.2305 104.488ZM83.1388 84.7952C78.1425 85.2419 73.9984 82.9634 72.4035 81.0527C72.9009 79.1091 76.9824 75.9887 79.9055 74.2897C80.2458 74.0919 80.4429 73.716 80.4116 73.3235L80.2379 71.1391C80.394 71.1524 80.5506 71.1621 80.7079 71.1657L80.9825 71.1708C82.9133 71.2118 84.7886 70.5462 86.2571 69.2873L86.2671 69.2786L86.7428 82.9137C85.8055 83.4917 84.9145 84.0907 84.0735 84.7107C83.6638 84.7414 83.3102 84.7801 83.1388 84.7952ZM75.9374 57.9241C75.9348 57.9241 75.9323 57.9241 75.9302 57.9241L74.6432 57.9331L74.3103 53.7365C74.3187 53.7178 74.3292 53.6994 74.3364 53.6802C74.9812 53.0761 76.5146 51.8118 78.2088 51.6506C81.331 51.3527 85.1696 51.7987 85.7909 55.5913L86.176 66.661L84.925 67.7326C83.8406 68.6625 82.4617 69.1558 81.0252 69.1241L80.7499 69.119C79.2003 69.0847 77.704 68.4148 76.6449 67.2823C76.202 66.8069 75.843 66.2621 75.5794 65.6649C75.3156 65.0641 75.157 64.4334 75.1073 63.7873L74.8054 59.9788L75.944 59.9711C76.5093 59.9671 76.9645 59.506 76.9606 58.9407C76.9565 58.3778 76.4993 57.9241 75.9374 57.9241ZM93.3492 72.669C93.3871 72.9077 93.5079 73.1252 93.6908 73.2833L94.06 73.6019C95.136 74.5284 97.0466 76.1752 98.5013 77.6956C96.9612 78.1401 93.0524 79.3941 88.7506 81.7462L88.2394 67.0904C88.2391 67.0847 88.2389 67.0789 88.2386 67.0732L87.8348 55.458C87.8333 55.4178 87.8295 55.3777 87.8233 55.3378C87.1816 51.167 83.6062 49.0819 78.0151 49.6128C77.1827 49.6921 76.4008 49.9457 75.7012 50.2737C76.7815 48.881 78.642 47.5612 81.8223 47.5612C84.2687 47.5612 86.4252 48.5389 88.2322 50.4672C89.9292 52.2777 90.9944 54.609 91.3124 57.2087C91.8324 61.4575 92.7881 69.1159 93.3492 72.669ZM72.4874 56.6432L73.0667 63.9464C73.1338 64.8205 73.3484 65.6759 73.7062 66.4901C74.0631 67.2989 74.548 68.0351 75.1488 68.6799C75.9822 69.5711 77.0159 70.2486 78.1474 70.6703L78.3211 72.8558C77.5765 73.3163 76.1887 74.2124 74.778 75.3183C74.2873 75.7031 73.8415 76.0772 73.4329 76.4429C73.4183 75.0548 73.5493 73.6109 73.9835 72.9351C74.1406 72.6907 74.1867 72.3908 74.1097 72.1107C74.0327 71.8302 73.8402 71.5961 73.5805 71.4658C71.8024 70.5767 70.7505 62.838 71.5614 59.3051C71.7935 58.2934 72.1318 57.3973 72.4874 56.6432ZM53.9835 121.275V102.454C55.1746 99.3985 57.7137 97.0534 59.9613 94.9818C60.819 94.1917 61.6403 93.4317 62.342 92.6756C63.3903 92.7324 66.1402 93.0674 66.8958 95.0148C67.2896 96.8702 68.0431 98.4822 69.1426 99.7815C69.345 100.021 69.6339 100.144 69.9246 100.144C70.1582 100.144 70.3928 100.064 70.5852 99.9018C71.0167 99.5367 71.0704 98.8908 70.7055 98.4592C66.9157 93.9806 69.4589 86.3512 69.485 86.2744C69.6682 85.7401 69.3839 85.1585 68.8496 84.9748C68.3128 84.7908 67.7325 85.0756 67.5488 85.6099C67.5183 85.6989 66.7985 87.8181 66.6161 90.5933C66.5905 90.9825 66.5798 91.364 66.578 91.7399C65.5537 91.1447 64.4097 90.8625 63.5041 90.7307C65.2257 83.6412 68.4113 81.1553 70.5011 80.2854C70.3859 80.6321 70.3212 80.9696 70.3086 81.2979C70.2999 81.5225 70.3657 81.7436 70.4952 81.9273C71.4578 83.2911 73.2031 84.6004 75.2836 85.5198C76.6958 86.1436 78.807 86.8212 81.4083 86.8923C76.6651 91.213 74.0048 96.3469 73.6366 101.996C73.6337 102.04 73.6289 102.086 73.6233 102.132C71.5095 101.492 70.0589 101.318 69.909 101.301C69.6856 101.277 69.4561 101.327 69.2624 101.446C68.147 102.127 67.396 103.191 67.0908 104.521C66.8098 105.747 66.9367 107.118 67.4139 108.301C66.4355 108.751 65.3255 108.981 64.4483 109.1C62.323 105.412 64.4982 103.606 64.772 103.4C65.2249 103.069 65.3262 102.433 64.9977 101.977C64.6676 101.518 64.0277 101.414 63.5691 101.744C62.2575 102.688 60.5411 105.29 62.1129 108.999C60.9981 108.561 59.2628 107.333 59.5575 103.943C59.6855 102.472 60.1847 101.383 61.0419 100.708C62.4666 99.5848 64.4949 99.8714 64.5223 99.876C65.0762 99.9601 65.601 99.5822 65.6898 99.0254C65.7789 98.4669 65.3981 97.9426 64.8401 97.8538C64.7216 97.8346 61.9331 97.4144 59.7932 99.0858C58.4634 100.125 57.6981 101.699 57.5182 103.765C56.9264 110.573 62.7222 111.263 62.7805 111.269C62.8164 111.272 66.809 111.255 69.3407 109.567C69.3849 109.538 70.3849 108.938 70.3849 108.938C70.5579 109.162 70.7889 109.451 71.0625 109.777L67.0173 111.904C66.6808 112.08 66.47 112.429 66.47 112.809V115.88C66.47 116.445 66.9283 116.903 67.4935 116.903C68.0587 116.903 68.517 116.445 68.517 115.88V113.428L72.4864 111.341C73.0143 111.875 73.6176 112.436 74.2842 112.983L70.7894 114.002C70.4849 114.091 70.2393 114.315 70.1231 114.61L68.7158 118.193C68.5088 118.719 68.768 119.313 69.2941 119.519C69.4169 119.568 69.5438 119.59 69.6682 119.59C70.0768 119.59 70.4627 119.344 70.6211 118.941L71.8447 115.826L76.3998 114.499C77.1423 114.954 77.933 115.362 78.7687 115.684C78.8894 115.73 79.0135 115.752 79.1356 115.752C79.5468 115.752 79.9347 115.503 80.091 115.096C80.2939 114.568 80.0309 113.976 79.503 113.773C74.8868 111.998 71.8255 107.547 71.7958 107.503C71.5458 107.134 71.0863 106.968 70.6589 107.094L69.3005 107.493C68.995 106.704 68.9054 105.768 69.0863 104.979C69.2401 104.309 69.5628 103.776 70.0479 103.389C71.7792 103.672 79.3073 105.229 84.893 111.567C85.0954 111.796 85.3777 111.914 85.6614 111.914C85.9017 111.914 86.1432 111.829 86.3377 111.658C86.7617 111.284 86.8026 110.638 86.4288 110.213C86.0749 109.812 85.7131 109.432 85.3477 109.066L92.981 107.68C93.2243 107.653 96.1853 107.369 98.0325 109.73C98.2344 109.988 98.5353 110.122 98.8393 110.122C99.0598 110.122 99.2819 110.052 99.4692 109.905C99.9145 109.557 99.993 108.913 99.6445 108.468C97.0093 105.101 92.8613 105.63 92.6855 105.654C92.6711 105.656 92.6571 105.658 92.6425 105.661L83.4392 107.331C82.7176 106.738 81.9883 106.201 81.2609 105.717C81.2709 105.176 81.2762 104.534 81.3067 104.203C81.3561 103.668 81.4193 103.142 81.4968 102.624C82.5339 95.6855 86.0936 90.2819 92.0941 86.5464C96.9489 83.5245 101.676 82.7755 101.756 82.7633C101.815 82.7546 101.911 82.7423 102.021 82.7269C107.742 92.8376 111.305 107.238 111.632 111.952V121.274H53.9835V121.275ZM111.632 42.7251V60.355H93.764C93.6079 59.1037 93.4644 57.9403 93.3446 56.96C92.9733 53.9263 91.7218 51.1972 89.726 49.0673C87.5165 46.7094 84.8575 45.5139 81.8223 45.5139C75.222 45.5139 72.6903 50.4175 72.2525 53.0837C71.5919 53.944 70.2239 55.9831 69.5663 58.8463C69.4694 59.2685 69.3936 59.781 69.3399 60.3547H53.9835V42.7249H111.632V42.7251Z"/>
</mask>
<path d="M51.9365 122.299C51.9365 122.864 52.3948 123.322 52.96 123.322H112.655C113.221 123.322 113.679 122.864 113.679 122.299V41.7016C113.679 41.1364 113.221 40.6781 112.655 40.6781H52.96C52.3948 40.6781 51.9365 41.1364 51.9365 41.7016V122.299ZM71.8531 72.6917C71.2956 74.2948 71.3488 76.5565 71.4458 77.8835C69.0886 78.3208 63.7807 80.4461 61.4285 90.6102C60.7097 91.5081 59.6706 92.4661 58.5744 93.4765C57.0256 94.9038 55.3473 96.4521 53.9838 98.3018V62.402H69.2488C69.2416 66.0656 69.9768 70.7819 71.8531 72.6917ZM111.632 101.634C109.644 94.2633 106.253 84.8707 101.597 78.1928C100.196 76.185 97.0735 73.4957 95.3957 72.0508L95.3138 71.9802C94.9574 69.6589 94.463 65.8921 94.0214 62.4022H111.632V101.634H111.632ZM79.2305 104.488C77.987 103.805 76.7826 103.263 75.6751 102.836C75.6805 102.594 75.6657 102.335 75.679 102.129C76.1326 95.1732 80.2673 89.2628 87.9676 84.5613C93.8182 80.9895 99.6266 79.508 99.6847 79.4932C99.7709 79.4714 99.8687 79.4553 99.9705 79.4412C100.284 79.8934 100.592 80.3596 100.895 80.8401C99.4368 81.1308 95.353 82.1233 91.0786 84.768C86.4559 87.628 80.8052 93.0011 79.4408 102.538C79.372 103.02 79.2387 104.32 79.2305 104.488ZM83.1388 84.7952C78.1425 85.2419 73.9984 82.9634 72.4035 81.0527C72.9009 79.1091 76.9824 75.9887 79.9055 74.2897C80.2458 74.0919 80.4429 73.716 80.4116 73.3235L80.2379 71.1391C80.394 71.1524 80.5506 71.1621 80.7079 71.1657L80.9825 71.1708C82.9133 71.2118 84.7886 70.5462 86.2571 69.2873L86.2671 69.2786L86.7428 82.9137C85.8055 83.4917 84.9145 84.0907 84.0735 84.7107C83.6638 84.7414 83.3102 84.7801 83.1388 84.7952ZM75.9374 57.9241C75.9348 57.9241 75.9323 57.9241 75.9302 57.9241L74.6432 57.9331L74.3103 53.7365C74.3187 53.7178 74.3292 53.6994 74.3364 53.6802C74.9812 53.0761 76.5146 51.8118 78.2088 51.6506C81.331 51.3527 85.1696 51.7987 85.7909 55.5913L86.176 66.661L84.925 67.7326C83.8406 68.6625 82.4617 69.1558 81.0252 69.1241L80.7499 69.119C79.2003 69.0847 77.704 68.4148 76.6449 67.2823C76.202 66.8069 75.843 66.2621 75.5794 65.6649C75.3156 65.0641 75.157 64.4334 75.1073 63.7873L74.8054 59.9788L75.944 59.9711C76.5093 59.9671 76.9645 59.506 76.9606 58.9407C76.9565 58.3778 76.4993 57.9241 75.9374 57.9241ZM93.3492 72.669C93.3871 72.9077 93.5079 73.1252 93.6908 73.2833L94.06 73.6019C95.136 74.5284 97.0466 76.1752 98.5013 77.6956C96.9612 78.1401 93.0524 79.3941 88.7506 81.7462L88.2394 67.0904C88.2391 67.0847 88.2389 67.0789 88.2386 67.0732L87.8348 55.458C87.8333 55.4178 87.8295 55.3777 87.8233 55.3378C87.1816 51.167 83.6062 49.0819 78.0151 49.6128C77.1827 49.6921 76.4008 49.9457 75.7012 50.2737C76.7815 48.881 78.642 47.5612 81.8223 47.5612C84.2687 47.5612 86.4252 48.5389 88.2322 50.4672C89.9292 52.2777 90.9944 54.609 91.3124 57.2087C91.8324 61.4575 92.7881 69.1159 93.3492 72.669ZM72.4874 56.6432L73.0667 63.9464C73.1338 64.8205 73.3484 65.6759 73.7062 66.4901C74.0631 67.2989 74.548 68.0351 75.1488 68.6799C75.9822 69.5711 77.0159 70.2486 78.1474 70.6703L78.3211 72.8558C77.5765 73.3163 76.1887 74.2124 74.778 75.3183C74.2873 75.7031 73.8415 76.0772 73.4329 76.4429C73.4183 75.0548 73.5493 73.6109 73.9835 72.9351C74.1406 72.6907 74.1867 72.3908 74.1097 72.1107C74.0327 71.8302 73.8402 71.5961 73.5805 71.4658C71.8024 70.5767 70.7505 62.838 71.5614 59.3051C71.7935 58.2934 72.1318 57.3973 72.4874 56.6432ZM53.9835 121.275V102.454C55.1746 99.3985 57.7137 97.0534 59.9613 94.9818C60.819 94.1917 61.6403 93.4317 62.342 92.6756C63.3903 92.7324 66.1402 93.0674 66.8958 95.0148C67.2896 96.8702 68.0431 98.4822 69.1426 99.7815C69.345 100.021 69.6339 100.144 69.9246 100.144C70.1582 100.144 70.3928 100.064 70.5852 99.9018C71.0167 99.5367 71.0704 98.8908 70.7055 98.4592C66.9157 93.9806 69.4589 86.3512 69.485 86.2744C69.6682 85.7401 69.3839 85.1585 68.8496 84.9748C68.3128 84.7908 67.7325 85.0756 67.5488 85.6099C67.5183 85.6989 66.7985 87.8181 66.6161 90.5933C66.5905 90.9825 66.5798 91.364 66.578 91.7399C65.5537 91.1447 64.4097 90.8625 63.5041 90.7307C65.2257 83.6412 68.4113 81.1553 70.5011 80.2854C70.3859 80.6321 70.3212 80.9696 70.3086 81.2979C70.2999 81.5225 70.3657 81.7436 70.4952 81.9273C71.4578 83.2911 73.2031 84.6004 75.2836 85.5198C76.6958 86.1436 78.807 86.8212 81.4083 86.8923C76.6651 91.213 74.0048 96.3469 73.6366 101.996C73.6337 102.04 73.6289 102.086 73.6233 102.132C71.5095 101.492 70.0589 101.318 69.909 101.301C69.6856 101.277 69.4561 101.327 69.2624 101.446C68.147 102.127 67.396 103.191 67.0908 104.521C66.8098 105.747 66.9367 107.118 67.4139 108.301C66.4355 108.751 65.3255 108.981 64.4483 109.1C62.323 105.412 64.4982 103.606 64.772 103.4C65.2249 103.069 65.3262 102.433 64.9977 101.977C64.6676 101.518 64.0277 101.414 63.5691 101.744C62.2575 102.688 60.5411 105.29 62.1129 108.999C60.9981 108.561 59.2628 107.333 59.5575 103.943C59.6855 102.472 60.1847 101.383 61.0419 100.708C62.4666 99.5848 64.4949 99.8714 64.5223 99.876C65.0762 99.9601 65.601 99.5822 65.6898 99.0254C65.7789 98.4669 65.3981 97.9426 64.8401 97.8538C64.7216 97.8346 61.9331 97.4144 59.7932 99.0858C58.4634 100.125 57.6981 101.699 57.5182 103.765C56.9264 110.573 62.7222 111.263 62.7805 111.269C62.8164 111.272 66.809 111.255 69.3407 109.567C69.3849 109.538 70.3849 108.938 70.3849 108.938C70.5579 109.162 70.7889 109.451 71.0625 109.777L67.0173 111.904C66.6808 112.08 66.47 112.429 66.47 112.809V115.88C66.47 116.445 66.9283 116.903 67.4935 116.903C68.0587 116.903 68.517 116.445 68.517 115.88V113.428L72.4864 111.341C73.0143 111.875 73.6176 112.436 74.2842 112.983L70.7894 114.002C70.4849 114.091 70.2393 114.315 70.1231 114.61L68.7158 118.193C68.5088 118.719 68.768 119.313 69.2941 119.519C69.4169 119.568 69.5438 119.59 69.6682 119.59C70.0768 119.59 70.4627 119.344 70.6211 118.941L71.8447 115.826L76.3998 114.499C77.1423 114.954 77.933 115.362 78.7687 115.684C78.8894 115.73 79.0135 115.752 79.1356 115.752C79.5468 115.752 79.9347 115.503 80.091 115.096C80.2939 114.568 80.0309 113.976 79.503 113.773C74.8868 111.998 71.8255 107.547 71.7958 107.503C71.5458 107.134 71.0863 106.968 70.6589 107.094L69.3005 107.493C68.995 106.704 68.9054 105.768 69.0863 104.979C69.2401 104.309 69.5628 103.776 70.0479 103.389C71.7792 103.672 79.3073 105.229 84.893 111.567C85.0954 111.796 85.3777 111.914 85.6614 111.914C85.9017 111.914 86.1432 111.829 86.3377 111.658C86.7617 111.284 86.8026 110.638 86.4288 110.213C86.0749 109.812 85.7131 109.432 85.3477 109.066L92.981 107.68C93.2243 107.653 96.1853 107.369 98.0325 109.73C98.2344 109.988 98.5353 110.122 98.8393 110.122C99.0598 110.122 99.2819 110.052 99.4692 109.905C99.9145 109.557 99.993 108.913 99.6445 108.468C97.0093 105.101 92.8613 105.63 92.6855 105.654C92.6711 105.656 92.6571 105.658 92.6425 105.661L83.4392 107.331C82.7176 106.738 81.9883 106.201 81.2609 105.717C81.2709 105.176 81.2762 104.534 81.3067 104.203C81.3561 103.668 81.4193 103.142 81.4968 102.624C82.5339 95.6855 86.0936 90.2819 92.0941 86.5464C96.9489 83.5245 101.676 82.7755 101.756 82.7633C101.815 82.7546 101.911 82.7423 102.021 82.7269C107.742 92.8376 111.305 107.238 111.632 111.952V121.274H53.9835V121.275ZM111.632 42.7251V60.355H93.764C93.6079 59.1037 93.4644 57.9403 93.3446 56.96C92.9733 53.9263 91.7218 51.1972 89.726 49.0673C87.5165 46.7094 84.8575 45.5139 81.8223 45.5139C75.222 45.5139 72.6903 50.4175 72.2525 53.0837C71.5919 53.944 70.2239 55.9831 69.5663 58.8463C69.4694 59.2685 69.3936 59.781 69.3399 60.3547H53.9835V42.7249H111.632V42.7251Z" fill="black"/>
<path d="M51.9365 122.299C51.9365 122.864 52.3948 123.322 52.96 123.322H112.655C113.221 123.322 113.679 122.864 113.679 122.299V41.7016C113.679 41.1364 113.221 40.6781 112.655 40.6781H52.96C52.3948 40.6781 51.9365 41.1364 51.9365 41.7016V122.299ZM71.8531 72.6917C71.2956 74.2948 71.3488 76.5565 71.4458 77.8835C69.0886 78.3208 63.7807 80.4461 61.4285 90.6102C60.7097 91.5081 59.6706 92.4661 58.5744 93.4765C57.0256 94.9038 55.3473 96.4521 53.9838 98.3018V62.402H69.2488C69.2416 66.0656 69.9768 70.7819 71.8531 72.6917ZM111.632 101.634C109.644 94.2633 106.253 84.8707 101.597 78.1928C100.196 76.185 97.0735 73.4957 95.3957 72.0508L95.3138 71.9802C94.9574 69.6589 94.463 65.8921 94.0214 62.4022H111.632V101.634H111.632ZM79.2305 104.488C77.987 103.805 76.7826 103.263 75.6751 102.836C75.6805 102.594 75.6657 102.335 75.679 102.129C76.1326 95.1732 80.2673 89.2628 87.9676 84.5613C93.8182 80.9895 99.6266 79.508 99.6847 79.4932C99.7709 79.4714 99.8687 79.4553 99.9705 79.4412C100.284 79.8934 100.592 80.3596 100.895 80.8401C99.4368 81.1308 95.353 82.1233 91.0786 84.768C86.4559 87.628 80.8052 93.0011 79.4408 102.538C79.372 103.02 79.2387 104.32 79.2305 104.488ZM83.1388 84.7952C78.1425 85.2419 73.9984 82.9634 72.4035 81.0527C72.9009 79.1091 76.9824 75.9887 79.9055 74.2897C80.2458 74.0919 80.4429 73.716 80.4116 73.3235L80.2379 71.1391C80.394 71.1524 80.5506 71.1621 80.7079 71.1657L80.9825 71.1708C82.9133 71.2118 84.7886 70.5462 86.2571 69.2873L86.2671 69.2786L86.7428 82.9137C85.8055 83.4917 84.9145 84.0907 84.0735 84.7107C83.6638 84.7414 83.3102 84.7801 83.1388 84.7952ZM75.9374 57.9241C75.9348 57.9241 75.9323 57.9241 75.9302 57.9241L74.6432 57.9331L74.3103 53.7365C74.3187 53.7178 74.3292 53.6994 74.3364 53.6802C74.9812 53.0761 76.5146 51.8118 78.2088 51.6506C81.331 51.3527 85.1696 51.7987 85.7909 55.5913L86.176 66.661L84.925 67.7326C83.8406 68.6625 82.4617 69.1558 81.0252 69.1241L80.7499 69.119C79.2003 69.0847 77.704 68.4148 76.6449 67.2823C76.202 66.8069 75.843 66.2621 75.5794 65.6649C75.3156 65.0641 75.157 64.4334 75.1073 63.7873L74.8054 59.9788L75.944 59.9711C76.5093 59.9671 76.9645 59.506 76.9606 58.9407C76.9565 58.3778 76.4993 57.9241 75.9374 57.9241ZM93.3492 72.669C93.3871 72.9077 93.5079 73.1252 93.6908 73.2833L94.06 73.6019C95.136 74.5284 97.0466 76.1752 98.5013 77.6956C96.9612 78.1401 93.0524 79.3941 88.7506 81.7462L88.2394 67.0904C88.2391 67.0847 88.2389 67.0789 88.2386 67.0732L87.8348 55.458C87.8333 55.4178 87.8295 55.3777 87.8233 55.3378C87.1816 51.167 83.6062 49.0819 78.0151 49.6128C77.1827 49.6921 76.4008 49.9457 75.7012 50.2737C76.7815 48.881 78.642 47.5612 81.8223 47.5612C84.2687 47.5612 86.4252 48.5389 88.2322 50.4672C89.9292 52.2777 90.9944 54.609 91.3124 57.2087C91.8324 61.4575 92.7881 69.1159 93.3492 72.669ZM72.4874 56.6432L73.0667 63.9464C73.1338 64.8205 73.3484 65.6759 73.7062 66.4901C74.0631 67.2989 74.548 68.0351 75.1488 68.6799C75.9822 69.5711 77.0159 70.2486 78.1474 70.6703L78.3211 72.8558C77.5765 73.3163 76.1887 74.2124 74.778 75.3183C74.2873 75.7031 73.8415 76.0772 73.4329 76.4429C73.4183 75.0548 73.5493 73.6109 73.9835 72.9351C74.1406 72.6907 74.1867 72.3908 74.1097 72.1107C74.0327 71.8302 73.8402 71.5961 73.5805 71.4658C71.8024 70.5767 70.7505 62.838 71.5614 59.3051C71.7935 58.2934 72.1318 57.3973 72.4874 56.6432ZM53.9835 121.275V102.454C55.1746 99.3985 57.7137 97.0534 59.9613 94.9818C60.819 94.1917 61.6403 93.4317 62.342 92.6756C63.3903 92.7324 66.1402 93.0674 66.8958 95.0148C67.2896 96.8702 68.0431 98.4822 69.1426 99.7815C69.345 100.021 69.6339 100.144 69.9246 100.144C70.1582 100.144 70.3928 100.064 70.5852 99.9018C71.0167 99.5367 71.0704 98.8908 70.7055 98.4592C66.9157 93.9806 69.4589 86.3512 69.485 86.2744C69.6682 85.7401 69.3839 85.1585 68.8496 84.9748C68.3128 84.7908 67.7325 85.0756 67.5488 85.6099C67.5183 85.6989 66.7985 87.8181 66.6161 90.5933C66.5905 90.9825 66.5798 91.364 66.578 91.7399C65.5537 91.1447 64.4097 90.8625 63.5041 90.7307C65.2257 83.6412 68.4113 81.1553 70.5011 80.2854C70.3859 80.6321 70.3212 80.9696 70.3086 81.2979C70.2999 81.5225 70.3657 81.7436 70.4952 81.9273C71.4578 83.2911 73.2031 84.6004 75.2836 85.5198C76.6958 86.1436 78.807 86.8212 81.4083 86.8923C76.6651 91.213 74.0048 96.3469 73.6366 101.996C73.6337 102.04 73.6289 102.086 73.6233 102.132C71.5095 101.492 70.0589 101.318 69.909 101.301C69.6856 101.277 69.4561 101.327 69.2624 101.446C68.147 102.127 67.396 103.191 67.0908 104.521C66.8098 105.747 66.9367 107.118 67.4139 108.301C66.4355 108.751 65.3255 108.981 64.4483 109.1C62.323 105.412 64.4982 103.606 64.772 103.4C65.2249 103.069 65.3262 102.433 64.9977 101.977C64.6676 101.518 64.0277 101.414 63.5691 101.744C62.2575 102.688 60.5411 105.29 62.1129 108.999C60.9981 108.561 59.2628 107.333 59.5575 103.943C59.6855 102.472 60.1847 101.383 61.0419 100.708C62.4666 99.5848 64.4949 99.8714 64.5223 99.876C65.0762 99.9601 65.601 99.5822 65.6898 99.0254C65.7789 98.4669 65.3981 97.9426 64.8401 97.8538C64.7216 97.8346 61.9331 97.4144 59.7932 99.0858C58.4634 100.125 57.6981 101.699 57.5182 103.765C56.9264 110.573 62.7222 111.263 62.7805 111.269C62.8164 111.272 66.809 111.255 69.3407 109.567C69.3849 109.538 70.3849 108.938 70.3849 108.938C70.5579 109.162 70.7889 109.451 71.0625 109.777L67.0173 111.904C66.6808 112.08 66.47 112.429 66.47 112.809V115.88C66.47 116.445 66.9283 116.903 67.4935 116.903C68.0587 116.903 68.517 116.445 68.517 115.88V113.428L72.4864 111.341C73.0143 111.875 73.6176 112.436 74.2842 112.983L70.7894 114.002C70.4849 114.091 70.2393 114.315 70.1231 114.61L68.7158 118.193C68.5088 118.719 68.768 119.313 69.2941 119.519C69.4169 119.568 69.5438 119.59 69.6682 119.59C70.0768 119.59 70.4627 119.344 70.6211 118.941L71.8447 115.826L76.3998 114.499C77.1423 114.954 77.933 115.362 78.7687 115.684C78.8894 115.73 79.0135 115.752 79.1356 115.752C79.5468 115.752 79.9347 115.503 80.091 115.096C80.2939 114.568 80.0309 113.976 79.503 113.773C74.8868 111.998 71.8255 107.547 71.7958 107.503C71.5458 107.134 71.0863 106.968 70.6589 107.094L69.3005 107.493C68.995 106.704 68.9054 105.768 69.0863 104.979C69.2401 104.309 69.5628 103.776 70.0479 103.389C71.7792 103.672 79.3073 105.229 84.893 111.567C85.0954 111.796 85.3777 111.914 85.6614 111.914C85.9017 111.914 86.1432 111.829 86.3377 111.658C86.7617 111.284 86.8026 110.638 86.4288 110.213C86.0749 109.812 85.7131 109.432 85.3477 109.066L92.981 107.68C93.2243 107.653 96.1853 107.369 98.0325 109.73C98.2344 109.988 98.5353 110.122 98.8393 110.122C99.0598 110.122 99.2819 110.052 99.4692 109.905C99.9145 109.557 99.993 108.913 99.6445 108.468C97.0093 105.101 92.8613 105.63 92.6855 105.654C92.6711 105.656 92.6571 105.658 92.6425 105.661L83.4392 107.331C82.7176 106.738 81.9883 106.201 81.2609 105.717C81.2709 105.176 81.2762 104.534 81.3067 104.203C81.3561 103.668 81.4193 103.142 81.4968 102.624C82.5339 95.6855 86.0936 90.2819 92.0941 86.5464C96.9489 83.5245 101.676 82.7755 101.756 82.7633C101.815 82.7546 101.911 82.7423 102.021 82.7269C107.742 92.8376 111.305 107.238 111.632 111.952V121.274H53.9835V121.275ZM111.632 42.7251V60.355H93.764C93.6079 59.1037 93.4644 57.9403 93.3446 56.96C92.9733 53.9263 91.7218 51.1972 89.726 49.0673C87.5165 46.7094 84.8575 45.5139 81.8223 45.5139C75.222 45.5139 72.6903 50.4175 72.2525 53.0837C71.5919 53.944 70.2239 55.9831 69.5663 58.8463C69.4694 59.2685 69.3936 59.781 69.3399 60.3547H53.9835V42.7249H111.632V42.7251Z" stroke="black" stroke-width="0.8" mask="url(#path-6-outside-1)"/>
</g>
<defs>
<clipPath id="clip0">
<rect width="102.601" height="102.601" fill="white" transform="translate(31.5073 30.6995)"/>
</clipPath>
</defs>
</svg>
