<svg width="40" height="40" viewBox="0 0 40 40" fill="none" xmlns="http://www.w3.org/2000/svg">
<path d="M0 20C0 31.0457 8.9543 40 20 40C31.0457 40 40 31.0457 40 20C40 8.9543 31.0457 0 20 0C8.9543 0 0 8.9543 0 20Z" fill="#11131A"/>
<path d="M29.1008 10.0781L7.37951 18.539C6.67595 18.8131 6.71857 19.8222 7.4428 20.036L12.9624 21.6652L15.0223 28.1987C15.2375 28.8812 16.1027 29.0881 16.6036 28.5769L19.4574 25.6643L25.0567 29.7726C25.742 30.2754 26.7179 29.9018 26.8918 29.0702L30.6004 11.3474C30.782 10.4793 29.9275 9.75605 29.1008 10.0781ZM26.3775 14.0112L16.2881 22.9294C16.1875 23.0183 16.1235 23.1414 16.1086 23.2748L15.7201 26.7264C15.7074 26.839 15.5498 26.8539 15.5162 26.7457L13.918 21.5981C13.8448 21.3624 13.9402 21.1071 14.15 20.977L26.0646 13.5907C26.3385 13.4207 26.6191 13.7977 26.3775 14.0112Z" fill="white"/>
</svg>
