<svg width="24" height="24" viewBox="0 0 24 24" fill="none" xmlns="http://www.w3.org/2000/svg">
<path d="M18 16.08C17.24 16.08 16.56 16.38 16.04 16.85L8.91 12.7C8.96 12.47 9 12.24 9 12C9 11.76 8.96 11.53 8.91 11.3L15.96 7.19001C16.5 7.69002 17.21 8.00002 18 8.00002C19.66 8.00002 21 6.66001 21 5.00001C21 3.34 19.66 2 18 2C16.34 2 15 3.34 15 5.00001C15 5.24001 15.04 5.47001 15.09 5.70001L8.04 9.81002C7.5 9.31002 6.79 9.00002 6 9.00002C4.34 9.00002 3 10.34 3 12C3 13.66 4.34 15 6 15C6.79 15 7.5 14.69 8.04 14.19L15.16 18.35C15.11 18.56 15.08 18.78 15.08 19C15.08 20.6101 16.39 21.9201 18 21.9201C19.61 21.9201 20.92 20.6101 20.92 19C20.92 17.39 19.61 16.08 18 16.08Z" fill="black"/>
</svg>
