<svg width="143" height="143" viewBox="0 0 143 143" fill="none" xmlns="http://www.w3.org/2000/svg">
<circle cx="71.5" cy="71.5" r="71.5" fill="#FEDB41"/>
<path d="M107.503 42.9283C107.361 42.5683 107.033 42.315 106.649 42.268C106.265 42.2212 105.886 42.3881 105.661 42.7032C104.326 44.5741 102.575 45.1978 100.547 45.92C98.9112 46.5026 97.2198 47.1046 95.3918 48.417C92.8065 50.273 91.624 52.803 92.2137 55.201L92.1507 55.2818C91.0711 53.7157 89.8965 52.2672 88.657 50.9738C82.8575 44.9225 74.754 41.2844 66.4234 40.9928C66.0564 40.9799 65.6834 40.9734 65.3148 40.9734C56.0127 40.9734 47.1091 45.1318 40.8872 52.382C34.6979 59.5947 31.9546 68.9839 33.361 78.1422C33.4786 78.9077 33.6257 79.6811 33.7988 80.4416C36.0864 90.5104 41.9291 98.1701 49.829 101.456C51.7763 102.266 53.7406 102.676 55.6664 102.676C60.4513 102.676 64.6306 100.117 67.1331 95.6549C68.0843 93.9569 68.6981 92.2011 68.9567 90.4356C69.1091 89.3936 69.0049 88.3524 68.9039 87.3434C68.7998 86.3049 68.7016 85.3234 68.8588 84.3352C69.2191 82.07 70.8014 80.7174 73.0916 80.7174C73.7431 80.7174 74.4088 80.8246 75.0736 81.0364C74.2953 82.4639 73.5884 83.827 72.9707 85.0905C71.6616 87.7682 70.7586 89.9857 70.286 91.6808C69.9947 92.7262 69.2207 95.5044 71.108 96.8143C71.7074 97.2303 72.4673 97.3771 73.2581 97.2299C73.9709 97.0975 76.1395 96.6946 82.3018 89.6792C83.9558 87.7967 85.738 85.618 87.6008 83.2027C92.383 81.5921 96.1045 77.5838 97.089 72.978C97.3354 71.8267 97.4382 70.5945 97.3944 69.3146C99.1849 66.5476 100.755 63.9657 102.336 61.1901C102.366 61.1366 102.396 61.0796 102.425 61.0211C104.719 60.3929 106.695 58.6079 107.854 56.1117C109.547 52.4686 109.423 47.7863 107.503 42.9283ZM81.65 60.1794C80.8204 61.4969 79.3945 62.2836 77.8351 62.2836C76.9884 62.2836 76.1602 62.044 75.4403 61.5906C74.4225 60.9495 73.7147 59.9506 73.4484 58.7777C73.1821 57.6049 73.3877 56.3983 74.0289 55.3803C74.8587 54.0628 76.2849 53.2761 77.8442 53.2761C78.6911 53.2761 79.5191 53.5157 80.2389 53.9693C81.2566 54.61 81.9642 55.609 82.2307 56.782C82.4971 57.955 82.2909 59.1615 81.65 60.1794ZM87.4952 68.3386C89.7719 64.9841 92.1795 61.6497 94.4664 58.6837C94.8371 59.0185 95.2517 59.3456 95.7007 59.6572C96.4447 60.1734 97.2229 60.5726 98.0179 60.846C96.0871 64.1478 94.0111 67.4191 91.4975 71.1213C87.3674 77.2066 83.0732 82.8592 79.4056 87.038C77.357 89.3721 75.5642 91.1742 74.1828 92.2904C74.716 90.5847 75.735 88.2438 77.1532 85.4702C79.6891 80.5104 83.362 74.4263 87.4952 68.3386ZM47.5229 68.3097C46.6761 68.3097 45.8479 68.0702 45.1278 67.6165C44.11 66.9756 43.4026 65.9771 43.1361 64.8039C42.8696 63.6309 43.0759 62.4242 43.7171 61.4063C44.5464 60.0889 45.9725 59.3023 47.5317 59.3023C48.3787 59.3023 49.2069 59.5419 49.9269 59.9955C52.0279 61.3188 52.6608 64.1047 51.3384 66.2054C50.5083 67.5231 49.0819 68.3097 47.5229 68.3097ZM42.8023 78.226C43.6319 76.9083 45.0579 76.1216 46.6173 76.1216C47.4639 76.1216 48.292 76.3614 49.0122 76.8148C50.03 77.4557 50.7374 78.4544 51.0039 79.6275C51.2706 80.8001 51.0643 82.0066 50.4229 83.0249C49.5936 84.3421 48.1675 85.1289 46.6083 85.1289C45.7614 85.1289 44.9331 84.8893 44.2128 84.4357C43.195 83.7946 42.4878 82.7961 42.2215 81.623C41.9553 80.4504 42.1618 79.2437 42.8023 78.226ZM57.2242 51.4804C58.0538 50.1628 59.48 49.3762 61.0392 49.3762C61.8857 49.3762 62.7139 49.6158 63.4338 50.0692C65.535 51.3922 66.1679 54.1783 64.8453 56.2793C64.0154 57.597 62.5892 58.3836 61.03 58.3836C60.1833 58.3836 59.3552 58.1441 58.6352 57.6904C57.6176 57.0497 56.9104 56.051 56.6439 54.8778C56.377 53.7049 56.5833 52.4985 57.2242 51.4804Z" fill="black"/>
</svg>
