<svg width="203" height="203" viewBox="0 0 203 203" fill="none" xmlns="http://www.w3.org/2000/svg">
<circle cx="101.5" cy="101.5" r="101.5" fill="#FEDB41"/>
<path d="M151.92 37.8H53.0794C52.2693 37.8 51.6125 38.4568 51.6125 39.2669V163.733C51.6125 164.543 52.2693 165.2 53.0794 165.2H151.92C152.73 165.2 153.387 164.543 153.387 163.733V39.2669C153.387 38.4568 152.73 37.8 151.92 37.8ZM150.453 162.266H54.5463V40.7338H150.453V162.266Z" fill="black" stroke="black" stroke-width="0.4"/>
<path d="M102.602 71.1835L102.602 71.1835L98.9602 71.0252C98.96 71.0252 98.9599 71.0252 98.9597 71.0252C98.554 71.0058 98.1693 71.1555 97.8813 71.4307L97.8811 71.4309C97.5921 71.7078 97.4289 72.0906 97.4289 72.4906L97.4289 77.5581C97.4289 77.5581 97.4289 77.5582 97.4289 77.5582C97.4286 78.3683 98.0854 79.0251 98.8955 79.0251C99.7056 79.0251 100.362 78.3683 100.362 77.5582V74.0228L102.473 74.1144C102.473 74.1144 102.474 74.1144 102.474 74.1144C103.287 74.1527 103.968 73.521 104.003 72.7128C104.038 71.9034 103.411 71.2187 102.602 71.1835Z" fill="black" stroke="black" stroke-width="0.4"/>
<path d="M104.151 143.146L104.151 143.146L96.2334 136.653C96.2334 136.653 96.2333 136.653 96.2333 136.653C95.607 136.14 95.5153 135.215 96.029 134.589L104.151 143.146ZM104.151 143.146C104.424 143.37 104.754 143.479 105.081 143.479C105.504 143.479 105.926 143.296 106.216 142.942C106.73 142.316 106.638 141.391 106.011 140.878C106.011 140.878 106.011 140.878 106.011 140.878L98.0934 134.385L104.151 143.146ZM98.0934 134.385C97.4674 133.871 96.5426 133.962 96.0291 134.589L98.0934 134.385Z" fill="black" stroke="black" stroke-width="0.4"/>
<path d="M124.917 108.966C124.946 108.157 124.313 107.477 123.503 107.448C119.496 107.3 116.707 108.79 114.86 110.742C113.02 112.687 112.121 115.083 111.868 116.754C111.868 116.754 111.868 116.755 111.868 116.755L110.126 127.363L110.126 127.363L123.405 110.18L123.398 110.38C124.201 110.408 124.888 109.777 124.917 108.966ZM124.917 108.966L124.717 108.959L124.917 108.966C124.917 108.966 124.917 108.966 124.917 108.966Z" fill="black" stroke="black" stroke-width="0.4"/>
<mask id="path-6-outside-1" maskUnits="userSpaceOnUse" x="63.2871" y="49.3516" width="78" height="104" fill="black">
<rect fill="white" x="63.2871" y="49.3516" width="78" height="104"/>
<path d="M64.2871 151.382C64.2871 152.081 64.8544 152.649 65.554 152.649H139.445C140.145 152.649 140.712 152.081 140.712 151.382V51.6185C140.712 50.9189 140.145 50.3516 139.445 50.3516H65.554C64.8544 50.3516 64.2871 50.9189 64.2871 51.6185V151.382ZM88.94 89.9782C88.2498 91.9625 88.3157 94.762 88.4357 96.4045C85.5181 96.9458 78.9479 99.5765 76.0363 112.158C75.1466 113.269 73.8604 114.455 72.5036 115.706C70.5864 117.472 68.509 119.389 66.8212 121.678V77.2415H85.7163C85.7075 81.7763 86.6174 87.6142 88.94 89.9782ZM138.178 125.803C135.718 116.68 131.521 105.053 125.757 96.7874C124.023 94.3021 120.158 90.9733 118.081 89.1848L117.98 89.0974C117.539 86.2241 116.927 81.5616 116.38 77.2418H138.178V125.803H138.178ZM98.0717 129.336C96.5325 128.491 95.0416 127.819 93.6709 127.291C93.6775 126.991 93.6591 126.671 93.6756 126.416C94.2372 117.806 99.3551 110.49 108.887 104.67C116.128 100.249 123.318 98.4154 123.39 98.397C123.497 98.3701 123.618 98.3502 123.744 98.3327C124.132 98.8924 124.513 99.4695 124.888 100.064C123.083 100.424 118.028 101.653 112.737 104.926C107.015 108.466 100.021 115.117 98.3321 126.922C98.2469 127.519 98.0819 129.128 98.0717 129.336ZM102.909 104.96C96.725 105.513 91.5954 102.692 89.6212 100.327C90.2369 97.9216 95.289 94.0592 98.9073 91.9561C99.3285 91.7113 99.5724 91.246 99.5337 90.7602L99.3187 88.0563C99.5119 88.0728 99.7057 88.0848 99.9005 88.0893L100.24 88.0956C102.63 88.1463 104.952 87.3225 106.769 85.7642L106.782 85.7534L107.37 102.631C106.21 103.346 105.107 104.088 104.066 104.855C103.559 104.893 103.122 104.941 102.909 104.96ZM93.9955 71.6988C93.9923 71.6988 93.9892 71.6988 93.9866 71.6988L92.3935 71.7099L91.9815 66.5153C91.9919 66.4922 92.0049 66.4694 92.0138 66.4456C92.8119 65.6978 94.71 64.1329 96.8071 63.9334C100.672 63.5647 105.423 64.1167 106.192 68.8112L106.669 82.5133L105.12 83.8398C103.778 84.9908 102.071 85.6014 100.293 85.5621L99.9524 85.5558C98.0344 85.5133 96.1822 84.6842 94.8712 83.2823C94.323 82.6939 93.8786 82.0196 93.5524 81.2803C93.2259 80.5367 93.0295 79.7559 92.968 78.9562L92.5943 74.2421L94.0037 74.2326C94.7034 74.2275 95.2668 73.6568 95.2621 72.9571C95.257 72.2603 94.691 71.6988 93.9955 71.6988ZM115.548 89.95C115.595 90.2455 115.744 90.5147 115.971 90.7105L116.428 91.1048C117.76 92.2517 120.125 94.2901 121.925 96.1721C120.019 96.7222 115.181 98.2745 109.856 101.186L109.223 83.0448C109.223 83.0378 109.222 83.0305 109.222 83.0236L108.722 68.6462C108.72 68.5965 108.716 68.5468 108.708 68.4974C107.914 63.3348 103.488 60.7538 96.5673 61.411C95.537 61.5092 94.5691 61.823 93.7032 62.2291C95.0404 60.5051 97.3433 58.8715 101.28 58.8715C104.308 58.8715 106.977 60.0817 109.214 62.4685C111.315 64.7096 112.633 67.5953 113.027 70.8132C113.67 76.0724 114.853 85.552 115.548 89.95ZM89.7251 70.1133L90.4422 79.1532C90.5252 80.2351 90.7909 81.2939 91.2337 82.3018C91.6755 83.3029 92.2757 84.2141 93.0194 85.0123C94.0509 86.1154 95.3305 86.9541 96.731 87.4761L96.9461 90.1812C96.0244 90.7513 94.3065 91.8605 92.5604 93.2294C91.9529 93.7057 91.4012 94.1688 90.8954 94.6214C90.8774 92.9031 91.0395 91.1159 91.577 90.2794C91.7715 89.9769 91.8285 89.6057 91.7331 89.2589C91.6378 88.9118 91.3996 88.622 91.0782 88.4608C88.8772 87.3602 87.5752 77.7812 88.5789 73.4082C88.8662 72.1558 89.2849 71.0467 89.7251 70.1133ZM66.8209 150.115V126.819C68.2953 123.036 71.4381 120.133 74.2202 117.569C75.2819 116.591 76.2985 115.65 77.167 114.714C78.4646 114.785 81.8685 115.199 82.8037 117.61C83.2912 119.906 84.2239 121.902 85.5849 123.51C85.8354 123.806 86.193 123.959 86.5528 123.959C86.842 123.959 87.1324 123.86 87.3706 123.659C87.9046 123.207 87.9711 122.408 87.5194 121.873C82.8284 116.33 85.9764 106.886 86.0087 106.791C86.2354 106.13 85.8836 105.41 85.2222 105.182C84.5578 104.954 83.8394 105.307 83.612 105.968C83.5743 106.079 82.6834 108.702 82.4576 112.137C82.4259 112.619 82.4126 113.091 82.4104 113.556C81.1425 112.819 79.7265 112.47 78.6056 112.307C80.7365 103.531 84.6797 100.454 87.2664 99.3776C87.1239 99.8068 87.0437 100.225 87.0282 100.631C87.0174 100.909 87.0988 101.183 87.2591 101.41C88.4506 103.098 90.611 104.719 93.1863 105.857C94.9343 106.629 97.5476 107.468 100.767 107.556C94.8963 112.904 91.6033 119.259 91.1475 126.251C91.144 126.306 91.138 126.363 91.131 126.419C88.5146 125.628 86.7191 125.412 86.5335 125.391C86.257 125.361 85.9729 125.423 85.7331 125.57C84.3525 126.413 83.4229 127.73 83.0451 129.377C82.6973 130.894 82.8544 132.591 83.4451 134.056C82.234 134.613 80.86 134.898 79.7743 135.045C77.1436 130.48 79.836 128.244 80.1749 127.989C80.7355 127.579 80.861 126.792 80.4543 126.227C80.0457 125.659 79.2536 125.531 78.686 125.939C77.0625 127.108 74.9379 130.328 76.8835 134.919C75.5036 134.378 73.3555 132.857 73.7204 128.661C73.8788 126.84 74.4967 125.493 75.5577 124.657C77.3213 123.267 79.8319 123.621 79.8658 123.627C80.5515 123.731 81.2011 123.263 81.311 122.574C81.4212 121.883 80.95 121.234 80.2592 121.124C80.1125 121.1 76.6609 120.58 74.0121 122.649C72.3661 123.935 71.4188 125.884 71.1961 128.441C70.4635 136.868 77.6377 137.721 77.7099 137.729C77.7542 137.734 82.6964 137.712 85.83 135.623C85.8848 135.586 87.1226 134.843 87.1226 134.843C87.3367 135.121 87.6227 135.479 87.9613 135.883L82.9542 138.515C82.5377 138.734 82.2767 139.166 82.2767 139.636V143.437C82.2767 144.136 82.844 144.704 83.5436 144.704C84.2433 144.704 84.8105 144.136 84.8105 143.437V140.401L89.7238 137.818C90.3772 138.48 91.1241 139.173 91.9491 139.851L87.6233 141.112C87.2464 141.222 86.9424 141.5 86.7986 141.865L85.0566 146.299C84.8004 146.951 85.1212 147.686 85.7724 147.942C85.9244 148.002 86.0815 148.03 86.2354 148.03C86.7413 148.03 87.2189 147.725 87.4149 147.226L88.9295 143.371L94.5678 141.728C95.487 142.291 96.4656 142.796 97.5001 143.194C97.6495 143.251 97.8032 143.279 97.9542 143.279C98.4632 143.279 98.9434 142.97 99.1369 142.466C99.388 141.813 99.0625 141.08 98.409 140.829C92.695 138.631 88.9057 133.122 88.869 133.068C88.5596 132.611 87.9907 132.406 87.4618 132.561L85.7803 133.056C85.4021 132.078 85.2913 130.92 85.5152 129.943C85.7056 129.114 86.105 128.454 86.7055 127.975C88.8484 128.325 98.1668 130.253 105.081 138.098C105.331 138.382 105.681 138.527 106.032 138.527C106.329 138.527 106.628 138.423 106.869 138.211C107.394 137.748 107.445 136.948 106.982 136.423C106.544 135.926 106.096 135.456 105.644 135.002L115.092 133.287C115.393 133.253 119.059 132.902 121.345 135.824C121.595 136.144 121.967 136.31 122.344 136.31C122.617 136.31 122.891 136.222 123.123 136.041C123.674 135.61 123.772 134.813 123.34 134.263C120.078 130.095 114.944 130.749 114.726 130.779C114.709 130.782 114.691 130.785 114.673 130.788L103.281 132.855C102.388 132.121 101.485 131.457 100.585 130.857C100.597 130.188 100.604 129.392 100.642 128.983C100.703 128.321 100.781 127.669 100.877 127.028C102.161 118.44 106.567 111.751 113.994 107.128C120.004 103.387 125.855 102.46 125.954 102.445C126.026 102.434 126.146 102.419 126.282 102.4C133.364 114.915 137.774 132.739 138.178 138.575V150.114H66.8209V150.115ZM138.178 52.8854V74.7077H116.061C115.868 73.1589 115.69 71.7187 115.542 70.5054C115.083 66.7503 113.534 63.3721 111.063 60.7357C108.328 57.8171 105.037 56.3374 101.28 56.3374C93.1099 56.3374 89.9763 62.4071 89.4344 65.7073C88.6166 66.7722 86.9234 69.2961 86.1094 72.8403C85.9894 73.3629 85.8956 73.9973 85.8291 74.7074H66.8209V52.8851H138.178V52.8854Z"/>
</mask>
<path d="M64.2871 151.382C64.2871 152.081 64.8544 152.649 65.554 152.649H139.445C140.145 152.649 140.712 152.081 140.712 151.382V51.6185C140.712 50.9189 140.145 50.3516 139.445 50.3516H65.554C64.8544 50.3516 64.2871 50.9189 64.2871 51.6185V151.382ZM88.94 89.9782C88.2498 91.9625 88.3157 94.762 88.4357 96.4045C85.5181 96.9458 78.9479 99.5765 76.0363 112.158C75.1466 113.269 73.8604 114.455 72.5036 115.706C70.5864 117.472 68.509 119.389 66.8212 121.678V77.2415H85.7163C85.7075 81.7763 86.6174 87.6142 88.94 89.9782ZM138.178 125.803C135.718 116.68 131.521 105.053 125.757 96.7874C124.023 94.3021 120.158 90.9733 118.081 89.1848L117.98 89.0974C117.539 86.2241 116.927 81.5616 116.38 77.2418H138.178V125.803H138.178ZM98.0717 129.336C96.5325 128.491 95.0416 127.819 93.6709 127.291C93.6775 126.991 93.6591 126.671 93.6756 126.416C94.2372 117.806 99.3551 110.49 108.887 104.67C116.128 100.249 123.318 98.4154 123.39 98.397C123.497 98.3701 123.618 98.3502 123.744 98.3327C124.132 98.8924 124.513 99.4695 124.888 100.064C123.083 100.424 118.028 101.653 112.737 104.926C107.015 108.466 100.021 115.117 98.3321 126.922C98.2469 127.519 98.0819 129.128 98.0717 129.336ZM102.909 104.96C96.725 105.513 91.5954 102.692 89.6212 100.327C90.2369 97.9216 95.289 94.0592 98.9073 91.9561C99.3285 91.7113 99.5724 91.246 99.5337 90.7602L99.3187 88.0563C99.5119 88.0728 99.7057 88.0848 99.9005 88.0893L100.24 88.0956C102.63 88.1463 104.952 87.3225 106.769 85.7642L106.782 85.7534L107.37 102.631C106.21 103.346 105.107 104.088 104.066 104.855C103.559 104.893 103.122 104.941 102.909 104.96ZM93.9955 71.6988C93.9923 71.6988 93.9892 71.6988 93.9866 71.6988L92.3935 71.7099L91.9815 66.5153C91.9919 66.4922 92.0049 66.4694 92.0138 66.4456C92.8119 65.6978 94.71 64.1329 96.8071 63.9334C100.672 63.5647 105.423 64.1167 106.192 68.8112L106.669 82.5133L105.12 83.8398C103.778 84.9908 102.071 85.6014 100.293 85.5621L99.9524 85.5558C98.0344 85.5133 96.1822 84.6842 94.8712 83.2823C94.323 82.6939 93.8786 82.0196 93.5524 81.2803C93.2259 80.5367 93.0295 79.7559 92.968 78.9562L92.5943 74.2421L94.0037 74.2326C94.7034 74.2275 95.2668 73.6568 95.2621 72.9571C95.257 72.2603 94.691 71.6988 93.9955 71.6988ZM115.548 89.95C115.595 90.2455 115.744 90.5147 115.971 90.7105L116.428 91.1048C117.76 92.2517 120.125 94.2901 121.925 96.1721C120.019 96.7222 115.181 98.2745 109.856 101.186L109.223 83.0448C109.223 83.0378 109.222 83.0305 109.222 83.0236L108.722 68.6462C108.72 68.5965 108.716 68.5468 108.708 68.4974C107.914 63.3348 103.488 60.7538 96.5673 61.411C95.537 61.5092 94.5691 61.823 93.7032 62.2291C95.0404 60.5051 97.3433 58.8715 101.28 58.8715C104.308 58.8715 106.977 60.0817 109.214 62.4685C111.315 64.7096 112.633 67.5953 113.027 70.8132C113.67 76.0724 114.853 85.552 115.548 89.95ZM89.7251 70.1133L90.4422 79.1532C90.5252 80.2351 90.7909 81.2939 91.2337 82.3018C91.6755 83.3029 92.2757 84.2141 93.0194 85.0123C94.0509 86.1154 95.3305 86.9541 96.731 87.4761L96.9461 90.1812C96.0244 90.7513 94.3065 91.8605 92.5604 93.2294C91.9529 93.7057 91.4012 94.1688 90.8954 94.6214C90.8774 92.9031 91.0395 91.1159 91.577 90.2794C91.7715 89.9769 91.8285 89.6057 91.7331 89.2589C91.6378 88.9118 91.3996 88.622 91.0782 88.4608C88.8772 87.3602 87.5752 77.7812 88.5789 73.4082C88.8662 72.1558 89.2849 71.0467 89.7251 70.1133ZM66.8209 150.115V126.819C68.2953 123.036 71.4381 120.133 74.2202 117.569C75.2819 116.591 76.2985 115.65 77.167 114.714C78.4646 114.785 81.8685 115.199 82.8037 117.61C83.2912 119.906 84.2239 121.902 85.5849 123.51C85.8354 123.806 86.193 123.959 86.5528 123.959C86.842 123.959 87.1324 123.86 87.3706 123.659C87.9046 123.207 87.9711 122.408 87.5194 121.873C82.8284 116.33 85.9764 106.886 86.0087 106.791C86.2354 106.13 85.8836 105.41 85.2222 105.182C84.5578 104.954 83.8394 105.307 83.612 105.968C83.5743 106.079 82.6834 108.702 82.4576 112.137C82.4259 112.619 82.4126 113.091 82.4104 113.556C81.1425 112.819 79.7265 112.47 78.6056 112.307C80.7365 103.531 84.6797 100.454 87.2664 99.3776C87.1239 99.8068 87.0437 100.225 87.0282 100.631C87.0174 100.909 87.0988 101.183 87.2591 101.41C88.4506 103.098 90.611 104.719 93.1863 105.857C94.9343 106.629 97.5476 107.468 100.767 107.556C94.8963 112.904 91.6033 119.259 91.1475 126.251C91.144 126.306 91.138 126.363 91.131 126.419C88.5146 125.628 86.7191 125.412 86.5335 125.391C86.257 125.361 85.9729 125.423 85.7331 125.57C84.3525 126.413 83.4229 127.73 83.0451 129.377C82.6973 130.894 82.8544 132.591 83.4451 134.056C82.234 134.613 80.86 134.898 79.7743 135.045C77.1436 130.48 79.836 128.244 80.1749 127.989C80.7355 127.579 80.861 126.792 80.4543 126.227C80.0457 125.659 79.2536 125.531 78.686 125.939C77.0625 127.108 74.9379 130.328 76.8835 134.919C75.5036 134.378 73.3555 132.857 73.7204 128.661C73.8788 126.84 74.4967 125.493 75.5577 124.657C77.3213 123.267 79.8319 123.621 79.8658 123.627C80.5515 123.731 81.2011 123.263 81.311 122.574C81.4212 121.883 80.95 121.234 80.2592 121.124C80.1125 121.1 76.6609 120.58 74.0121 122.649C72.3661 123.935 71.4188 125.884 71.1961 128.441C70.4635 136.868 77.6377 137.721 77.7099 137.729C77.7542 137.734 82.6964 137.712 85.83 135.623C85.8848 135.586 87.1226 134.843 87.1226 134.843C87.3367 135.121 87.6227 135.479 87.9613 135.883L82.9542 138.515C82.5377 138.734 82.2767 139.166 82.2767 139.636V143.437C82.2767 144.136 82.844 144.704 83.5436 144.704C84.2433 144.704 84.8105 144.136 84.8105 143.437V140.401L89.7238 137.818C90.3772 138.48 91.1241 139.173 91.9491 139.851L87.6233 141.112C87.2464 141.222 86.9424 141.5 86.7986 141.865L85.0566 146.299C84.8004 146.951 85.1212 147.686 85.7724 147.942C85.9244 148.002 86.0815 148.03 86.2354 148.03C86.7413 148.03 87.2189 147.725 87.4149 147.226L88.9295 143.371L94.5678 141.728C95.487 142.291 96.4656 142.796 97.5001 143.194C97.6495 143.251 97.8032 143.279 97.9542 143.279C98.4632 143.279 98.9434 142.97 99.1369 142.466C99.388 141.813 99.0625 141.08 98.409 140.829C92.695 138.631 88.9057 133.122 88.869 133.068C88.5596 132.611 87.9907 132.406 87.4618 132.561L85.7803 133.056C85.4021 132.078 85.2913 130.92 85.5152 129.943C85.7056 129.114 86.105 128.454 86.7055 127.975C88.8484 128.325 98.1668 130.253 105.081 138.098C105.331 138.382 105.681 138.527 106.032 138.527C106.329 138.527 106.628 138.423 106.869 138.211C107.394 137.748 107.445 136.948 106.982 136.423C106.544 135.926 106.096 135.456 105.644 135.002L115.092 133.287C115.393 133.253 119.059 132.902 121.345 135.824C121.595 136.144 121.967 136.31 122.344 136.31C122.617 136.31 122.891 136.222 123.123 136.041C123.674 135.61 123.772 134.813 123.34 134.263C120.078 130.095 114.944 130.749 114.726 130.779C114.709 130.782 114.691 130.785 114.673 130.788L103.281 132.855C102.388 132.121 101.485 131.457 100.585 130.857C100.597 130.188 100.604 129.392 100.642 128.983C100.703 128.321 100.781 127.669 100.877 127.028C102.161 118.44 106.567 111.751 113.994 107.128C120.004 103.387 125.855 102.46 125.954 102.445C126.026 102.434 126.146 102.419 126.282 102.4C133.364 114.915 137.774 132.739 138.178 138.575V150.114H66.8209V150.115ZM138.178 52.8854V74.7077H116.061C115.868 73.1589 115.69 71.7187 115.542 70.5054C115.083 66.7503 113.534 63.3721 111.063 60.7357C108.328 57.8171 105.037 56.3374 101.28 56.3374C93.1099 56.3374 89.9763 62.4071 89.4344 65.7073C88.6166 66.7722 86.9234 69.2961 86.1094 72.8403C85.9894 73.3629 85.8956 73.9973 85.8291 74.7074H66.8209V52.8851H138.178V52.8854Z" fill="black"/>
<path d="M64.2871 151.382C64.2871 152.081 64.8544 152.649 65.554 152.649H139.445C140.145 152.649 140.712 152.081 140.712 151.382V51.6185C140.712 50.9189 140.145 50.3516 139.445 50.3516H65.554C64.8544 50.3516 64.2871 50.9189 64.2871 51.6185V151.382ZM88.94 89.9782C88.2498 91.9625 88.3157 94.762 88.4357 96.4045C85.5181 96.9458 78.9479 99.5765 76.0363 112.158C75.1466 113.269 73.8604 114.455 72.5036 115.706C70.5864 117.472 68.509 119.389 66.8212 121.678V77.2415H85.7163C85.7075 81.7763 86.6174 87.6142 88.94 89.9782ZM138.178 125.803C135.718 116.68 131.521 105.053 125.757 96.7874C124.023 94.3021 120.158 90.9733 118.081 89.1848L117.98 89.0974C117.539 86.2241 116.927 81.5616 116.38 77.2418H138.178V125.803H138.178ZM98.0717 129.336C96.5325 128.491 95.0416 127.819 93.6709 127.291C93.6775 126.991 93.6591 126.671 93.6756 126.416C94.2372 117.806 99.3551 110.49 108.887 104.67C116.128 100.249 123.318 98.4154 123.39 98.397C123.497 98.3701 123.618 98.3502 123.744 98.3327C124.132 98.8924 124.513 99.4695 124.888 100.064C123.083 100.424 118.028 101.653 112.737 104.926C107.015 108.466 100.021 115.117 98.3321 126.922C98.2469 127.519 98.0819 129.128 98.0717 129.336ZM102.909 104.96C96.725 105.513 91.5954 102.692 89.6212 100.327C90.2369 97.9216 95.289 94.0592 98.9073 91.9561C99.3285 91.7113 99.5724 91.246 99.5337 90.7602L99.3187 88.0563C99.5119 88.0728 99.7057 88.0848 99.9005 88.0893L100.24 88.0956C102.63 88.1463 104.952 87.3225 106.769 85.7642L106.782 85.7534L107.37 102.631C106.21 103.346 105.107 104.088 104.066 104.855C103.559 104.893 103.122 104.941 102.909 104.96ZM93.9955 71.6988C93.9923 71.6988 93.9892 71.6988 93.9866 71.6988L92.3935 71.7099L91.9815 66.5153C91.9919 66.4922 92.0049 66.4694 92.0138 66.4456C92.8119 65.6978 94.71 64.1329 96.8071 63.9334C100.672 63.5647 105.423 64.1167 106.192 68.8112L106.669 82.5133L105.12 83.8398C103.778 84.9908 102.071 85.6014 100.293 85.5621L99.9524 85.5558C98.0344 85.5133 96.1822 84.6842 94.8712 83.2823C94.323 82.6939 93.8786 82.0196 93.5524 81.2803C93.2259 80.5367 93.0295 79.7559 92.968 78.9562L92.5943 74.2421L94.0037 74.2326C94.7034 74.2275 95.2668 73.6568 95.2621 72.9571C95.257 72.2603 94.691 71.6988 93.9955 71.6988ZM115.548 89.95C115.595 90.2455 115.744 90.5147 115.971 90.7105L116.428 91.1048C117.76 92.2517 120.125 94.2901 121.925 96.1721C120.019 96.7222 115.181 98.2745 109.856 101.186L109.223 83.0448C109.223 83.0378 109.222 83.0305 109.222 83.0236L108.722 68.6462C108.72 68.5965 108.716 68.5468 108.708 68.4974C107.914 63.3348 103.488 60.7538 96.5673 61.411C95.537 61.5092 94.5691 61.823 93.7032 62.2291C95.0404 60.5051 97.3433 58.8715 101.28 58.8715C104.308 58.8715 106.977 60.0817 109.214 62.4685C111.315 64.7096 112.633 67.5953 113.027 70.8132C113.67 76.0724 114.853 85.552 115.548 89.95ZM89.7251 70.1133L90.4422 79.1532C90.5252 80.2351 90.7909 81.2939 91.2337 82.3018C91.6755 83.3029 92.2757 84.2141 93.0194 85.0123C94.0509 86.1154 95.3305 86.9541 96.731 87.4761L96.9461 90.1812C96.0244 90.7513 94.3065 91.8605 92.5604 93.2294C91.9529 93.7057 91.4012 94.1688 90.8954 94.6214C90.8774 92.9031 91.0395 91.1159 91.577 90.2794C91.7715 89.9769 91.8285 89.6057 91.7331 89.2589C91.6378 88.9118 91.3996 88.622 91.0782 88.4608C88.8772 87.3602 87.5752 77.7812 88.5789 73.4082C88.8662 72.1558 89.2849 71.0467 89.7251 70.1133ZM66.8209 150.115V126.819C68.2953 123.036 71.4381 120.133 74.2202 117.569C75.2819 116.591 76.2985 115.65 77.167 114.714C78.4646 114.785 81.8685 115.199 82.8037 117.61C83.2912 119.906 84.2239 121.902 85.5849 123.51C85.8354 123.806 86.193 123.959 86.5528 123.959C86.842 123.959 87.1324 123.86 87.3706 123.659C87.9046 123.207 87.9711 122.408 87.5194 121.873C82.8284 116.33 85.9764 106.886 86.0087 106.791C86.2354 106.13 85.8836 105.41 85.2222 105.182C84.5578 104.954 83.8394 105.307 83.612 105.968C83.5743 106.079 82.6834 108.702 82.4576 112.137C82.4259 112.619 82.4126 113.091 82.4104 113.556C81.1425 112.819 79.7265 112.47 78.6056 112.307C80.7365 103.531 84.6797 100.454 87.2664 99.3776C87.1239 99.8068 87.0437 100.225 87.0282 100.631C87.0174 100.909 87.0988 101.183 87.2591 101.41C88.4506 103.098 90.611 104.719 93.1863 105.857C94.9343 106.629 97.5476 107.468 100.767 107.556C94.8963 112.904 91.6033 119.259 91.1475 126.251C91.144 126.306 91.138 126.363 91.131 126.419C88.5146 125.628 86.7191 125.412 86.5335 125.391C86.257 125.361 85.9729 125.423 85.7331 125.57C84.3525 126.413 83.4229 127.73 83.0451 129.377C82.6973 130.894 82.8544 132.591 83.4451 134.056C82.234 134.613 80.86 134.898 79.7743 135.045C77.1436 130.48 79.836 128.244 80.1749 127.989C80.7355 127.579 80.861 126.792 80.4543 126.227C80.0457 125.659 79.2536 125.531 78.686 125.939C77.0625 127.108 74.9379 130.328 76.8835 134.919C75.5036 134.378 73.3555 132.857 73.7204 128.661C73.8788 126.84 74.4967 125.493 75.5577 124.657C77.3213 123.267 79.8319 123.621 79.8658 123.627C80.5515 123.731 81.2011 123.263 81.311 122.574C81.4212 121.883 80.95 121.234 80.2592 121.124C80.1125 121.1 76.6609 120.58 74.0121 122.649C72.3661 123.935 71.4188 125.884 71.1961 128.441C70.4635 136.868 77.6377 137.721 77.7099 137.729C77.7542 137.734 82.6964 137.712 85.83 135.623C85.8848 135.586 87.1226 134.843 87.1226 134.843C87.3367 135.121 87.6227 135.479 87.9613 135.883L82.9542 138.515C82.5377 138.734 82.2767 139.166 82.2767 139.636V143.437C82.2767 144.136 82.844 144.704 83.5436 144.704C84.2433 144.704 84.8105 144.136 84.8105 143.437V140.401L89.7238 137.818C90.3772 138.48 91.1241 139.173 91.9491 139.851L87.6233 141.112C87.2464 141.222 86.9424 141.5 86.7986 141.865L85.0566 146.299C84.8004 146.951 85.1212 147.686 85.7724 147.942C85.9244 148.002 86.0815 148.03 86.2354 148.03C86.7413 148.03 87.2189 147.725 87.4149 147.226L88.9295 143.371L94.5678 141.728C95.487 142.291 96.4656 142.796 97.5001 143.194C97.6495 143.251 97.8032 143.279 97.9542 143.279C98.4632 143.279 98.9434 142.97 99.1369 142.466C99.388 141.813 99.0625 141.08 98.409 140.829C92.695 138.631 88.9057 133.122 88.869 133.068C88.5596 132.611 87.9907 132.406 87.4618 132.561L85.7803 133.056C85.4021 132.078 85.2913 130.92 85.5152 129.943C85.7056 129.114 86.105 128.454 86.7055 127.975C88.8484 128.325 98.1668 130.253 105.081 138.098C105.331 138.382 105.681 138.527 106.032 138.527C106.329 138.527 106.628 138.423 106.869 138.211C107.394 137.748 107.445 136.948 106.982 136.423C106.544 135.926 106.096 135.456 105.644 135.002L115.092 133.287C115.393 133.253 119.059 132.902 121.345 135.824C121.595 136.144 121.967 136.31 122.344 136.31C122.617 136.31 122.891 136.222 123.123 136.041C123.674 135.61 123.772 134.813 123.34 134.263C120.078 130.095 114.944 130.749 114.726 130.779C114.709 130.782 114.691 130.785 114.673 130.788L103.281 132.855C102.388 132.121 101.485 131.457 100.585 130.857C100.597 130.188 100.604 129.392 100.642 128.983C100.703 128.321 100.781 127.669 100.877 127.028C102.161 118.44 106.567 111.751 113.994 107.128C120.004 103.387 125.855 102.46 125.954 102.445C126.026 102.434 126.146 102.419 126.282 102.4C133.364 114.915 137.774 132.739 138.178 138.575V150.114H66.8209V150.115ZM138.178 52.8854V74.7077H116.061C115.868 73.1589 115.69 71.7187 115.542 70.5054C115.083 66.7503 113.534 63.3721 111.063 60.7357C108.328 57.8171 105.037 56.3374 101.28 56.3374C93.1099 56.3374 89.9763 62.4071 89.4344 65.7073C88.6166 66.7722 86.9234 69.2961 86.1094 72.8403C85.9894 73.3629 85.8956 73.9973 85.8291 74.7074H66.8209V52.8851H138.178V52.8854Z" stroke="black" stroke-width="0.8" mask="url(#path-6-outside-1)"/>
</svg>
