<svg width="18" height="9" viewBox="0 0 18 9" fill="none" xmlns="http://www.w3.org/2000/svg">
<path d="M13.957 0.207031C15.1055 0.230469 16.0547 0.628906 16.8047 1.40234C17.5781 2.15234 17.9766 3.10156 18 4.25C17.9766 5.39844 17.5781 6.34766 16.8047 7.09766C16.0547 7.84766 15.1055 8.24609 13.957 8.29297C12.832 8.26953 11.8711 7.87109 11.0742 7.09766L9 5.26953L6.89062 7.13281C6.51562 7.50781 6.08203 7.80078 5.58984 8.01172C5.09766 8.19922 4.58203 8.29297 4.04297 8.29297C2.89453 8.26953 1.93359 7.88281 1.16016 7.13281C0.410156 6.35938 0.0234375 5.39844 0 4.25C0.0234375 3.10156 0.410156 2.15234 1.16016 1.40234C1.93359 0.628906 2.89453 0.230469 4.04297 0.207031C5.16797 0.230469 6.12891 0.628906 6.92578 1.40234L9 3.23047L11.1094 1.36719C11.4844 0.992187 11.918 0.710937 12.4102 0.523438C12.9023 0.3125 13.418 0.207031 13.957 0.207031ZM5.83594 6.04297L7.875 4.25L5.87109 2.49219C5.35547 1.97656 4.73438 1.73047 4.00781 1.75391C3.30469 1.75391 2.70703 1.98828 2.21484 2.45703C1.74609 2.92578 1.51172 3.52344 1.51172 4.25C1.51172 4.97656 1.74609 5.57422 2.21484 6.04297C2.70703 6.51172 3.30469 6.75781 4.00781 6.78125C4.73438 6.78125 5.34375 6.53516 5.83594 6.04297ZM12.1641 2.45703L10.125 4.25L12.1289 6.00781C12.6445 6.52344 13.2539 6.78125 13.957 6.78125C14.6836 6.75781 15.2812 6.51172 15.75 6.04297C16.2422 5.57422 16.4883 4.97656 16.4883 4.25C16.4883 3.52344 16.2422 2.92578 15.75 2.45703C15.2812 1.98828 14.6836 1.75391 13.957 1.75391C13.2539 1.73047 12.6562 1.96484 12.1641 2.45703Z" fill="#A1ACBD"/>
</svg>
