<svg width="64" height="64" viewBox="0 0 64 64" fill="none" xmlns="http://www.w3.org/2000/svg">
<path d="M0 32C0 49.6731 14.3269 64 32 64C49.6731 64 64 49.6731 64 32C64 14.3269 49.6731 0 32 0C14.3269 0 0 14.3269 0 32Z" fill="#11131A"/>
<path d="M46.5613 16.1249L11.8072 29.6624C10.6815 30.1009 10.7497 31.7156 11.9085 32.0576L20.7399 34.6643L24.0357 45.118C24.38 46.2099 25.7644 46.5409 26.5657 45.7231L31.1318 41.0629L40.0908 47.6362C41.1871 48.4406 42.7486 47.8429 43.0269 46.5123L48.9606 18.1559C49.2511 16.7669 47.884 15.6097 46.5613 16.1249ZM42.204 22.4179L26.061 36.6871C25.9001 36.8294 25.7977 37.0262 25.7737 37.2396L25.1522 42.7622C25.1319 42.9424 24.8797 42.9662 24.8259 42.7931L22.2688 34.5569C22.1517 34.1799 22.3044 33.7713 22.64 33.5633L41.7033 21.7451C42.1417 21.4732 42.5905 22.0764 42.204 22.4179Z" fill="white"/>
</svg>
