<svg width="41" height="42" viewBox="0 0 41 42" fill="none" xmlns="http://www.w3.org/2000/svg">
<circle cx="20.5" cy="21.1206" r="20.5" fill="#FF9801"/>
<path d="M21.3417 10.5738H13.1396C12.564 10.5738 12.0844 10.7657 11.7006 11.1494C11.3169 11.5331 11.1091 12.0128 11.0771 12.5884V28.9926C11.1091 29.5682 11.3169 30.0478 11.7006 30.4316C12.0844 30.8153 12.564 31.0072 13.1396 31.0072H20.2865C19.8708 30.7513 19.4871 30.4476 19.1353 30.0958C18.8155 29.776 18.5277 29.4083 18.2719 28.9926H13.1396V12.5884H20.2865V17.7207H25.4188V18.9198C26.1543 19.0797 26.8418 19.3675 27.4813 19.7832V16.7134L21.3417 10.5738ZM27.7691 27.8414C28.4406 26.7222 28.6325 25.5711 28.3447 24.3879C28.0889 23.1728 27.4014 22.2294 26.2822 21.5579C25.195 20.8544 24.0438 20.6466 22.8287 20.9344C21.6455 21.1902 20.7022 21.8777 19.9987 22.9969C19.3272 24.0841 19.1193 25.2193 19.3751 26.4025C19.6629 27.5856 20.3504 28.5449 21.4377 29.2804C22.1731 29.76 22.9726 29.9999 23.8359 29.9999C24.7313 29.9999 25.5627 29.76 26.3301 29.2804L29.4959 32.4461L30.9348 31.0072L27.7691 27.8414ZM23.8839 27.9374C23.1484 27.9374 22.5409 27.6975 22.0612 27.2179C21.5816 26.7382 21.3417 26.1307 21.3417 25.3952C21.3417 24.6597 21.5816 24.0521 22.0612 23.5725C22.5409 23.0928 23.1484 22.853 23.8839 22.853C24.6194 22.853 25.2269 23.0928 25.7066 23.5725C26.1863 24.0521 26.4261 24.6597 26.4261 25.3952C26.4261 26.1307 26.1863 26.7382 25.7066 27.2179C25.2269 27.6975 24.6194 27.9374 23.8839 27.9374Z" fill="white"/>
</svg>
