<svg width="150" height="150" viewBox="0 0 150 150" fill="none" xmlns="http://www.w3.org/2000/svg">
<g clip-path="url(#clip0)">
<path d="M14.397 52.4003C16.2945 53.7392 22.0142 57.716 31.5564 64.3284C41.099 70.9409 48.4092 76.0323 53.4874 79.6029C54.0453 79.9943 55.2307 80.8452 57.044 82.1566C58.8576 83.4688 60.3646 84.5293 61.5637 85.3382C62.7637 86.1468 64.2144 87.0539 65.9172 88.058C67.6194 89.0613 69.224 89.816 70.7307 90.3156C72.2376 90.8192 73.6326 91.0687 74.9159 91.0687H75H75.0844C76.3677 91.0687 77.7632 90.8189 79.2702 90.3156C80.7763 89.816 82.3823 89.0604 84.0831 88.058C85.7847 87.0527 87.2354 86.1465 88.4354 85.3382C89.6354 84.5293 91.1412 83.4688 92.9554 82.1566C94.7684 80.844 95.9553 79.9943 96.5132 79.6029C101.646 76.0323 114.705 66.9638 135.687 52.3985C139.76 49.5538 143.164 46.1212 145.897 42.1031C148.633 38.0868 150 33.8734 150 29.4654C150 25.7819 148.674 22.6287 146.023 20.0062C143.372 17.3831 140.233 16.0723 136.607 16.0723H13.3923C9.09571 16.0723 5.78919 17.5229 3.47334 20.4243C1.15778 23.3262 0 26.9535 0 31.3058C0 34.8213 1.53511 38.6309 4.60385 42.7323C7.6723 46.8339 10.9378 50.0569 14.397 52.4003Z" fill="#454B89"/>
<path d="M141.628 61.3558C123.327 73.7431 109.43 83.37 99.9446 90.2346C96.7638 92.5774 94.1835 94.4063 92.2019 95.7168C90.2203 97.0282 87.5849 98.3675 84.2918 99.734C81 101.103 77.9321 101.785 75.0856 101.785H75.0003H74.9161C72.0702 101.785 69.0006 101.103 65.7087 99.734C62.4169 98.3675 59.7797 97.0282 57.7987 95.7168C55.8182 94.4063 53.237 92.5774 50.0566 90.2346C42.5227 84.7105 28.6557 75.0829 8.4551 61.3558C5.27348 59.2367 2.45541 56.8077 0 54.0737V120.534C0 124.219 1.31082 127.371 3.93393 129.993C6.55645 132.617 9.70992 133.929 13.3932 133.929H136.608C140.29 133.929 143.444 132.617 146.066 129.993C148.69 127.37 150 124.219 150 120.534V54.0737C147.6 56.7511 144.811 59.1801 141.628 61.3558Z" fill="#454B89"/>
</g>
<defs>
<clipPath id="clip0">
<rect width="150" height="150" fill="white"/>
</clipPath>
</defs>
</svg>
