<svg width="157" height="32" viewBox="0 0 157 32" fill="none" xmlns="http://www.w3.org/2000/svg">
<path d="M18.4 0C18.4 0 19.36 4 19.36 7.2C19.36 10.24 17.2801 12.8 14.24 12.8C11.1999 12.8 8.8 10.24 8.8 7.2V6.72C5.76 10.4 4 15.04 4 20C4 26.56 9.44 32 16 32C22.56 32 28 26.56 28 20C28 11.84 24.32 4.64 18.4 0ZM16 27.2C13.28 27.2 11.2 25.12 11.2 22.56C11.2 20.16 12.8 18.4 15.36 17.92C18.0801 17.4401 20.8 16.16 22.24 14.08C22.88 16 23.2 18.08 23.2 20.16C23.2 24 20 27.2 16 27.2Z" fill="#F95928"/>
<path d="M45.44 9.68H51.04C51.6533 9.68 52.2267 9.78 52.76 9.98C53.2933 10.1667 53.7533 10.4333 54.14 10.78C54.54 11.1133 54.8533 11.5067 55.08 11.96C55.3067 12.4133 55.42 12.9 55.42 13.42C55.42 14.18 55.2333 14.82 54.86 15.34C54.5 15.8467 54.0467 16.2333 53.5 16.5V16.66C54.2333 16.9267 54.82 17.3467 55.26 17.92C55.7133 18.48 55.94 19.18 55.94 20.02C55.94 20.6333 55.8133 21.1867 55.56 21.68C55.32 22.16 54.9867 22.5733 54.56 22.92C54.1333 23.2667 53.6333 23.5333 53.06 23.72C52.5 23.9067 51.8933 24 51.24 24H45.44V9.68ZM50.84 15.52C51.4667 15.52 51.9467 15.3533 52.28 15.02C52.6267 14.6733 52.8 14.2667 52.8 13.8C52.8 13.3333 52.6333 12.9333 52.3 12.6C51.9667 12.2667 51.5067 12.1 50.92 12.1H48.14V15.52H50.84ZM51.14 21.52C51.82 21.52 52.34 21.3533 52.7 21.02C53.06 20.6733 53.24 20.2333 53.24 19.7C53.24 19.1667 53.0533 18.7267 52.68 18.38C52.32 18.02 51.78 17.84 51.06 17.84H48.14V21.52H51.14ZM64.4781 22.72H64.3181C64.0115 23.2133 63.5981 23.6067 63.0781 23.9C62.5581 24.18 61.9648 24.32 61.2981 24.32C60.0581 24.32 59.1315 23.94 58.5181 23.18C57.9181 22.42 57.6181 21.4067 57.6181 20.14V14.2H60.2381V19.82C60.2381 20.5267 60.3915 21.0533 60.6981 21.4C61.0181 21.7333 61.4781 21.9 62.0781 21.9C62.4381 21.9 62.7515 21.8267 63.0181 21.68C63.2981 21.52 63.5315 21.3133 63.7181 21.06C63.9181 20.7933 64.0648 20.4867 64.1581 20.14C64.2648 19.78 64.3181 19.4 64.3181 19V14.2H66.9381V24H64.4781V22.72ZM69.1825 14.2H71.6425V15.56H71.8025C71.9225 15.32 72.0825 15.1 72.2825 14.9C72.4825 14.7 72.7025 14.5267 72.9425 14.38C73.1958 14.2333 73.4625 14.12 73.7425 14.04C74.0358 13.96 74.3225 13.92 74.6025 13.92C74.9492 13.92 75.2425 13.9533 75.4825 14.02C75.7358 14.0867 75.9492 14.1733 76.1225 14.28L75.4225 16.66C75.2625 16.58 75.0825 16.52 74.8825 16.48C74.6958 16.4267 74.4625 16.4 74.1825 16.4C73.8225 16.4 73.4958 16.4733 73.2025 16.62C72.9092 16.7533 72.6558 16.9467 72.4425 17.2C72.2425 17.4533 72.0825 17.7533 71.9625 18.1C71.8558 18.4333 71.8025 18.8 71.8025 19.2V24H69.1825V14.2ZM79.787 15.48H79.947C80.2537 14.9867 80.667 14.6 81.187 14.32C81.707 14.0267 82.3004 13.88 82.967 13.88C83.5804 13.88 84.1204 13.98 84.587 14.18C85.0537 14.38 85.4337 14.6667 85.727 15.04C86.0337 15.4 86.2604 15.84 86.407 16.36C86.567 16.8667 86.647 17.4333 86.647 18.06V24H84.027V18.38C84.027 17.6733 83.867 17.1533 83.547 16.82C83.2404 16.4733 82.787 16.3 82.187 16.3C81.827 16.3 81.507 16.38 81.227 16.54C80.9604 16.6867 80.727 16.8933 80.527 17.16C80.3404 17.4133 80.1937 17.72 80.087 18.08C79.9937 18.4267 79.947 18.8 79.947 19.2V24H77.327V14.2H79.787V15.48ZM95.7652 24V12.24H91.7652V9.68H102.465V12.24H98.4652V24H95.7652ZM107.104 13.88C107.864 13.88 108.557 14.0133 109.184 14.28C109.824 14.5333 110.37 14.8933 110.824 15.36C111.29 15.8133 111.65 16.36 111.904 17C112.17 17.64 112.304 18.34 112.304 19.1C112.304 19.86 112.17 20.56 111.904 21.2C111.65 21.84 111.29 22.3933 110.824 22.86C110.37 23.3133 109.824 23.6733 109.184 23.94C108.557 24.1933 107.864 24.32 107.104 24.32C106.344 24.32 105.644 24.1933 105.004 23.94C104.377 23.6733 103.83 23.3133 103.364 22.86C102.91 22.3933 102.55 21.84 102.284 21.2C102.03 20.56 101.904 19.86 101.904 19.1C101.904 18.34 102.03 17.64 102.284 17C102.55 16.36 102.91 15.8133 103.364 15.36C103.83 14.8933 104.377 14.5333 105.004 14.28C105.644 14.0133 106.344 13.88 107.104 13.88ZM107.104 21.9C107.437 21.9 107.757 21.84 108.064 21.72C108.384 21.5867 108.664 21.4 108.904 21.16C109.144 20.92 109.33 20.6267 109.464 20.28C109.61 19.9333 109.684 19.54 109.684 19.1C109.684 18.66 109.61 18.2667 109.464 17.92C109.33 17.5733 109.144 17.28 108.904 17.04C108.664 16.8 108.384 16.62 108.064 16.5C107.757 16.3667 107.437 16.3 107.104 16.3C106.757 16.3 106.43 16.3667 106.124 16.5C105.817 16.62 105.544 16.8 105.304 17.04C105.064 17.28 104.87 17.5733 104.724 17.92C104.59 18.2667 104.524 18.66 104.524 19.1C104.524 19.54 104.59 19.9333 104.724 20.28C104.87 20.6267 105.064 20.92 105.304 21.16C105.544 21.4 105.817 21.5867 106.124 21.72C106.43 21.84 106.757 21.9 107.104 21.9ZM113.89 9.68H116.51V17.48H116.63L119.91 14.2H123.15V14.36L119.51 17.9L123.45 23.84V24H120.35L117.67 19.7L116.51 20.84V24H113.89V9.68ZM133.482 21.64C133.029 22.44 132.415 23.0867 131.642 23.58C130.882 24.0733 129.949 24.32 128.842 24.32C128.095 24.32 127.402 24.1933 126.762 23.94C126.135 23.6733 125.589 23.3067 125.122 22.84C124.655 22.3733 124.289 21.8267 124.022 21.2C123.769 20.56 123.642 19.86 123.642 19.1C123.642 18.3933 123.769 17.7267 124.022 17.1C124.275 16.46 124.629 15.9067 125.082 15.44C125.535 14.96 126.069 14.58 126.682 14.3C127.309 14.02 127.995 13.88 128.742 13.88C129.529 13.88 130.229 14.0133 130.842 14.28C131.455 14.5333 131.969 14.8933 132.382 15.36C132.795 15.8133 133.109 16.3533 133.322 16.98C133.535 17.6067 133.642 18.2867 133.642 19.02C133.642 19.1133 133.642 19.1933 133.642 19.26C133.629 19.34 133.622 19.4133 133.622 19.48C133.609 19.5467 133.602 19.62 133.602 19.7H126.222C126.275 20.1 126.382 20.4467 126.542 20.74C126.715 21.02 126.922 21.26 127.162 21.46C127.415 21.6467 127.689 21.7867 127.982 21.88C128.275 21.96 128.575 22 128.882 22C129.482 22 129.975 21.8667 130.362 21.6C130.762 21.32 131.075 20.9733 131.302 20.56L133.482 21.64ZM131.102 17.84C131.089 17.6667 131.029 17.4733 130.922 17.26C130.829 17.0467 130.682 16.8467 130.482 16.66C130.295 16.4733 130.055 16.32 129.762 16.2C129.482 16.08 129.142 16.02 128.742 16.02C128.182 16.02 127.689 16.18 127.262 16.5C126.835 16.82 126.535 17.2667 126.362 17.84H131.102ZM137.775 15.48H137.935C138.242 14.9867 138.655 14.6 139.175 14.32C139.695 14.0267 140.289 13.88 140.955 13.88C141.569 13.88 142.109 13.98 142.575 14.18C143.042 14.38 143.422 14.6667 143.715 15.04C144.022 15.4 144.249 15.84 144.395 16.36C144.555 16.8667 144.635 17.4333 144.635 18.06V24H142.015V18.38C142.015 17.6733 141.855 17.1533 141.535 16.82C141.229 16.4733 140.775 16.3 140.175 16.3C139.815 16.3 139.495 16.38 139.215 16.54C138.949 16.6867 138.715 16.8933 138.515 17.16C138.329 17.4133 138.182 17.72 138.075 18.08C137.982 18.4267 137.935 18.8 137.935 19.2V24H135.315V14.2H137.775V15.48Z" fill="white"/>
</svg>
