<svg width="452" height="243" viewBox="0 0 452 243" fill="none" xmlns="http://www.w3.org/2000/svg">
<g opacity="0.5">
<path opacity="0.5" d="M206.994 166.321C193.774 166.406 180.555 166.831 167.389 169.122C162.405 169.971 157.529 171.838 152.544 172.602C142.575 174.13 132.823 176.93 122.8 178.204C114.728 179.222 106.655 179.901 98.6364 181.174C91.1056 182.447 82.7621 182.108 75.3396 180.071C69.8134 178.543 64.2871 177.694 58.8151 175.233C52.7471 172.517 46.1373 170.565 39.7984 170.65C30.7505 170.735 21.9736 170.735 13.3592 175.572C10.3251 177.27 6.58681 180.071 4.31131 183.55C-0.944027 191.613 -1.64835 211.898 3.60699 220.3C12.4923 234.474 31.4007 239.991 43.8076 240.245C57.4064 240.5 70.6802 238.972 84.2791 238.038C96.9569 237.19 109.581 236.002 122.313 236.002C148.264 236.086 174.162 236.002 200.059 233.37C224.439 230.909 248.82 231.758 273.2 231.758C298.177 231.758 322.99 232.097 347.804 237.19C358.64 239.396 369.638 240.16 380.474 241.773C390.226 243.131 399.545 241.773 409.243 240.5C417.37 239.396 425.442 236.256 432.865 230.824C438.716 226.496 449.173 213.256 450.961 202.986C455.999 174.299 380.041 174.978 368.392 175.063C355.335 175.148 342.224 175.827 329.167 175.063C323.695 174.724 318.277 173.111 312.913 171.329C307.604 169.547 302.24 169.971 296.822 169.207C274.284 166.067 251.691 166.491 229.099 166.491C221.73 166.321 214.362 166.237 206.994 166.321Z" fill="#EED5D5"/>
</g>
<path d="M372.772 87.2141L372.881 90.4547L367.084 92.5266L363.725 90.0297V86.311L366.975 86.0984L367.084 85.3016L368.113 84.6641L372.772 87.2141Z" fill="#E1CFB5"/>
<path d="M44.3149 21.7382C42.1477 20.7288 40.1431 19.4538 38.301 17.9663C37.7051 17.4882 37.0549 16.7976 37.2716 16.0538C37.4884 15.2038 38.6261 15.0444 39.5472 15.0976C41.2267 15.2569 42.8521 15.7351 44.3149 16.4788C44.6941 16.3726 44.2065 15.7882 44.3691 15.4694C44.4232 15.3101 44.6399 15.2569 44.8025 15.2569C47.1863 15.1507 48.1074 18.3382 48.9742 19.8788C47.2947 20.7288 45.561 20.782 44.0982 22.057L44.3149 21.7382Z" fill="#EFBFA5"/>
<path d="M147.038 59.7758C147.038 59.7758 150.072 60.2008 150.126 60.2008C151.264 60.3602 156.194 57.9164 157.277 57.332C157.873 57.0133 153.322 54.7289 152.835 54.6758C152.022 54.5164 150.072 55.4195 149.151 55.632L147.85 54.4102L145.9 55.5789L147.038 59.7758Z" fill="#EFBFA5"/>
<path d="M70.6021 184.567L70 188.197L78.7312 192.763L84 189.602L79.9355 185.504L71.2043 180.996L70.6021 184.567Z" fill="#161930"/>
<path d="M70.8082 183.982L75.6843 142.013L69.833 94.9977L71.1333 85.0102L97.1932 84.054L98.1143 100.31L93.7258 142.067L80.5 185.899L70.8082 183.982Z" fill="#161930"/>
<path d="M99.5 37.8357L112 39.3065L122.967 58.3132L147.727 54.7538L148.485 61.4475L120.421 70.6382L105.5 54.7538L99.5 37.8357Z" fill="#BABCBE"/>
<path d="M110.5 89.3146L114.5 131.478L110.5 185.576H101.365L97.9518 135.16L89.8792 84.6914L110.5 89.3146Z" fill="#161930"/>
<path d="M70.0001 97.159C70.0001 97.7434 70.5542 101.183 70.5001 103.042C70.3917 106.92 72.5372 107.323 74.0001 107.535H76.4429C82.0001 106.474 82.2942 105.41 85.3282 104.932C89.8792 104.135 94.5386 103.71 99.1438 103.657C104.182 103.604 111.442 103.042 111.442 103.042C113.664 102.724 112.656 99.5786 112.255 97.159C111.442 92.2562 112.255 93.7271 110.738 88.334C107.271 83.3934 110.738 58.9174 110.738 58.9174C110.413 57.8018 112.472 56.4288 112.255 55.26L112.255 55.259C111.984 53.825 111.713 52.3909 111.442 50.9038C111.334 50.0538 111.334 46.9194 110.738 46.3881C104.507 41.0225 118.5 38.8161 95.0804 37.4631C77.689 39.9069 67.5 42.7383 74.9801 48.9913C73.3547 52.285 72.6503 61.1882 72.0002 64.8007C71.2417 69.157 71.0417 79.075 70.4999 83.4313C70.4998 88.8243 70.1085 92.2184 70.0001 97.159Z" fill="#BABCBE"/>
<path d="M101.419 188.17L110.425 191.526L115 188.275L110.497 184.971L101.419 184.918V188.17Z" fill="#161930"/>
<path d="M93.509 39.5883C92.8047 40.2258 90.8543 40.9695 88.5788 40.8101C88.0912 40.757 87.7119 40.4914 87.6036 40.0132C87.2243 38.7914 86.9534 37.5164 86.7367 36.2414C85.003 36.1882 82.9984 35.9226 82.2399 34.4351C82.0232 33.957 81.9148 33.4257 81.8606 32.8945C81.5897 30.7163 81.3188 28.5382 80.9938 26.3601C80.8854 25.6163 80.7771 24.8195 80.9938 24.1288C81.373 22.8538 82.5649 21.9507 83.7569 21.3663C86.8451 19.8257 90.5834 19.4538 93.7799 20.7819C94.6468 21.1538 95.4595 21.6319 96.0012 22.3226C96.8681 23.4382 96.9223 24.9257 96.9765 26.307C97.0306 27.582 97.0848 28.857 97.139 30.132C97.1932 31.6195 97.139 33.3195 96.0012 34.2226C95.3511 34.7007 94.4842 34.8601 93.9966 35.4976C93.0756 36.6132 93.7257 38.2601 93.509 39.5883Z" fill="#EFBFA5"/>
<path d="M79.0582 40.827L65.4052 44.2801L48.9349 19.2051L42 21.0113L53.5401 57.1364L80.196 60.2708L79.0582 40.827Z" fill="#BABCBE"/>
<path d="M378.8 181.246C379.529 180.608 380.391 180.236 381.386 180.342C382.314 180.449 383.176 180.98 383.508 181.617C383.773 182.096 383.839 182.574 383.906 183.105C384.171 185.708 384.171 191.871 379.795 192.774C378.004 193.146 376.479 192.136 376.015 190.808C375.22 188.896 376.347 183.424 378.8 181.246Z" fill="#161930"/>
<path d="M376.998 141.986L377.161 157.871C376.944 164.936 378.082 172.002 377.865 179.067C377.811 180.714 377.378 182.414 377.811 184.008C378.244 185.602 379.545 185.867 380.845 185.071C382.633 184.008 382.362 181.511 382.633 179.705C383.446 174.711 384.421 169.771 385.288 164.777C385.721 162.333 384.854 158.933 385.017 156.436L387.617 143.155L376.998 141.986Z" fill="#F4C7B3"/>
<path d="M395.473 114.66L388.43 142.88L385 180.016H375L372.718 94.7048L394.39 95.0961L395.473 114.66Z" fill="#161930"/>
<path d="M361.44 180.661C362.223 180.023 363.071 179.758 363.984 179.917C364.898 180.077 365.68 180.608 366.006 181.298C366.267 181.777 366.267 182.308 366.267 182.786C366.398 185.389 366.072 191.605 361.767 192.295C359.94 192.561 358.57 191.499 358.114 190.17C357.592 188.152 358.896 182.733 361.44 180.661Z" fill="#161930"/>
<path d="M368.167 144.217L367.246 160.049C367.192 164.458 366.596 168.814 366.108 173.17C365.675 177.208 366.325 181.458 364.158 185.177C363.454 186.345 362.099 187.089 361.124 185.708C360.365 184.645 360.799 182.839 360.691 181.564C360.095 176.517 359.39 171.524 358.794 166.53C358.469 164.086 359.499 160.686 359.444 158.189L357.494 144.802L368.167 144.217Z" fill="#F4C7B3"/>
<path d="M354.027 112.846L353.106 140.122L357.5 178.67L370 180.016L368.709 138.177L374.723 113.429L376.782 97.2385L358.74 95.3423L354.027 112.846Z" fill="#161930"/>
<path d="M368.813 34.3545L390 34.4035L398 54.9951L396.792 73.6671L396.053 96.7234L366.994 97.0952L357.44 95.6078L359.942 71.0108L358.52 38.1795L368.813 34.3545Z" fill="#FFD34B"/>
<path d="M370.906 15.6359C374.752 7.66712 385.534 11.9171 387.051 19.5671C388.026 24.5609 383.529 30.4047 378.274 31.2547C378.22 31.4672 377.678 33.0609 377.678 33.2203C377.57 34.0172 377.407 34.7609 377.19 35.5047C377.136 35.7703 372.748 34.4953 372.26 34.3359C372.097 34.2828 371.881 34.2297 371.827 34.0703C371.664 33.7516 372.585 31.5734 372.639 31.2547C372.693 30.8828 372.802 30.564 372.856 30.1922C370.472 28.7047 369.172 25.9953 369.009 23.339C368.901 20.6296 369.768 18.0265 370.906 15.6359Z" fill="#F4C7B3"/>
<path d="M369 33.9295L364.5 34.8938C364.5 34.8938 345.437 40.4639 344.613 39.9858C343.789 39.5608 330.332 13.4763 330.332 13.4763L323.741 15.5482L331.98 45.3514L339.944 53.3202L362.464 49.7076L369 33.9295Z" fill="#FFD34B"/>
<path d="M324.716 15.1764C324.716 15.1764 322.982 12.6795 322.982 12.6264C322.332 11.6702 323.253 7.95141 323.307 6.78265C323.362 6.09202 326.612 7.47328 326.883 7.89828C327.371 8.58891 327.371 10.7139 327.587 11.5639L329.267 12.2014L329.05 14.4327L324.716 15.1764Z" fill="#F4C7B3"/>
<path d="M97.7444 17.6619C97.5 17.244 97.3362 17.244 97 16.7537C96.1558 15.5228 96.5 15.7731 95 14.7926C94.6343 14.2151 95.0394 14.3322 94.3038 13.8438C93.826 13.519 94.0266 13.3751 93.4175 13.3412C91.3599 13.2565 91.5001 13.3218 90.1978 13.6154C88.4762 14.3251 88.8808 13.9954 88.066 14.2151C86.1295 14.0179 84.9581 14.4599 83.2659 15.3203C81.4561 16.2339 79.1458 16.7939 77.5922 17.9007C76.9538 18.3724 76.829 19.8921 76.5229 20.5612C76.3714 23.1779 77.689 24.1383 78.1197 26.3698C78.6321 26.7562 79.0312 27.9399 79.6249 28.2414C80.8105 28.8741 80.5972 29.8545 82.0058 29.9328C81.7529 29.0238 81.5821 25.2797 82.2065 24.3896C83.2062 22.9537 86.5391 22.7812 88.3734 22.7639C90.3617 22.7253 92.4178 23.496 94.3733 23.3661C95.7905 23.2958 96.7444 22.2747 97.7444 21.4951C98.5 20.1856 98 18.7148 97.7444 17.6619Z" fill="#19192F"/>
<path d="M380.574 89.2859C379.382 90.4547 377.757 91.4641 376.077 91.2516C375.427 91.1453 374.777 91.0391 374.073 90.9328C373.531 90.8266 373.043 90.6672 372.61 90.3484C372.177 90.0297 371.96 89.4453 372.122 88.9141C372.393 88.2234 373.26 88.011 373.91 87.6391C374.723 87.161 375.211 86.311 375.861 85.6203C377.324 84.0266 379.274 83.8672 381.116 83.0172C381.224 82.9641 382.2 84.0797 382.308 84.186C382.958 84.9297 383.012 85.0891 382.633 85.9922C382.2 87.1609 381.495 88.3828 380.574 89.2859Z" fill="#F4C7B3"/>
<path d="M389.603 33.9133L405.37 57.5009L403.04 70.5697L378.605 87.1978L374 83.2665L390.308 63.0259L389.712 50.2227L389.603 33.9133Z" fill="#FFD34B"/>
<path d="M381.928 34.2482L375.915 42.5888L373.097 42.3763L368.384 33.9294L381.928 34.2482Z" fill="#F9F9F9"/>
<ellipse cx="182.528" cy="170.48" rx="33.948" ry="29.52" fill="#FDC002"/>
<ellipse cx="182.5" cy="148.5" rx="33.5" ry="32.5" fill="#FDC002"/>
<path d="M162.227 191.819C154.481 175.896 158.606 166.772 164.559 158.176C171.078 148.762 172.759 139.443 172.759 139.443C172.759 139.443 177.883 146.025 175.833 156.319C184.887 146.362 186.596 130.498 185.229 124.423C205.694 138.552 214.44 169.146 202.653 191.819C265.345 156.776 218.247 104.34 210.047 98.4334C212.781 104.34 213.299 114.339 207.778 119.191C198.431 84.1761 175.321 77 175.321 77C178.054 95.0575 165.413 114.803 153.224 129.558C152.796 122.357 152.341 117.389 148.508 110.498C147.648 123.579 137.529 134.241 134.789 147.347C131.078 165.095 137.569 178.09 162.227 191.819Z" fill="#F95928"/>
<path d="M184.824 192.189C175.376 193.151 157.677 202.588 150.008 207.186C152.551 209.031 158.191 213.014 160.411 214.19C163.187 215.661 180.926 201.935 183.937 201.044C186.949 200.153 207.971 194.507 212.021 194.912C215.262 195.237 228.276 190.18 234.378 187.611L230.458 180.064C222.986 182.694 207.556 188.145 205.609 188.904C203.176 189.853 196.634 190.987 184.824 192.189Z" fill="#292949"/>
<path d="M170.452 190.421C162.897 187.028 145.413 186.437 137.616 186.566C138.732 189.068 141.256 194.536 142.42 196.393C143.874 198.713 163.258 196.082 165.921 196.722C168.584 197.363 186.924 202.265 189.807 204.338C192.113 205.996 204.147 207.852 209.876 208.572L210.206 201.162C203.416 199.891 189.385 197.279 187.584 197.004C185.332 196.66 179.896 194.663 170.452 190.421Z" fill="#292949"/>
<path d="M191.057 201.609C199.234 202.931 216.274 198.976 223.772 196.834C222.047 194.706 218.194 190.077 216.589 188.585C214.583 186.72 196.541 194.279 193.803 194.35C191.065 194.42 172.081 194.432 168.76 193.176C166.104 192.171 153.999 193.493 148.279 194.28L149.878 201.523C156.766 200.993 170.995 199.885 172.806 199.684C175.07 199.434 180.837 199.956 191.057 201.609Z" fill="#292949"/>
<path d="M256.269 217.816L264.407 218.807L265.063 215.677L262.305 212.965L256.445 212.7L256.269 217.816Z" fill="#292949"/>
<path d="M261.641 120.302L265.271 154.933L263.5 213.119H256.169L249.56 160.681L240.403 116.291L261.641 120.302Z" fill="#353A85"/>
<path d="M225.45 118.171L224.258 142.127L227.78 213.341H237L241.433 166.918L247.5 114.33L225.45 118.171Z" fill="#353A85"/>
<path d="M233.035 217.87L225.071 218.227L224.258 215.725L227.346 212.626L233.252 212.924L233.035 217.87Z" fill="#292949"/>
<path d="M264.743 54.9133H225.917C225.917 54.9133 215.917 49.5713 221.917 78.0581C221.917 92.6121 222.188 105.263 221.917 119.28C222.296 121.304 219.966 120.925 229.417 123.357C247.917 123.357 254.549 122.092 261.917 123.357C266.417 121.022 262.567 116.454 261.917 110.281V93.4689L264.743 54.9133Z" fill="#717DDB"/>
<path d="M253.894 34.3291C249.614 33.4259 245.171 32.576 240.891 33.426C239.97 33.5853 238.94 33.9041 238.453 34.701C238.236 35.0197 238.128 35.3916 238.074 35.7103C236.99 39.6416 235.636 45.5385 238.29 49.151C238.778 49.8416 239.482 50.3729 240.187 50.851C241.162 51.4354 242.245 51.8604 243.383 52.0729C243.166 53.0291 242.841 54.0385 242.408 54.9417C243.383 56.376 247.988 56.5885 248.801 55.1542C248.855 53.9323 248.909 52.7635 248.964 51.5416C249.505 51.3291 250.047 51.0635 250.589 50.7448C252.539 49.4698 253.84 47.5572 254.598 45.4322C255.411 43.0947 256.549 40.8635 257.307 38.4729C257.578 37.6228 257.795 36.6135 257.307 35.8166C256.819 34.9666 255.736 34.701 254.761 34.4885C254.436 34.4353 254.165 34.3822 253.894 34.3291Z" fill="#C17E72"/>
<path d="M253.946 47.2982C255.59 45.2782 257.537 42.4294 257.667 39.8915C257.797 37.7679 257.537 34.8674 256.542 33.0545C255.59 31.3453 253.21 30.413 251.826 29.3771C250.485 28.4448 249.143 27.5125 247.802 26.5801C247.542 26.373 247.24 26.1658 246.937 26.114C246.547 26.0104 246.158 26.1658 245.812 26.2694C242.653 27.2535 241.743 28.9182 238.584 29.9023C237.978 30.1095 236.804 30.663 236.588 31.3363C236.458 31.7507 235.99 32.5884 236.077 33.0545C236.077 35.1603 235.904 35.6961 236.077 37.6643C236.336 39.2181 236.293 40.6166 237.245 41.7561C238.153 42.8438 239.365 43.4135 240.057 44.7602C240.576 45.6925 240.793 46.8838 241.182 47.8679C243.043 52.5295 250.528 51.2864 253.081 48.3341C253.383 47.9715 253.686 47.6607 253.946 47.2982Z" fill="#454B89"/>
<path d="M259.477 55.5048L272.235 44.1164L272.455 10.4329L277.78 8.64813L285.53 43.2258L280.83 53.2762L263.343 72.5796L259.477 55.5048Z" fill="#717DDB"/>
<path d="M277.143 8.86716C277.143 8.86716 277.398 5.84942 277.403 5.79647C277.497 4.68467 274.855 1.85742 274.18 0.842888C273.793 0.278281 271.657 3.03624 271.562 3.50833C271.436 4.35102 272.53 6.19927 272.783 7.07274L271.636 8.41865L272.945 10.2845L277.143 8.86716Z" fill="#C17E72"/>
<path d="M226.602 55.4167L213.382 44.6323L211.648 10.951L206.285 9.4104L200 44.3136L205.201 54.1417L223.459 72.6292L226.602 55.4167Z" fill="#717DDB"/>
<path d="M207.441 9.77758C207.441 9.77758 207.062 6.80257 207.007 6.74945C206.845 5.63382 209.391 2.65883 209.987 1.64946C210.312 1.06508 212.642 3.72133 212.696 4.19945C212.859 4.99633 211.884 6.90882 211.667 7.81195L212.859 9.08696L211.667 10.9994L207.441 9.77758Z" fill="#C17E72"/>
<g clip-path="url(#clip0)">
<path d="M379.219 6.47636C379.804 7.17652 379.979 8.16842 380.038 9.04362C380.096 9.56874 380.155 10.1522 379.979 10.619C379.336 12.6611 377.289 12.311 375.593 12.7778C373.546 13.3613 371.674 14.7033 370.388 16.337C368.399 18.9042 368.75 22.4634 369.159 25.5558C369.276 26.6644 369.627 28.2981 368.692 29.1149C367.756 29.9901 365.826 29.6401 364.89 28.9982C364.013 28.4731 363.369 27.5396 362.375 27.2478C361.322 26.9561 359.86 27.2478 359.451 26.2559C359.334 25.9642 359.392 25.6141 359.217 25.3807C358.69 24.5055 357.17 25.3224 356.351 24.6222C355.883 24.2138 355.942 23.4553 356.234 22.8135C356.468 22.23 356.819 21.6465 356.76 21.0047C356.702 20.4796 356.351 20.0128 356.176 19.4877C355.825 18.4958 356.117 17.2122 356.877 16.512C358.34 15.17 360.854 15.7535 362.434 14.4699C363.252 13.8281 363.662 12.7778 364.013 11.7859C364.422 10.794 364.831 9.74378 365.709 9.16031C366.762 8.4018 368.165 8.69354 369.218 7.81833C369.861 7.29321 370.329 6.5347 370.973 6.12628C371.85 5.54281 373.546 5.19273 374.599 4.95934C376.353 4.55091 378.108 5.07603 379.219 6.47636Z" fill="#161930"/>
<path d="M385.302 21.8217C385.009 24.8557 383.196 27.8897 384.307 30.6904C385.419 33.491 388.869 34.3662 391.794 34.833C392.262 34.8914 398.461 36.1166 398.52 36C399.221 33.9578 399.923 31.8573 401.21 30.1653C402.497 28.4732 404.485 27.1312 406.591 27.2479C406.006 27.0729 405.772 26.3144 405.889 25.6726C406.006 25.0307 406.415 24.5056 406.649 23.9805C407.293 22.5802 407 20.7714 406.006 19.6628C404.017 17.3873 399.923 17.7957 398.227 15.2285C397.233 13.6531 397.584 11.4943 397.174 9.68553C396.356 6.06803 392.613 4.95944 389.981 3.09234C387.173 1.0502 384.483 -0.175087 380.915 -4.62085e-05C376.529 0.291688 372.903 4.31762 374.131 8.57694C375.71 14.0615 384.249 14.5283 385.243 20.0713C385.302 20.6547 385.36 21.2382 385.302 21.8217Z" fill="#161930"/>
</g>
<defs>
<clipPath id="clip0">
<rect width="51" height="36" fill="white" transform="translate(356)"/>
</clipPath>
</defs>
</svg>
