<svg width="36" height="36" viewBox="0 0 36 36" fill="none" xmlns="http://www.w3.org/2000/svg">
<circle cx="18" cy="18" r="18" fill="#FF9801"/>
<path d="M19.449 14.949H16.0896V13.2693H19.449V14.949ZM24.449 11.5896V24.949C24.4229 25.4177 24.2537 25.8083 23.9412 26.1208C23.6287 26.4333 23.238 26.5896 22.7693 26.5896H12.7693C12.3005 26.5896 11.9099 26.4333 11.5974 26.1208C11.2849 25.8083 11.1156 25.4177 11.0896 24.949V11.5896C11.1156 11.1208 11.2849 10.7302 11.5974 10.4177C11.9099 10.1052 12.3005 9.94897 12.7693 9.94897H22.7693C23.238 9.94897 23.6287 10.1052 23.9412 10.4177C24.2537 10.7302 24.4229 11.1208 24.449 11.5896ZM22.7693 19.0896H12.7693V24.949H22.7693V19.0896ZM22.7693 11.5896H12.7693V17.449H22.7693V11.5896ZM19.449 20.7693H16.0896V22.449H19.449V20.7693Z" fill="white"/>
</svg>
