<svg width="41" height="42" viewBox="0 0 41 42" fill="none" xmlns="http://www.w3.org/2000/svg">
<circle cx="20.5" cy="21.1206" r="20.5" fill="#FF9801"/>
<path d="M26.8984 17.7655C27.6536 18.5468 28.0312 19.4452 28.0312 20.4608C28.0312 21.4504 27.6536 22.3488 26.8984 23.1561L27.7578 24.0155C28.7995 22.9999 29.3203 21.828 29.3203 20.4999C29.3203 19.1718 28.7995 17.9738 27.7578 16.9061L26.8984 17.7655ZM26 18.6639L25.1797 19.4843C25.388 19.7968 25.4922 20.1223 25.4922 20.4608C25.4922 20.7994 25.388 21.1119 25.1797 21.3983L26 22.2577C26.4948 21.7369 26.7422 21.1509 26.7422 20.4999C26.7422 19.8488 26.4948 19.2369 26 18.6639ZM22.6797 11.3202H14.3203C13.8516 11.3462 13.4609 11.5155 13.1484 11.828C12.8359 12.1405 12.6797 12.5311 12.6797 12.9999V27.9999C12.6797 28.4686 12.8359 28.8593 13.1484 29.1718C13.4609 29.4843 13.8516 29.6535 14.3203 29.6796H22.6797C23.1484 29.6535 23.5391 29.4843 23.8516 29.1718C24.1641 28.8593 24.3203 28.4686 24.3203 27.9999V12.9999C24.3203 12.5311 24.1641 12.1405 23.8516 11.828C23.5391 11.5155 23.1484 11.3462 22.6797 11.3202ZM22.6797 27.1796H14.3203V13.8202H22.6797V27.1796Z" fill="white"/>
</svg>
