<svg width="60" height="60" viewBox="0 0 60 60" fill="none" xmlns="http://www.w3.org/2000/svg">
<circle cx="30" cy="30" r="30" fill="#FF9801" fill-opacity="0.2"/>
<circle cx="29.9998" cy="30" r="25.3846" fill="#FF9801" fill-opacity="0.4"/>
<circle cx="29.5" cy="30.1206" r="20.5" fill="#FF9801"/>
<path d="M35.8984 26.7655C36.6536 27.5468 37.0312 28.4452 37.0312 29.4608C37.0312 30.4504 36.6536 31.3488 35.8984 32.1561L36.7578 33.0155C37.7995 31.9999 38.3203 30.828 38.3203 29.4999C38.3203 28.1718 37.7995 26.9738 36.7578 25.9061L35.8984 26.7655ZM35 27.6639L34.1797 28.4843C34.388 28.7968 34.4922 29.1223 34.4922 29.4608C34.4922 29.7994 34.388 30.1119 34.1797 30.3983L35 31.2577C35.4948 30.7369 35.7422 30.1509 35.7422 29.4999C35.7422 28.8488 35.4948 28.2369 35 27.6639ZM31.6797 20.3202H23.3203C22.8516 20.3462 22.4609 20.5155 22.1484 20.828C21.8359 21.1405 21.6797 21.5311 21.6797 21.9999V36.9999C21.6797 37.4686 21.8359 37.8593 22.1484 38.1718C22.4609 38.4843 22.8516 38.6535 23.3203 38.6796H31.6797C32.1484 38.6535 32.5391 38.4843 32.8516 38.1718C33.1641 37.8593 33.3203 37.4686 33.3203 36.9999V21.9999C33.3203 21.5311 33.1641 21.1405 32.8516 20.828C32.5391 20.5155 32.1484 20.3462 31.6797 20.3202ZM31.6797 36.1796H23.3203V22.8202H31.6797V36.1796Z" fill="white"/>
</svg>
