<svg width="30" height="30" viewBox="0 0 30 30" fill="none" xmlns="http://www.w3.org/2000/svg">
<path d="M15 30C23.2843 30 30 23.2843 30 15C30 6.71573 23.2843 0 15 0C6.71573 0 0 6.71573 0 15C0 23.2843 6.71573 30 15 30Z" fill="#2D486F"/>
<path d="M15 30C23.2843 30 30 23.2843 30 15C30 6.71573 23.2843 0 15 0C6.71573 0 0 6.71573 0 15C0 23.2843 6.71573 30 15 30Z" fill="white" fill-opacity="0.15"/>
<path d="M21.6094 11.0508C21.6562 10.8867 21.6445 10.7578 21.5742 10.6641C21.5039 10.5469 21.3633 10.4883 21.1523 10.4883H19.6055C19.418 10.4883 19.2773 10.5352 19.1836 10.6289C19.0898 10.7227 19.0195 10.8164 18.9727 10.9102C18.9492 10.9805 18.7617 11.3555 18.4102 12.0352C18.082 12.7148 17.6484 13.3828 17.1094 14.0391C16.9219 14.2031 16.7695 14.3203 16.6523 14.3906C16.5586 14.4609 16.4766 14.4961 16.4062 14.4961C16.3359 14.4961 16.2656 14.4727 16.1953 14.4258C16.1484 14.3555 16.125 14.2383 16.125 14.0742V11.0508C16.1484 10.6758 16.0078 10.4883 15.7031 10.4883H13.3125C13.0781 10.5352 12.9492 10.6523 12.9258 10.8398C12.9492 11.0039 13.043 11.1797 13.207 11.3672C13.3945 11.5312 13.5 11.8477 13.5234 12.3164V14.5664C13.5234 14.8008 13.5 14.9648 13.4531 15.0586C13.4297 15.1289 13.3711 15.1641 13.2773 15.1641C12.9961 15.1172 12.5977 14.707 12.082 13.9336C11.5898 13.1602 11.1445 12.2109 10.7461 11.0859C10.6758 10.875 10.5938 10.7227 10.5 10.6289C10.4062 10.5352 10.2656 10.4883 10.0781 10.4883H8.53125C8.32031 10.4883 8.17969 10.5352 8.10938 10.6289C8.03906 10.7227 8.01562 10.8164 8.03906 10.9102C8.01562 11.1445 8.16797 11.7188 8.49609 12.6328C8.84766 13.5234 9.49219 14.6367 10.4297 15.9727C11.0625 16.8867 11.7891 17.5781 12.6094 18.0469C13.4297 18.5156 14.25 18.75 15.0703 18.75C15.5391 18.75 15.832 18.7031 15.9492 18.6094C16.0898 18.4922 16.1602 18.3398 16.1602 18.1523V16.7812C16.1602 16.5703 16.1836 16.4297 16.2305 16.3594C16.3008 16.2891 16.3945 16.2539 16.5117 16.2539C16.6289 16.2539 16.8047 16.3125 17.0391 16.4297C17.2734 16.5469 17.6133 16.8164 18.0586 17.2383C18.5508 17.7539 18.9023 18.1406 19.1133 18.3984C19.3242 18.6328 19.5703 18.75 19.8516 18.75H21.3633C21.8086 18.75 21.9844 18.5391 21.8906 18.1172C21.8203 17.8828 21.668 17.625 21.4336 17.3438C21.1992 17.0391 20.918 16.6992 20.5898 16.3242C20.4023 16.1133 20.2031 15.9141 19.9922 15.7266C19.7812 15.5156 19.6289 15.3516 19.5352 15.2344C19.4414 15.0938 19.3945 14.9766 19.3945 14.8828C19.418 14.7891 19.4648 14.6953 19.5352 14.6016C19.6289 14.4844 19.9453 14.0039 20.4844 13.1602C21.0469 12.293 21.4219 11.5898 21.6094 11.0508Z" fill="#EEF1F7"/>
</svg>
