<svg width="41" height="42" viewBox="0 0 41 42" fill="none" xmlns="http://www.w3.org/2000/svg">
<circle cx="20.5" cy="21.1207" r="20.5" fill="#FF9801"/>
<path d="M27.2999 11.804H25.3043C24.8798 11.804 24.4693 11.988 24.073 12.356C23.705 12.724 23.5069 13.1344 23.4786 13.5873H16.2605C16.2322 13.1344 16.0199 12.724 15.6236 12.356C15.2557 11.988 14.8594 11.804 14.4348 11.804H10.8257V19.9562C10.8257 20.4091 11.0097 20.8195 11.3777 21.1875C11.7457 21.5555 12.1561 21.7395 12.609 21.7395H14.6046C14.7745 22.6736 15.199 23.4803 15.8784 24.1596C16.5577 24.8107 17.5909 25.2211 18.9779 25.391V27.2592C17.9872 27.3724 17.2796 27.6555 16.855 28.1084C16.4304 28.5329 16.2322 29.0425 16.2605 29.6369V29.8916H23.4786V29.6369C23.5069 29.0425 23.3088 28.5329 22.8842 28.1084C22.4596 27.6555 21.7519 27.3724 20.7612 27.2592V25.391C22.1482 25.2211 23.1814 24.8107 23.8607 24.1596C24.5401 23.4803 24.9647 22.6736 25.1345 21.7395H27.1301C27.583 21.7395 27.9934 21.5555 28.3614 21.1875C28.7294 20.8195 28.9134 20.4091 28.9134 19.9562V11.804H27.2999ZM12.609 19.9562V13.5873H14.4348V19.9562H12.609ZM27.1301 19.9562H25.3043V13.5873H27.1301V19.9562Z" fill="white"/>
</svg>
