<svg width="60" height="60" viewBox="0 0 60 60" fill="none" xmlns="http://www.w3.org/2000/svg">
<circle cx="30" cy="30" r="30" fill="#FF9801" fill-opacity="0.2"/>
<circle cx="29.9998" cy="30" r="25.3846" fill="#FF9801" fill-opacity="0.4"/>
<circle cx="30.5" cy="30.1207" r="20.5" fill="#FF9801"/>
<path d="M31.2317 27.6957H36.4423L31.2317 22.5292V27.6957ZM24.6522 21.1162H32.2031L37.8553 26.7683V38.0727C37.8259 38.6026 37.6345 39.0442 37.2813 39.3974C36.928 39.7507 36.4864 39.9273 35.9565 39.9273H24.6522C24.1223 39.9273 23.6807 39.7507 23.3274 39.3974C22.9742 39.0442 22.7828 38.6026 22.7534 38.0727V22.9708C22.7828 22.4409 22.9742 21.9993 23.3274 21.6461C23.6807 21.2928 24.1223 21.1162 24.6522 21.1162ZM33.1304 36.1739V34.2751H24.6522V36.1739H33.1304ZM35.9565 32.4205V30.5217H24.6522V32.4205H35.9565Z" fill="white"/>
</svg>
