<svg width="60" height="60" viewBox="0 0 60 60" fill="none" xmlns="http://www.w3.org/2000/svg">
<circle cx="30" cy="30" r="30" fill="#FF9801" fill-opacity="0.2"/>
<circle cx="29.9998" cy="30" r="25.3846" fill="#FF9801" fill-opacity="0.4"/>
<circle cx="29.5" cy="30.1207" r="20.5" fill="#FF9801"/>
<path d="M36.2999 20.804H34.3043C33.8798 20.804 33.4693 20.988 33.073 21.356C32.705 21.724 32.5069 22.1344 32.4786 22.5873H25.2605C25.2322 22.1344 25.0199 21.724 24.6236 21.356C24.2557 20.988 23.8594 20.804 23.4348 20.804H19.8257V28.9562C19.8257 29.4091 20.0097 29.8195 20.3777 30.1875C20.7457 30.5555 21.1561 30.7395 21.609 30.7395H23.6046C23.7745 31.6736 24.199 32.4803 24.8784 33.1596C25.5577 33.8107 26.5909 34.2211 27.9779 34.391V36.2592C26.9872 36.3724 26.2796 36.6555 25.855 37.1084C25.4304 37.5329 25.2322 38.0425 25.2605 38.6369V38.8916H32.4786V38.6369C32.5069 38.0425 32.3088 37.5329 31.8842 37.1084C31.4596 36.6555 30.7519 36.3724 29.7612 36.2592V34.391C31.1482 34.2211 32.1814 33.8107 32.8607 33.1596C33.5401 32.4803 33.9647 31.6736 34.1345 30.7395H36.1301C36.583 30.7395 36.9934 30.5555 37.3614 30.1875C37.7294 29.8195 37.9134 29.4091 37.9134 28.9562V20.804H36.2999ZM21.609 28.9562V22.5873H23.4348V28.9562H21.609ZM36.1301 28.9562H34.3043V22.5873H36.1301V28.9562Z" fill="white"/>
</svg>
