<svg width="60" height="60" viewBox="0 0 60 60" fill="none" xmlns="http://www.w3.org/2000/svg">
<circle cx="30" cy="30" r="30" fill="#FF9801" fill-opacity="0.2"/>
<circle cx="29.9998" cy="30" r="25.3846" fill="#FF9801" fill-opacity="0.4"/>
<circle cx="29.5" cy="30.1207" r="20.5" fill="#FF9801"/>
<path d="M31.8477 34.3477H25.4023V32.5H31.8477V34.3477ZM34.5977 30.6523H25.4023V28.8477H34.5977V30.6523ZM34.5977 27H25.4023V25.1523H34.5977V27ZM36.4023 21.5H23.5977C23.0534 21.5 22.6094 21.6719 22.2656 22.0156C21.9219 22.3594 21.75 22.8034 21.75 23.3477V36.1523C21.75 36.668 21.9219 37.112 22.2656 37.4844C22.638 37.8281 23.082 38 23.5977 38H36.4023C36.918 38 37.3477 37.8281 37.6914 37.4844C38.0638 37.112 38.25 36.668 38.25 36.1523V23.3477C38.25 22.8034 38.0638 22.3594 37.6914 22.0156C37.3477 21.6719 36.918 21.5 36.4023 21.5Z" fill="white"/>
</svg>
