<svg width="30" height="30" viewBox="0 0 30 30" fill="none" xmlns="http://www.w3.org/2000/svg">
<path d="M15 30C23.2843 30 30 23.2843 30 15C30 6.71573 23.2843 0 15 0C6.71573 0 0 6.71573 0 15C0 23.2843 6.71573 30 15 30Z" fill="#2D486F"/>
<path d="M15 30C23.2843 30 30 23.2843 30 15C30 6.71573 23.2843 0 15 0C6.71573 0 0 6.71573 0 15C0 23.2843 6.71573 30 15 30Z" fill="white" fill-opacity="0.15"/>
<path d="M19.3594 14.8125C19.2656 14.5781 19.0781 14.4258 18.7969 14.3555C18.5156 14.2617 18.1758 14.3555 17.7773 14.6367C17.1914 15.0352 16.5938 15.2812 15.9844 15.375C15.375 15.4688 15.0469 15.5156 15 15.5156C14.9531 15.5156 14.625 15.4688 14.0156 15.375C13.4062 15.2812 12.8086 15.0352 12.2227 14.6367C11.8242 14.3555 11.4844 14.2617 11.2031 14.3555C10.9219 14.4258 10.7344 14.5781 10.6406 14.8125C10.4531 15.1641 10.4414 15.4688 10.6055 15.7266C10.793 15.9609 11.1328 16.2305 11.625 16.5352C12.0469 16.793 12.5039 16.9805 12.9961 17.0977C13.4883 17.2148 13.9219 17.2852 14.2969 17.3086L11.4492 20.1562C11.2617 20.3438 11.168 20.5547 11.168 20.7891C11.168 21 11.2617 21.1992 11.4492 21.3867L11.5547 21.4922C11.7188 21.6562 11.918 21.7383 12.1523 21.7383C12.3867 21.7383 12.5977 21.6562 12.7852 21.4922L15 19.2773L17.25 21.4922C17.4375 21.6562 17.6367 21.7383 17.8477 21.7383C18.082 21.7383 18.293 21.6562 18.4805 21.4922L18.5859 21.3867C18.75 21.1992 18.832 21 18.832 20.7891C18.832 20.5547 18.75 20.3438 18.5859 20.1562L15.7383 17.3086C16.1133 17.2852 16.5352 17.2148 17.0039 17.0977C17.4961 16.9805 17.9531 16.793 18.375 16.5352C18.8672 16.2305 19.1953 15.9609 19.3594 15.7266C19.5469 15.4688 19.5469 15.1641 19.3594 14.8125ZM15 8.66016C15.5391 8.68359 15.9844 8.87109 16.3359 9.22266C16.6875 9.57422 16.8633 10.0195 16.8633 10.5586C16.8633 11.0742 16.6875 11.5078 16.3359 11.8594C15.9844 12.2109 15.5391 12.3867 15 12.3867C14.4609 12.3867 14.0156 12.2109 13.6641 11.8594C13.3125 11.5078 13.1367 11.0742 13.1367 10.5586C13.1367 10.0195 13.3125 9.57422 13.6641 9.22266C14.0156 8.87109 14.4609 8.68359 15 8.66016ZM15 14.3555C16.0781 14.3086 16.9688 13.9336 17.6719 13.2305C18.3984 12.5273 18.7734 11.6367 18.7969 10.5586C18.7734 9.48047 18.3984 8.58984 17.6719 7.88672C16.9688 7.16016 16.0781 6.78516 15 6.76172C13.9219 6.78516 13.0195 7.16016 12.293 7.88672C11.5898 8.58984 11.2266 9.48047 11.2031 10.5586C11.2266 11.6367 11.5898 12.5273 12.293 13.2305C13.0195 13.9336 13.9219 14.3086 15 14.3555Z" fill="#EEF1F7"/>
</svg>
