<svg width="18" height="11" viewBox="0 0 18 11" fill="none" xmlns="http://www.w3.org/2000/svg">
<path d="M9 0.75C8.36719 0.773438 7.83984 0.996094 7.41797 1.41797C6.99609 1.83984 6.78516 2.36719 6.78516 3C6.78516 3.63281 6.99609 4.16016 7.41797 4.58203C7.83984 5.00391 8.36719 5.21484 9 5.21484C9.63281 5.21484 10.1602 5.00391 10.582 4.58203C11.0039 4.16016 11.2148 3.63281 11.2148 3C11.2148 2.36719 11.0039 1.83984 10.582 1.41797C10.1602 0.996094 9.63281 0.773438 9 0.75ZM4.5 2.36719C3.96094 2.39063 3.51562 2.57812 3.16406 2.92969C2.8125 3.28125 2.63672 3.72656 2.63672 4.26562C2.63672 4.78125 2.8125 5.21484 3.16406 5.56641C3.51562 5.91797 3.96094 6.10547 4.5 6.12891C4.82812 6.12891 5.12109 6.05859 5.37891 5.91797C5.66016 5.75391 5.89453 5.54297 6.08203 5.28516C5.54297 4.62891 5.26172 3.86719 5.23828 3C5.23828 2.85938 5.25 2.70703 5.27344 2.54297C5.03906 2.42578 4.78125 2.36719 4.5 2.36719ZM13.5 2.36719C13.2188 2.36719 12.9609 2.42578 12.7266 2.54297C12.75 2.70703 12.7617 2.85938 12.7617 3C12.7383 3.86719 12.457 4.62891 11.918 5.28516C12.1055 5.54297 12.3281 5.75391 12.5859 5.91797C12.8672 6.05859 13.1719 6.12891 13.5 6.12891C14.0391 6.10547 14.4844 5.91797 14.8359 5.56641C15.1875 5.21484 15.3633 4.78125 15.3633 4.26562C15.3633 3.72656 15.1875 3.28125 14.8359 2.92969C14.4844 2.57812 14.0391 2.39063 13.5 2.36719ZM9 6.76172C8.15625 6.76172 7.21875 6.94922 6.1875 7.32422C5.15625 7.69922 4.59375 8.26172 4.5 9.01172V10.4883H13.5V9.01172C13.4062 8.26172 12.8438 7.69922 11.8125 7.32422C10.7812 6.94922 9.84375 6.76172 9 6.76172ZM3.51562 7.46484C2.83594 7.58203 2.21484 7.79297 1.65234 8.09766C1.08984 8.37891 0.785156 8.76562 0.738281 9.25781V10.4883H2.98828V9.01172C3.01172 8.40234 3.1875 7.88672 3.51562 7.46484ZM14.4844 7.46484C14.8125 7.88672 14.9883 8.40234 15.0117 9.01172V10.4883H17.2617V9.25781C17.2148 8.76562 16.9102 8.37891 16.3477 8.09766C15.7852 7.79297 15.1641 7.58203 14.4844 7.46484Z" fill="#A1ACBD"/>
</svg>
