<svg width="30" height="30" viewBox="0 0 30 30" fill="none" xmlns="http://www.w3.org/2000/svg">
<path d="M15 30C23.2843 30 30 23.2843 30 15C30 6.71573 23.2843 0 15 0C6.71573 0 0 6.71573 0 15C0 23.2843 6.71573 30 15 30Z" fill="#2D486F"/>
<path d="M18.7617 6.76172V9.75H17.25C16.9922 9.77344 16.8047 9.90234 16.6875 10.1367C16.5703 10.3477 16.5117 10.5938 16.5117 10.875V12.7383H18.7617V15.7617H16.5117V21.7383H13.4883V15.7617H11.2383V12.7383H13.4883V9.75C13.5117 8.90625 13.8047 8.20312 14.3672 7.64062C14.9297 7.07812 15.6445 6.78516 16.5117 6.76172H18.7617Z" fill="#EEF1F7"/>
</svg>
