<svg width="36" height="36" viewBox="0 0 36 36" fill="none" xmlns="http://www.w3.org/2000/svg">
<circle cx="18" cy="18" r="18" fill="#FF9801"/>
<path d="M19.6797 9.17969H13C12.5312 9.17969 12.1406 9.33594 11.8281 9.64844C11.5156 9.96094 11.3464 10.3516 11.3203 10.8203V24.1797C11.3464 24.6484 11.5156 25.0391 11.8281 25.3516C12.1406 25.6641 12.5312 25.8203 13 25.8203H18.8203C18.4818 25.612 18.1693 25.3646 17.8828 25.0781C17.6224 24.8177 17.388 24.5182 17.1797 24.1797H13V10.8203H18.8203V15H23V15.9766C23.599 16.1068 24.1589 16.3411 24.6797 16.6797V14.1797L19.6797 9.17969ZM24.9141 23.2422C25.4609 22.3307 25.6172 21.3932 25.3828 20.4297C25.1745 19.4401 24.6146 18.6719 23.7031 18.125C22.8177 17.5521 21.8802 17.3828 20.8906 17.6172C19.9271 17.8255 19.1589 18.3854 18.5859 19.2969C18.0391 20.1823 17.8698 21.1068 18.0781 22.0703C18.3125 23.0339 18.8724 23.8151 19.7578 24.4141C20.3568 24.8047 21.0078 25 21.7109 25C22.4401 25 23.1172 24.8047 23.7422 24.4141L26.3203 26.9922L27.4922 25.8203L24.9141 23.2422ZM21.75 23.3203C21.151 23.3203 20.6562 23.125 20.2656 22.7344C19.875 22.3438 19.6797 21.849 19.6797 21.25C19.6797 20.651 19.875 20.1562 20.2656 19.7656C20.6562 19.375 21.151 19.1797 21.75 19.1797C22.349 19.1797 22.8438 19.375 23.2344 19.7656C23.625 20.1562 23.8203 20.651 23.8203 21.25C23.8203 21.849 23.625 22.3438 23.2344 22.7344C22.8438 23.125 22.349 23.3203 21.75 23.3203Z" fill="white"/>
</svg>
