<svg width="24" height="24" viewBox="0 0 24 24" fill="none" xmlns="http://www.w3.org/2000/svg">
<circle cx="12" cy="12" r="12" fill="#179EF0"/>
<path d="M13.1562 7.15625L8.5 9.875V15.125L13.1562 17.8438L17.8438 15.125V9.875L13.1562 7.15625ZM13.1562 8.71875L15.6875 10.1562L13.1562 11.625L10.625 10.1562L13.1562 8.71875ZM2.5 9.15625V10.5H7.15625V9.15625H2.5ZM9.84375 11.25L12.5 12.7812V15.9062L9.84375 14.375V11.25ZM16.5 11.25V14.375L13.8438 15.9062V12.7812L16.5 11.25ZM3.84375 11.8438V13.1562H7.15625V11.8438H3.84375ZM5.15625 14.5V15.8438H7.15625V14.5H5.15625Z" fill="white"/>
</svg>
