<svg width="36" height="36" viewBox="0 0 36 36" fill="none" xmlns="http://www.w3.org/2000/svg">
<circle cx="18" cy="18" r="18" fill="#FF9801"/>
<path d="M24.6797 9.17969H11.3203V10.8203L16.1641 14.4531C14.6276 15.026 13.5078 16.0026 12.8047 17.3828C12.1016 18.763 11.9844 20.2474 12.4531 21.8359C13 23.3984 13.9635 24.5182 15.3438 25.1953C16.75 25.8984 18.2474 26.0156 19.8359 25.5469C21.3724 25 22.4922 24.0365 23.1953 22.6562C23.8984 21.25 24.0156 19.7526 23.5469 18.1641C23.2344 17.2786 22.7526 16.5234 22.1016 15.8984C21.4766 15.2474 20.7214 14.7656 19.8359 14.4531L24.6797 10.8203V9.17969ZM20.4609 23.75L18 22.3047L15.5391 23.75L16.2031 20.9766L14.0547 19.1016L16.8672 18.8672L18 16.25L19.1328 18.8672L21.9453 19.1016L19.7969 20.9766L20.4609 23.75Z" fill="white"/>
</svg>
