<svg width="24" height="24" viewBox="0 0 24 24" fill="none" xmlns="http://www.w3.org/2000/svg">
<circle cx="12" cy="12" r="12" fill="#179EF0"/>
<path d="M8.76831 6.40479C8.93237 6.40479 9.06909 6.45947 9.17847 6.56885C9.28784 6.67822 9.34253 6.81494 9.34253 6.979V7.49854C9.67065 7.37093 10.0261 7.26156 10.4089 7.17041C10.81 7.06104 11.2384 6.99723 11.6941 6.979C12.4962 7.03369 13.0522 7.23421 13.3621 7.58057C13.672 7.90869 14.0821 8.1001 14.5925 8.15479C15.4675 8.1001 16.0782 7.90869 16.4246 7.58057C16.7709 7.23421 16.9441 7.03369 16.9441 6.979V11.6548C16.9441 11.7095 16.7709 11.91 16.4246 12.2563C16.0782 12.5845 15.4675 12.7759 14.5925 12.8306C13.7904 12.7759 13.2345 12.5845 12.9246 12.2563C12.6147 11.91 12.2045 11.7095 11.6941 11.6548C10.8191 11.7095 10.2084 11.91 9.86206 12.2563C9.51571 12.5845 9.34253 12.7759 9.34253 12.8306V16.9048H8.19409V6.979C8.19409 6.81494 8.24878 6.67822 8.35815 6.56885C8.46753 6.45947 8.60425 6.40479 8.76831 6.40479Z" fill="white"/>
</svg>
