<svg width="36" height="36" viewBox="0 0 36 36" fill="none" xmlns="http://www.w3.org/2000/svg">
<circle cx="18" cy="18" r="18" fill="#FF9801"/>
<path d="M17.1797 13.5C17.7526 13.5 18.2865 13.6172 18.7812 13.8516C19.276 14.0599 19.7188 14.3464 20.1094 14.7109L18 16.8203H23V11.8203L21.2812 13.5391C20.7604 13.0182 20.1484 12.6146 19.4453 12.3281C18.7422 12.0156 17.987 11.8464 17.1797 11.8203C15.6693 11.8724 14.3802 12.3672 13.3125 13.3047C12.2708 14.2161 11.6328 15.388 11.3984 16.8203H13.0781C13.2865 15.8568 13.7552 15.0755 14.4844 14.4766C15.2396 13.8516 16.138 13.526 17.1797 13.5ZM21.8672 21.1172C22.4401 20.362 22.7917 19.4896 22.9219 18.5H21.2422C21.0339 19.4635 20.5521 20.2578 19.7969 20.8828C19.0677 21.5078 18.1953 21.8203 17.1797 21.8203C16.5807 21.8203 16.0339 21.7161 15.5391 21.5078C15.0443 21.2995 14.6016 21 14.2109 20.6094L16.3203 18.5H11.3203V23.5L13.0391 21.7812C13.5859 22.3281 14.2109 22.7578 14.9141 23.0703C15.6172 23.3568 16.3724 23.5 17.1797 23.5C18.4818 23.474 19.6276 23.0964 20.6172 22.3672L24.6797 26.4297L25.9297 25.1797L21.8672 21.1172Z" fill="white"/>
</svg>
