<svg width="24" height="24" viewBox="0 0 24 24" fill="none" xmlns="http://www.w3.org/2000/svg">
<circle cx="12" cy="12" r="12" fill="#179EF0"/>
<path d="M7.01831 6.979H15.1941V9.33057H16.9441L18.6941 11.6548V14.5806H17.5183C17.5001 15.0728 17.3269 15.4829 16.9988 15.811C16.6707 16.1392 16.2605 16.3032 15.7683 16.3032C15.2761 16.3032 14.866 16.1392 14.5378 15.811C14.2097 15.4829 14.0365 15.0728 14.0183 14.5806H10.5183C10.5001 15.0728 10.3269 15.4829 9.99878 15.811C9.67065 16.1392 9.2605 16.3032 8.76831 16.3032C8.27612 16.3032 7.86597 16.1392 7.53784 15.811C7.20972 15.4829 7.03654 15.0728 7.01831 14.5806H5.84253V8.15479C5.86076 7.82666 5.97925 7.55322 6.198 7.33447C6.41675 7.11572 6.69019 6.99723 7.01831 6.979ZM15.1941 10.2056V11.6548H17.7917L16.6433 10.2056H15.1941ZM8.76831 13.7056C8.5131 13.7056 8.30347 13.7876 8.1394 13.9517C7.97534 14.1157 7.89331 14.3254 7.89331 14.5806C7.89331 14.8175 7.97534 15.0181 8.1394 15.1821C8.30347 15.3462 8.5131 15.4282 8.76831 15.4282C9.02352 15.4282 9.23315 15.3462 9.39722 15.1821C9.56128 15.0181 9.64331 14.8175 9.64331 14.5806C9.64331 14.3254 9.56128 14.1157 9.39722 13.9517C9.23315 13.7876 9.02352 13.7056 8.76831 13.7056ZM15.7683 13.7056C15.5131 13.7056 15.3035 13.7876 15.1394 13.9517C14.9753 14.1157 14.8933 14.3254 14.8933 14.5806C14.8933 14.8175 14.9753 15.0181 15.1394 15.1821C15.3035 15.3462 15.5131 15.4282 15.7683 15.4282C16.0235 15.4282 16.2332 15.3462 16.3972 15.1821C16.5613 15.0181 16.6433 14.8175 16.6433 14.5806C16.6433 14.3254 16.5613 14.1157 16.3972 13.9517C16.2332 13.7876 16.0235 13.7056 15.7683 13.7056ZM9.94409 12.8306L13.4441 9.33057L12.6238 8.48291L9.94409 11.1626L8.71362 9.95947L7.89331 10.7798L9.94409 12.8306Z" fill="white"/>
</svg>
