<svg width="24" height="24" viewBox="0 0 24 24" fill="none" xmlns="http://www.w3.org/2000/svg">
<circle cx="12" cy="12" r="12" fill="#179EF0"/>
<path d="M16.4807 8.15479H17.6291V16.3306C17.6291 16.6587 17.5197 16.9321 17.301 17.1509C17.0822 17.3696 16.8088 17.479 16.4807 17.479H8.3049V16.3306H16.4807V8.15479ZM7.12912 5.83057C6.80099 5.83057 6.52756 5.93994 6.30881 6.15869C6.09006 6.37744 5.98068 6.65088 5.98068 6.979V13.979C5.98068 14.3071 6.09006 14.5897 6.30881 14.8267C6.52756 15.0454 6.80099 15.1548 7.12912 15.1548H14.1291C14.4572 15.1548 14.7398 15.0454 14.9768 14.8267C15.1955 14.5897 15.3049 14.3071 15.3049 13.979V6.979C15.3049 6.65088 15.1955 6.37744 14.9768 6.15869C14.7398 5.93994 14.4572 5.83057 14.1291 5.83057H7.12912ZM8.87912 8.729C8.89735 8.23682 9.07053 7.82666 9.39865 7.49854C9.72678 7.17041 10.146 7.00635 10.6565 7.00635C11.1487 7.00635 11.5588 7.17041 11.8869 7.49854C12.2151 7.82666 12.3791 8.24593 12.3791 8.75635C12.3791 9.24854 12.2151 9.65869 11.8869 9.98682C11.5588 10.3149 11.1487 10.479 10.6565 10.479C10.146 10.479 9.72678 10.3149 9.39865 9.98682C9.07053 9.65869 8.89735 9.23942 8.87912 8.729ZM14.1291 13.4048V13.979H7.12912V13.4048C7.20204 12.8215 7.63954 12.3748 8.44162 12.0649C9.2437 11.755 9.97287 11.6001 10.6291 11.6001C11.2854 11.6001 12.0145 11.755 12.8166 12.0649C13.6187 12.3748 14.0562 12.8215 14.1291 13.4048Z" fill="white"/>
</svg>
