<svg width="36" height="36" viewBox="0 0 36 36" fill="none" xmlns="http://www.w3.org/2000/svg">
<circle cx="18" cy="18" r="18" fill="#FF9801"/>
<path d="M24.8984 15.7656C25.6536 16.5469 26.0312 17.4453 26.0312 18.4609C26.0312 19.4505 25.6536 20.349 24.8984 21.1562L25.7578 22.0156C26.7995 21 27.3203 19.8281 27.3203 18.5C27.3203 17.1719 26.7995 15.974 25.7578 14.9062L24.8984 15.7656ZM24 16.6641L23.1797 17.4844C23.388 17.7969 23.4922 18.1224 23.4922 18.4609C23.4922 18.7995 23.388 19.112 23.1797 19.3984L24 20.2578C24.4948 19.737 24.7422 19.151 24.7422 18.5C24.7422 17.849 24.4948 17.237 24 16.6641ZM20.6797 9.32031H12.3203C11.8516 9.34635 11.4609 9.51562 11.1484 9.82812C10.8359 10.1406 10.6797 10.5312 10.6797 11V26C10.6797 26.4688 10.8359 26.8594 11.1484 27.1719C11.4609 27.4844 11.8516 27.6536 12.3203 27.6797H20.6797C21.1484 27.6536 21.5391 27.4844 21.8516 27.1719C22.1641 26.8594 22.3203 26.4688 22.3203 26V11C22.3203 10.5312 22.1641 10.1406 21.8516 9.82812C21.5391 9.51562 21.1484 9.34635 20.6797 9.32031ZM20.6797 25.1797H12.3203V11.8203H20.6797V25.1797Z" fill="white"/>
</svg>
