<svg width="20" height="19" viewBox="0 0 20 19" fill="none" xmlns="http://www.w3.org/2000/svg">
<path d="M19.1523 9.75C19.0951 12.3568 18.207 14.5195 16.4883 16.2383C14.7695 17.957 12.6068 18.8451 10 18.9023C7.39323 18.8451 5.23047 17.957 3.51172 16.2383C1.79297 14.5195 0.904948 12.3568 0.847656 9.75C0.904948 7.14323 1.79297 4.98047 3.51172 3.26172C5.23047 1.54297 7.39323 0.654948 10 0.597656C12.6068 0.654948 14.7695 1.54297 16.4883 3.26172C18.207 4.98047 19.0951 7.14323 19.1523 9.75ZM8.15234 15.25L13.6523 9.75L8.15234 4.25L6.86328 5.53906L11.1172 9.75L6.86328 13.9609L8.15234 15.25Z" fill="#FF9801"/>
</svg>
