<svg width="140" height="140" viewBox="0 0 140 140" fill="none" xmlns="http://www.w3.org/2000/svg">
<circle cx="70" cy="70" r="70" fill="#FCD941"/>
<g clip-path="url(#clip0)">
<path d="M67.7259 31.188V35.7363H44.9845V81.5221H40.4363V86.0704H53.5812L49.033 108.812H62.7678L65.4968 95.167H74.5033L77.2322 108.812H90.9671L86.4188 86.0704H99.5638V81.5221H95.0155V35.7363H72.2741V31.188H67.7259ZM54.5809 104.263L58.2195 86.0704H62.6778L59.0392 104.263H54.5809ZM66.4064 90.6187L67.3161 86.0704H72.684L73.5936 90.6187H66.4064ZM85.4191 104.263H80.9609L77.3223 86.0704H81.7805L85.4191 104.263ZM49.5328 81.5221V76.9739H90.4672V81.5221H49.5328ZM90.4672 72.4256H49.5328V40.2845H90.4672V72.4256Z" fill="black"/>
</g>
<defs>
<clipPath id="clip0">
<rect width="77.6238" height="77.6238" fill="white" transform="matrix(1 0 0 -1 31.1882 108.812)"/>
</clipPath>
</defs>
</svg>
