<svg width="202" height="202" viewBox="0 0 202 202" fill="none" xmlns="http://www.w3.org/2000/svg">
<circle cx="101" cy="101" r="101" fill="#FCD941"/>
<path d="M97.7188 45V51.5625H64.9062V117.625H58.3438V124.188H77.3101L70.7476 157H90.5649L94.5024 137.312H107.498L111.435 157H131.252L124.69 124.188H143.656V117.625H137.094V51.5625H104.281V45H97.7188ZM78.7524 150.438L84.0024 124.188H90.4351L85.1851 150.438H78.7524ZM95.8149 130.75L97.1274 124.188H104.873L106.185 130.75H95.8149ZM123.248 150.438H116.815L111.565 124.188H117.998L123.248 150.438ZM71.4688 117.625V111.062H130.531V117.625H71.4688ZM130.531 104.5H71.4688V58.125H130.531V104.5Z" fill="black"/>
</svg>
