<svg width="28" height="28" viewBox="0 0 28 28" fill="none" xmlns="http://www.w3.org/2000/svg">
<path d="M12.6449 22.9986L12.6442 22.9979C9.62998 20.2647 7.16859 18.0319 5.45473 15.9366C3.74662 13.8482 2.83333 11.9574 2.83333 9.91667C2.83333 6.59948 5.43281 4 8.75 4C10.6286 4 12.4395 4.87697 13.6193 6.2625L14 6.70954L14.3807 6.2625C15.5605 4.87697 17.3714 4 19.25 4C22.5672 4 25.1667 6.59948 25.1667 9.91667C25.1667 11.9574 24.2534 13.8483 22.5452 15.9382C20.8349 18.0306 18.3803 20.2611 15.3749 22.9923L15.3565 23.009L15.3554 23.01L14.0013 24.2333L12.6449 22.9986Z" stroke="black"/>
</svg>
